<svg width="152" height="151" viewBox="0 0 152 151" fill="none" xmlns="http://www.w3.org/2000/svg">
<path d="M63.6186 48.3338C62.3983 48.1756 51.5667 48.1756 49.6233 48.3338C49.59 48.341 49.5607 48.3606 49.5412 48.3885C49.5216 48.4164 49.5133 48.4507 49.5179 48.4844C49.5248 48.5097 49.5382 48.5326 49.5566 48.5511C49.5751 48.5696 49.5981 48.583 49.6233 48.5899C51.3709 48.7405 62.3757 48.8083 63.5809 48.6501C63.7541 48.6351 63.8069 48.3564 63.6186 48.3338ZM114.5 67.1799C114.349 67.1799 112.413 67.8653 112.926 68.144L113.468 68.596C113.348 68.8671 114.53 70.1024 113.717 73.0099C113.378 72.7764 113.37 73.0099 113.415 73.0853C114.673 74.3808 123.659 81.5743 125.663 82.8774C125.844 83.141 126.989 82.5761 127.169 82.5159C131.149 80.8191 135.034 78.9081 138.807 76.7912C140.185 76.038 140.17 73.3338 138.498 72.2718C136.739 71.1021 134.908 70.0454 133.015 69.1082L135.35 67.2778C135.515 67.1497 135.425 66.6752 134.792 67.1874C133.43 64.9859 132.878 62.3778 133.233 59.8132C133.323 59.7604 134.333 59.1579 133.888 58.962C131.629 58.0205 124.141 55.2711 121.837 55.128C121.083 55.0753 115.057 59.896 114.492 60.8677C113.287 62.8789 113.656 65.1762 114.538 67.2025L114.5 67.1799ZM113.897 73.1229C114.651 72.3019 114.417 70.0497 114.056 69.0554C115.088 69.884 123.381 76.1359 126.017 77.8081C127.441 80.8211 125.851 82.2823 125.904 82.5083C121.49 79.4426 117.897 75.9401 113.897 73.1229ZM138.445 72.784C139.703 73.4318 139.417 76.1284 138.513 76.4447C134.416 78.6367 130.363 80.6101 126.13 82.4706C126.686 81.7205 126.989 80.8132 126.996 79.8795L132.796 77.4993C132.902 77.4465 132.796 77.3034 132.713 77.326C130.766 77.977 128.859 78.7442 127.004 79.6234C126.989 78.8913 126.761 78.1793 126.348 77.5746C128.119 76.8741 137.165 72.1814 138.445 72.784ZM125.889 65.1311C128.105 63.296 130.424 61.5884 132.834 60.0165C132.658 60.9324 132.625 61.87 132.736 62.796C132.367 62.9165 127.802 66.2609 127.569 66.4417C127.471 66.517 127.569 66.6752 127.689 66.6149L132.789 63.15C132.947 64.2121 133.587 66.63 134.574 67.2853C133.572 68.0988 128.616 72.0232 127.411 72.0232C126.507 71.1515 125.882 70.0318 125.614 68.8053C125.345 67.5787 125.447 66.3002 125.904 65.1311H125.889ZM124.902 58.6306C125.429 59.0825 123.245 60.3555 123.162 60.3781C122.914 60.4534 122.748 60.1973 123.283 59.6851C123.554 59.4516 124.548 58.3519 124.902 58.6381V58.6306ZM120.797 59.8885C121.174 59.1353 122.74 57.8849 123.403 57.4329C123.436 57.4102 123.473 57.3941 123.512 57.3856C123.55 57.377 123.591 57.3762 123.63 57.3832C123.669 57.3902 123.706 57.4049 123.74 57.4263C123.773 57.4478 123.802 57.4756 123.825 57.5083C123.848 57.5409 123.864 57.5777 123.872 57.6166C123.881 57.6554 123.882 57.6956 123.875 57.7348C123.868 57.7739 123.853 57.8113 123.832 57.8449C123.81 57.8784 123.782 57.9073 123.75 57.9301C123.162 58.382 121.565 59.881 121.121 60.1898C121.088 60.2083 121.05 60.2179 121.012 60.2179C120.974 60.2179 120.936 60.2083 120.903 60.1898C120.876 60.1777 120.852 60.1604 120.833 60.139C120.813 60.1176 120.798 60.0924 120.788 60.0651C120.778 60.0377 120.774 60.0087 120.776 59.9796C120.777 59.9506 120.784 59.9222 120.797 59.896V59.8885ZM115.268 61.1916C118.5 62.0684 121.674 63.1426 124.774 64.4079C124.97 64.5059 124.902 64.8373 124.669 64.7921C121.439 63.8923 118.268 62.7981 115.17 61.5155C115.136 61.4962 115.109 61.4657 115.094 61.4291C115.08 61.3925 115.078 61.352 115.089 61.3142C115.101 61.2764 115.125 61.2437 115.157 61.2214C115.19 61.1991 115.229 61.1886 115.268 61.1916ZM114.711 67.5414C118.304 69.5676 124.993 72.1437 127.516 72.5203C128.021 72.5957 132.118 69.7183 132.789 69.2287C133.226 69.658 136.864 71.7144 137.79 72.2868C136.449 72.3546 126.718 76.8891 126.017 77.3335C121.837 74.2076 117.498 71.0365 113.212 68.0612L114.718 67.5414H114.711ZM63.6186 48.3338H63.6261H63.6186ZM75.8512 33.977C75.8053 33.9582 75.7539 33.9582 75.7081 33.977C75.2637 34.2482 72.6951 37.7432 72.1754 38.3985C71.6782 37.7206 71.1736 37.0502 70.6689 36.3949C70.571 36.2744 70.3676 36.3949 70.4429 36.5531C70.9476 37.3591 71.4899 38.1349 72.0398 38.9107C72.1302 39.0313 72.3034 38.971 72.3787 38.8731C72.8533 38.2705 75.8738 34.6248 76.0018 34.2105C76.0074 34.1853 76.0078 34.1592 76.0033 34.1338C75.9987 34.1084 75.9891 34.0841 75.9751 34.0624C75.9611 34.0407 75.9429 34.022 75.9217 34.0073C75.9004 33.9927 75.8765 33.9824 75.8512 33.977ZM61.4869 49.7951C56.9674 49.8855 51.9584 49.7951 50.015 49.9608C49.9751 49.9608 49.9368 49.9767 49.9085 50.0049C49.8803 50.0332 49.8644 50.0715 49.8644 50.1114C49.8644 50.1514 49.8803 50.1897 49.9085 50.218C49.9368 50.2462 49.9751 50.2621 50.015 50.2621C52.3501 50.2621 59.6188 50.5031 61.4869 50.1039C61.6451 50.0662 61.6149 49.8403 61.4869 49.7951ZM61.6526 42.225C61.8032 42.225 61.8484 41.9689 61.6526 41.9463C60.1461 41.7203 51.1072 42.1647 48.9153 42.5037C48.8753 42.5037 48.837 42.5196 48.8088 42.5478C48.7805 42.5761 48.7646 42.6144 48.7646 42.6543C48.7646 42.6943 48.7805 42.7326 48.8088 42.7609C48.837 42.7891 48.8753 42.805 48.9153 42.805C51.868 42.805 58.5794 42.3455 61.6149 42.2401L61.6526 42.225ZM58.6547 43.7315C58.7828 43.7315 58.8505 43.4754 58.6547 43.4302C57.9015 43.2419 50.3691 43.4302 49.2317 43.5582C49.2137 43.561 49.1966 43.5673 49.1811 43.5767C49.1657 43.5862 49.1523 43.5987 49.1418 43.6135C49.1312 43.6282 49.1238 43.6449 49.1198 43.6626C49.1158 43.6803 49.1154 43.6986 49.1187 43.7164C49.1227 43.7457 49.1358 43.773 49.156 43.7946C49.1763 43.8162 49.2027 43.831 49.2317 43.8369C50.6854 43.9198 57.7659 43.9725 58.6547 43.7315ZM74.7138 47.8743C75.1281 47.2717 70.586 47.4902 70.3902 47.6935C70.1943 47.8969 70.3902 50.9927 70.3902 51.279C70.3902 51.7234 74.6008 51.7158 74.7665 51.5878C74.9544 50.3621 74.9544 49.115 74.7665 47.8894L74.7138 47.8743ZM74.3899 51.2488C73.9907 51.2488 71.0304 51.3016 70.7894 51.1132C70.7894 50.0512 70.7216 48.9966 70.684 47.9421H74.4502C74.3146 49.0392 74.2944 50.1475 74.3899 51.2488Z" fill="black"/>
<path d="M127.816 68.8067C128.871 68.1815 129.948 67.5714 130.965 66.8934C131.108 66.7955 130.965 66.5394 130.799 66.6298L127.703 68.6334C127.686 68.6505 127.675 68.6731 127.672 68.6973C127.67 68.7216 127.675 68.746 127.689 68.7664C127.702 68.7868 127.722 68.802 127.745 68.8093C127.769 68.8167 127.794 68.8157 127.816 68.8067ZM120.224 77.0773C120.133 77.017 120.013 77.1601 120.103 77.2354C120.856 77.8908 124.562 80.4819 125.376 81.0544C125.481 81.1297 125.572 80.9565 125.474 80.8811C123.892 79.6759 121.903 78.0866 120.224 77.0773ZM71.4286 45.2528C71.8203 45.2528 74.886 45.6069 74.8559 45.1022C74.8257 44.5975 74.7805 41.6975 74.5847 41.6072C74.532 41.1025 70.713 41.4716 70.359 41.5394C70.1406 41.5394 70.231 44.477 70.246 44.831C70.2686 45.3432 71.0897 45.2378 71.4286 45.2528ZM74.3889 41.7804V44.9515C73.1202 44.821 71.8428 44.7958 70.5699 44.8762C70.6198 43.8441 70.5997 42.8098 70.5097 41.7804C71.1349 41.7804 73.9896 41.8783 74.3889 41.7804ZM125.21 79.6082C125.229 79.6241 125.253 79.6328 125.278 79.6328C125.303 79.6328 125.327 79.6241 125.346 79.6082C125.36 79.5916 125.369 79.5701 125.369 79.5479C125.369 79.5257 125.36 79.5042 125.346 79.4876C121.896 77.0396 118.469 74.0944 115.079 71.797C114.981 71.7217 114.83 71.8648 114.928 71.9628C116.826 73.7705 122.754 77.9887 125.24 79.6458L125.21 79.6082ZM134.859 75.2845H134.874H134.859ZM74.8408 36.6508C74.8303 36.6172 74.8072 36.5889 74.7763 36.5721C74.7453 36.5552 74.709 36.551 74.6751 36.5604C74.6524 36.5658 74.6314 36.5769 74.6143 36.5928C74.5971 36.6086 74.5843 36.6286 74.5772 36.6508V39.2872H70.4042C70.3311 38.0733 70.1954 36.864 69.9975 35.6641C71.1757 35.7188 72.3563 35.6886 73.5302 35.5737C73.5566 35.5652 73.5793 35.5478 73.5944 35.5245C73.6095 35.5011 73.6161 35.4733 73.613 35.4457C73.6087 35.4296 73.6011 35.4147 73.5908 35.4017C73.5804 35.3887 73.5675 35.3781 73.5528 35.3703C73.2741 35.2799 69.7866 34.9786 69.892 35.5812C69.5455 35.5812 70.0502 39.3474 70.0502 39.3474C70.231 39.8069 70.9917 39.6487 71.391 39.6487C71.7902 39.6487 74.5621 39.7165 74.7881 39.6487C75.1496 39.5056 74.9463 37.0952 74.8634 36.6358L74.8408 36.6508Z" fill="black"/>
<path d="M147.627 104.985C138.031 105.572 128.432 106.075 118.831 106.491C118.705 105.118 118.453 103.759 118.078 102.431C127.619 102.18 137.16 101.887 146.701 101.55C146.749 101.544 146.795 101.523 146.83 101.489C146.865 101.455 146.889 101.41 146.897 101.362C146.903 101.303 146.886 101.244 146.849 101.198C146.813 101.151 146.759 101.121 146.701 101.113C137.12 101.47 127.541 101.764 117.965 101.995C115.705 94.1157 110.937 86.621 105.378 80.6854C105.205 78.6818 105.197 77.6725 104.339 75.6613C102.681 71.8574 100.851 71.0665 100.896 71.9704C100.896 72.2085 100.934 72.4451 101.009 72.6709C100.708 72.2943 98.4934 69.9894 98.0414 71.2323C97.7082 71.0226 97.332 70.8907 96.9408 70.8464C96.5496 70.802 96.1534 70.8464 95.7817 70.9762C94.3732 68.7164 92.0155 68.7164 90.509 67.9632C87.6317 66.4567 88.9574 61.651 91.074 59.8583C91.074 59.8583 100.166 59.6851 100.173 59.5721C100.339 57.4404 102.154 24.9983 102.154 24.9983C79.7528 24.5539 55.6491 24.9983 33.4134 25.4503C33.2627 25.4503 33.1347 25.5482 33.1498 25.6838C34.4905 37.0954 37.7822 60.4534 37.7822 60.4534C38.3245 60.6718 87.5639 59.9035 90.509 59.8583C89.2495 61.2321 88.5601 63.0338 88.5807 64.8975C88.7314 69.6429 92.5051 67.6242 95.5934 71.0967C93.5898 71.9554 93.3337 74.4938 94.0869 76.3091C94.2238 76.6571 94.4089 76.9842 94.6368 77.2808C94.6684 77.9886 94.8699 78.6784 95.2243 79.2919C96.1885 81.1223 97.9059 81.755 97.9962 82.0262C97.9962 86.2895 98.8926 91.4869 99.7438 95.6448C96.8739 94.1383 88.3623 90.5453 79.6096 90.2892C80.1068 85.9732 83.8353 85.4308 83.3231 82.5459C84.8823 82.4857 86.4415 82.4254 88.0007 82.3501C88.3924 82.3501 87.9631 81.1449 87.9179 80.9415C87.2852 78.1545 86.6499 75.3726 86.0122 72.5956C85.9143 72.219 85.4774 69.6881 85.1083 69.6881L80.2499 69.7785C79.1803 68.7616 76.672 68.385 75.6476 69.5676C74.1411 66.6676 69.4861 67.0894 69.3354 69.9066C68.0625 69.0403 66.1718 68.8671 65.0194 70.0421C64.8989 70.0949 42.1133 70.4037 38.7237 70.5393H38.6635C38.6269 70.5625 38.6008 70.5992 38.591 70.6415C38.5811 70.6837 38.5882 70.7282 38.6108 70.7653C38.671 71.1569 36.7051 80.4519 36.4716 82.689C36.4716 83.0054 39.8837 82.9602 40.2378 82.9602C35.3718 88.6622 30.9955 95.0949 29.6924 102.62C21.4821 102.492 13.2717 102.288 5.06142 102.318C5.02146 102.318 4.98315 102.334 4.95489 102.363C4.92664 102.391 4.91077 102.429 4.91077 102.469C4.91077 102.509 4.92664 102.547 4.95489 102.576C4.98315 102.604 5.02146 102.62 5.06142 102.62C13.2341 102.974 21.4293 103.011 29.6095 103.072C29.3658 104.565 29.265 106.079 29.3082 107.591C21.1732 107.425 13.0382 107.169 4.91077 107.034C4.72999 107.034 4.69986 107.32 4.91077 107.32C13.0458 107.734 21.1958 107.885 29.3459 108.005C29.5568 112.096 31.1687 117.112 35.176 118.95C36.8256 122.189 40.3206 125.104 44.2149 124.268C44.1019 124.855 43.9964 125.458 43.8834 126.061C43.8382 126.332 44.245 126.445 44.2902 126.174C45.3975 120.208 46.5499 114.212 48.4857 108.457C48.546 108.277 48.2748 108.209 48.207 108.382C46.3239 113.384 45.2619 118.641 44.2827 123.876C40.298 124.456 37.1193 121.918 35.4697 118.483C34.5823 116.668 34.0689 114.693 33.9602 112.676C33.8515 110.658 34.1497 108.64 34.837 106.74C36.8934 101.467 42.3694 97.7011 47.7476 95.125C53.2159 92.5336 59.0886 90.9004 65.1098 90.2968C65.5391 94.3191 70.164 95.6824 73.6892 95.4715C77.2143 95.2606 79.3008 94.1835 79.6021 90.6282C79.6473 90.6282 92.3243 90.9069 103.269 98.2209C106.485 100.368 109.408 103.124 111.118 106.627C112.79 110.009 113.377 114.159 111.871 117.685C109.717 122.822 105.785 123.567 103.179 124.027C102.257 118.511 100.478 113.174 97.9059 108.209C97.8381 108.081 97.6272 108.164 97.695 108.299C100.377 114.083 102.207 120.226 103.126 126.535C103.126 126.731 103.518 126.784 103.518 126.535C103.487 125.846 103.396 125.16 103.246 124.486C106.087 124.242 108.717 122.889 110.568 120.72C116.594 119.214 119.223 112.698 118.853 106.958C128.475 106.567 138.086 106.065 147.688 105.452C147.951 105.354 147.853 104.985 147.627 104.985ZM37.8123 55.6929C36.3058 46.1117 35.1082 36.5757 33.7448 26.9869C56.342 26.5952 79.5268 26.7609 101.815 26.3843L100.075 54.6384C90.6672 54.9246 39.025 55.2184 37.8123 55.6929ZM83.2327 82.1241C83.0948 81.7225 82.8306 81.3763 82.4795 81.1374C82.87 80.5164 83.0812 79.7995 83.0896 79.066H83.4964L84.0613 82.0789L83.2327 82.1241ZM82.6 76.6029C82.7289 76.499 82.8475 76.383 82.954 76.2564C83.1348 77.0623 83.2855 77.8683 83.4361 78.6743H83.0746C83.1115 77.9532 82.9472 77.236 82.6 76.6029ZM87.7522 81.9283L84.2873 82.0789C84.1969 81.062 84.001 80.0602 83.8203 79.066C84.9031 79.102 85.9871 79.0743 87.0667 78.9831C87.2927 79.9548 87.5262 80.9491 87.7522 81.9283ZM86.9989 78.6366H83.76L83.2177 75.812L86.3436 75.7216L86.9989 78.6366ZM86.2457 75.3977L83.3005 75.4881C83.3572 75.1309 83.3316 74.7654 83.2259 74.4196C83.1202 74.0737 82.9371 73.7565 82.6904 73.492C82.6452 73.266 82.6 73.0325 82.5397 72.799L85.6431 72.7312L86.2457 75.3977ZM85.0932 70.0195C85.2589 70.7728 85.4096 71.5787 85.5602 72.3621L82.4644 72.4148C82.3063 71.6229 82.1026 70.8407 81.8543 70.0723L85.0932 70.0195ZM82.246 73.2133C81.8793 73.0466 81.465 73.0172 81.0785 73.1304C81.113 73.0372 81.1407 72.9415 81.1613 72.8442H82.1556L82.246 73.2133ZM81.4927 70.0798C81.634 70.8706 81.8201 71.6527 82.0501 72.4224H81.214C81.3003 71.5878 81.069 70.7515 80.5663 70.0798H81.4927ZM63.2568 70.4037H64.7105C64.4035 70.8783 64.2953 71.4545 64.4092 72.0081L63.1287 72.3772C63.189 71.7294 63.2568 71.0063 63.2568 70.4037ZM62.85 70.4037V72.5052C62.7224 72.5811 62.5992 72.6641 62.481 72.7538L58.9181 72.8141C58.951 72.0326 58.9284 71.2497 58.8503 70.4715L62.85 70.4037ZM61.2682 75.8647H58.8955V73.2283L61.9838 73.1756C61.6572 73.5333 61.4216 73.9645 61.297 74.4326C61.1724 74.9007 61.1626 75.3919 61.2682 75.8647ZM58.9106 79.3522H60.9669C60.996 80.0094 61.2394 80.639 61.6599 81.1449C61.4114 81.3168 61.2115 81.55 61.0795 81.8218C60.9476 82.0937 60.888 82.395 60.9067 82.6966H58.8729C58.8955 81.5667 58.9106 80.4594 58.9106 79.3522ZM61.1703 78.4408C61.1043 78.598 61.0563 78.7623 61.0272 78.9304H58.9483V76.2112H61.3812C61.5448 76.6607 61.8385 77.0514 62.2248 77.3335C61.7542 77.5771 61.374 77.9652 61.1402 78.4408H61.1703ZM58.647 82.689H49.3143C49.4122 81.3935 49.3143 80.58 50.1504 79.4652L58.5641 79.3673C58.5566 80.4745 58.5792 81.5818 58.6168 82.689H58.647ZM50.4592 79.0509C51.243 78.2584 51.8356 77.2975 52.1917 76.2413H54.0748V79.0057L50.4592 79.0509ZM54.5569 70.5543L58.5038 70.4865C58.4614 71.2668 58.4614 72.0488 58.5038 72.8291L54.5343 72.8969C54.5343 72.1211 54.5418 71.3377 54.5569 70.5543ZM54.5041 73.3112L58.4888 73.2434V75.8797H54.4514C54.4514 75.0211 54.4514 74.1699 54.5041 73.3112ZM54.4514 76.2338H58.5264V78.953L54.2857 79.0057C54.346 78.0792 54.3911 77.1829 54.4514 76.2338ZM50.6852 70.6221L54.2932 70.5619L54.2104 72.9044L50.5346 72.9647C50.624 72.1873 50.6517 71.404 50.6174 70.6221H50.6852ZM50.5044 73.3715L54.2028 73.3112L54.135 75.8722H52.2896C52.38 75.4579 52.5457 74.78 52.0561 74.554C51.5665 74.3281 51.0995 75.4579 50.1956 75.8647C50.2785 75.0361 50.3538 74.2076 50.4366 73.379L50.5044 73.3715ZM47.2806 70.6824L50.3914 70.6297C50.2838 71.4066 50.2159 72.1884 50.1881 72.9722H49.932C50.2559 72.1813 48.5083 71.6691 47.0019 72.9722C47.0245 72.5881 47.2354 70.9385 47.2128 70.6824H47.2806ZM50.0901 73.4167C50.0374 74.2377 49.9922 75.0512 49.9395 75.8722H48.7644C48.5385 75.2094 48.7644 73.6502 49.367 73.4167H50.0751H50.0901ZM46.8286 70.705L46.7081 73.04H45.2995C44.7421 71.88 45.0962 70.9988 44.5463 70.7201L46.8286 70.705ZM46.5273 73.4618C46.3537 73.6794 46.207 73.9171 46.0904 74.1699L45.533 73.4844L46.5273 73.4618ZM41.7141 70.8029L44.132 70.7577C43.3788 71.1193 43.2658 72.3998 43.2658 73.1003H42.1284C41.7442 72.7689 41.5785 73.1003 41.2923 73.1003L41.699 70.7577L41.7141 70.8029ZM43.3863 74.6294C42.9683 74.3505 42.6286 73.9693 42.3996 73.5221H43.2507C43.2597 73.8932 43.2949 74.2632 43.3562 74.6294H43.3863ZM40.8931 75.7592L41.2546 73.5447C41.1791 74.3093 41.2743 75.0811 41.5333 75.8044L40.8931 75.7592ZM41.6463 76.1283C41.9551 77.1603 42.3996 78.1018 42.6105 79.1413L40.3507 79.1865L40.8027 76.1208L41.6463 76.1283ZM38.9121 70.8104H41.3827C41.2396 71.5637 41.104 72.3772 40.9684 73.1681C40.1474 73.1681 39.3188 73.2133 38.4978 73.2509C38.6752 72.446 38.8034 71.631 38.8819 70.8104H38.9121ZM38.445 73.5598H40.8931C40.7801 74.313 40.6596 75.0662 40.5391 75.7668H38.0157C38.1437 75.0135 38.2793 74.2829 38.4149 73.5598H38.445ZM37.9856 76.0304C38.8141 76.0756 39.6427 76.0982 40.4713 76.1133C40.3281 77.1301 40.1624 78.1621 40.0268 79.1865C39.1456 79.1865 38.2643 79.2467 37.383 79.2844C37.5863 78.1997 37.7822 77.1151 37.9856 76.0304ZM39.6804 82.561H36.7728C36.9612 81.5517 37.157 80.5498 37.3604 79.548L39.9741 79.6158C39.8152 80.5913 39.7071 81.5743 39.6502 82.561H39.6804ZM39.8913 82.561L40.3357 79.548H42.6783C42.7008 79.7483 42.7008 79.9504 42.6783 80.1506L40.5616 82.5685L39.8913 82.561ZM34.7617 105.708C33.8807 107.715 33.4403 109.888 33.4701 112.08C33.5 114.272 33.9995 116.433 34.9349 118.415C27.6436 113.489 29.1952 102.597 32.2986 95.6373C34.837 89.9352 38.8593 85.0919 42.9796 80.4444C43.5821 79.7589 41.6313 75.1717 41.5635 74.0494C41.5183 73.2133 41.8648 73.04 42.1736 73.6351C42.4824 74.2302 42.9268 74.9081 43.5369 75.0512C43.778 75.7592 43.9663 75.5333 43.9362 75.4203C43.6801 74.1774 43.2357 72.4073 44.0642 71.2624C44.6668 70.464 44.6442 71.9328 44.7045 72.219C44.8476 72.9045 45.4577 74.2302 46.0076 74.4787C45.8193 75.0135 46.1356 74.8252 46.1582 74.7574C47.2278 71.9478 50.4969 72.347 49.4424 73.04C49.1643 73.206 48.928 73.4335 48.7518 73.7052C48.5755 73.9768 48.4638 74.2852 48.4255 74.6068C48.0413 77.2657 50.1353 76.8665 51.6569 75.0135C52.2896 74.2603 52.3197 75.8797 51.3179 77.5143C50.4668 78.9002 49.3143 79.3974 49.1787 81.2127C48.8021 85.6493 47.8907 90.9446 47.2806 94.8463C42.279 97.2643 37.1645 100.533 34.7316 105.716L34.7617 105.708ZM47.6722 94.643C48.4077 90.8129 48.9332 86.9455 49.2465 83.0581H60.9293C61.3662 85.5815 64.4996 85.9204 65.0043 89.8373C58.9926 90.4251 53.1283 92.051 47.6722 94.643ZM79.4741 88.5643C79.2865 89.1567 79.1653 89.7681 79.1125 90.3872C78.8112 93.5809 77.4554 94.643 73.9076 94.9066C70.1414 95.2154 66.0588 94.0253 65.4864 89.9653C64.9817 86.3498 63.8217 86.6662 61.9612 84.1353C61.4038 83.382 60.9067 81.981 61.9612 81.3935C62.4793 81.9626 63.1282 82.3969 63.8519 82.6589C65.4789 86.3121 66.0287 90.5228 70.7591 90.9898C79.9034 91.8409 77.8546 86.862 80.7546 82.5158C81.3184 82.2552 81.8291 81.8925 82.261 81.4462C82.5899 81.7211 82.8169 82.0985 82.9057 82.5178C82.9945 82.9371 82.9399 83.3741 82.7507 83.7586C82.0125 85.5438 80.2348 86.2217 79.4741 88.5643ZM98.1394 71.6691C98.3955 72.2416 98.6591 72.8065 98.8926 73.379C98.5235 72.9044 96.7157 70.931 96.1131 71.9855C95.8043 72.5354 96.4521 73.3564 96.7157 73.846C95.7047 74.025 94.8012 74.586 94.1924 75.4127C93.2282 71.9102 96.6329 70.1627 98.1394 71.6691ZM94.7347 76.7987C94.5916 76.4447 94.4409 76.0831 94.2903 75.7291C94.9513 74.9552 95.8396 74.4096 96.8287 74.1699C97.2525 75.0447 97.5274 75.9841 97.6422 76.9494C97.8456 78.8776 96.3692 77.4992 95.6537 76.8364C95.375 76.5501 94.908 76.4296 94.6971 76.7987H94.7347ZM111.042 120.042C113.536 116.547 113.641 112.035 112.195 108.088C110.146 102.507 105.273 98.5975 100.143 95.8632C99.1567 91.3084 98.5172 86.6853 98.2298 82.0337C98.2298 81.3257 95.8344 80.8436 95.0887 78.0641C94.9532 77.5595 94.6745 76.2338 95.5859 77.1829C96.4973 78.1319 98.049 79.0057 97.9812 76.9268C97.8908 74.4637 96.2186 72.8216 96.3692 72.2642C96.5576 71.5637 97.9511 72.8818 98.177 73.1078C98.7658 73.7556 99.2999 74.4509 99.7739 75.1868C99.8568 75.3073 100.06 75.1868 99.9848 75.0738C99.809 74.7725 99.6283 74.4712 99.4425 74.1699C99.563 73.9138 98.2072 71.5185 98.4482 71.2925C98.6892 71.0665 99.7739 71.8499 100.015 72.0458C101.273 73.138 101.333 73.8686 101.762 74.4335C101.782 74.4404 101.803 74.4404 101.823 74.4335C101.85 74.4357 101.876 74.4276 101.897 74.4108C101.918 74.394 101.932 74.3698 101.936 74.3431C101.89 73.8611 101.612 73.5899 101.476 73.2585C101.341 72.927 101.062 72.1813 101.25 71.9177C101.341 71.8424 101.86 72.2265 101.921 72.2868C102.418 72.7628 102.832 73.3176 103.148 73.9289C105.453 77.8683 104.76 80.4067 105.152 80.7909C110.869 87.2311 116.978 96.6617 118.213 105.173C119.049 111.079 117.189 117.963 111.005 120.042H111.042Z" fill="black"/>
<path d="M56.4091 38.0148C56.5823 37.9621 56.5145 37.7135 56.3563 37.6909C53.6145 37.7436 50.6995 37.6909 47.9954 37.7662C47.7845 37.7662 47.8146 38.0901 47.9954 38.1203C49.3813 38.3462 55.2039 38.3839 56.4091 38.0148ZM128.321 78.2981C129.345 77.8537 134.347 75.835 134.942 75.4961C134.953 75.4862 134.962 75.474 134.968 75.4604C134.974 75.4467 134.978 75.4319 134.978 75.417C134.978 75.402 134.974 75.3872 134.968 75.3736C134.962 75.3599 134.953 75.3478 134.942 75.3379C134.93 75.3196 134.913 75.3051 134.893 75.2958C134.873 75.2865 134.851 75.2828 134.829 75.2851C133.564 75.5488 129.466 77.4997 128.193 78.1324C128.125 78.1851 128.215 78.3433 128.321 78.2981ZM77.8011 60.612L61.8324 60.8531C62.5178 68.5964 78.0045 68.7169 77.8011 60.612ZM77.8011 44.0407C77.801 44.0734 77.8135 44.1049 77.8359 44.1287C77.8583 44.1525 77.889 44.1669 77.9216 44.1688C80.4751 44.229 85.8758 44.3872 87.9171 44.1085C88.0828 44.1085 88.0301 43.8298 87.9171 43.8298C85.0322 43.8298 80.8668 43.8298 77.9593 43.9127C77.9401 43.908 77.9202 43.9079 77.901 43.9122C77.8818 43.9165 77.8638 43.9252 77.8485 43.9376C77.8332 43.95 77.821 43.9657 77.8128 43.9836C77.8045 44.0015 77.8005 44.021 77.8011 44.0407ZM55.9571 32.7421C56.168 32.7421 56.0776 32.4408 55.9044 32.4107C50.7146 32.5613 45.0653 32.6743 40.0035 32.7873C39.9865 32.79 39.9703 32.7961 39.9558 32.8052C39.9413 32.8143 39.9287 32.8263 39.9189 32.8403C39.909 32.8544 39.9021 32.8702 39.8985 32.887C39.895 32.9038 39.8948 32.9211 39.898 32.938C39.9024 32.9643 39.9149 32.9887 39.9338 33.0076C39.9527 33.0265 39.9771 33.039 40.0035 33.0434C43.6868 33.307 51.174 32.9078 55.9571 32.7421ZM58.8571 31.0172C59.0303 31.0172 59.0831 30.7159 58.8571 30.6933C57.1698 30.4899 40.5308 30.7611 39.3708 31.0172C39.2578 31.0172 39.2653 31.2432 39.3708 31.2432C43.6416 31.2356 53.8782 30.9419 58.8571 31.0172ZM26.1137 84.8212V84.8136V84.8212ZM26.4301 84.9492C27.0104 83.8759 27.4557 82.7348 27.7558 81.5521C27.896 81.1457 27.9281 80.7097 27.8489 80.2871C27.7696 79.8645 27.5818 79.4698 27.3038 79.1417C27.5772 78.4538 27.7178 77.7202 27.7181 76.9799C27.5675 75.7522 26.2644 75.8275 25.5639 76.769C22.7392 80.5352 19.6208 86.5612 19.7112 91.1936C19.6585 91.412 19.7714 91.6606 19.9673 91.4798C23.3114 88.1666 25.7851 84.0784 27.1683 79.5786C28.1098 80.9796 26.6561 83.3975 26.1137 84.8136C26.0459 85.0019 26.3322 85.1149 26.4301 84.9492ZM19.9974 90.8848C20.0527 90.0489 20.1685 89.2182 20.3439 88.3991L21.5039 89.2352C21.0143 89.7775 20.5096 90.3424 19.9974 90.8848ZM26.995 78.8329C26.4849 78.4049 25.8724 78.1167 25.2174 77.9968C25.469 77.537 25.7723 77.1074 26.1213 76.7163C26.4602 76.3999 27.108 76.2719 27.3038 76.8067C27.3703 77.4923 27.2642 78.1837 26.995 78.8178V78.8329ZM46.165 40.4628C45.8336 40.5984 43.9053 43.4758 43.5512 43.9805C43.113 43.3981 42.6073 42.8697 42.0448 42.4062C42.0134 42.3916 41.9777 42.3889 41.9445 42.3986C41.9112 42.4083 41.8826 42.4297 41.864 42.4589C41.853 42.488 41.853 42.5202 41.864 42.5493C42.2935 43.2526 42.7987 43.9068 43.3705 44.5002C43.3909 44.5228 43.4159 44.5409 43.4438 44.5533C43.4717 44.5657 43.5019 44.572 43.5324 44.572C43.5629 44.572 43.5931 44.5657 43.621 44.5533C43.6489 44.5409 43.6739 44.5228 43.6944 44.5002V44.4625L46.165 41.088C46.5115 40.5984 46.4136 40.3348 46.165 40.4628ZM91.3594 36.5083C91.5176 36.5083 91.5477 36.207 91.3594 36.1844C86.6597 35.9507 81.9498 36.0186 77.2588 36.3878C77.1006 36.3878 77.1157 36.6665 77.2588 36.659C80.8141 36.6288 87.4802 36.7418 91.3594 36.5083Z" fill="black"/>
<path d="M46.1657 45.0267C46.467 44.9061 45.8644 42.6615 45.7816 42.3075C45.7791 42.2916 45.7735 42.2764 45.7652 42.2628C45.7569 42.2491 45.7459 42.2372 45.733 42.2278C45.72 42.2183 45.7053 42.2115 45.6898 42.2077C45.6742 42.204 45.6581 42.2033 45.6422 42.2058C45.6264 42.2082 45.6112 42.2138 45.5975 42.2222C45.5839 42.2305 45.572 42.2414 45.5625 42.2544C45.5531 42.2673 45.5463 42.282 45.5425 42.2976C45.5387 42.3131 45.5381 42.3293 45.5405 42.3451C45.6309 43.1511 45.7213 43.9646 45.872 44.7555C44.6141 44.8534 43.4767 44.8459 42.2489 44.8986C42.0229 43.9194 41.8271 42.6389 41.4956 41.6672C42.443 41.7469 43.3955 41.7469 44.3429 41.6672C44.9681 41.6672 44.9229 41.2755 44.3881 41.2831C44.0717 41.2831 41.3751 41.2303 41.3751 41.5542C41.0211 41.5542 41.7668 44.7103 41.812 44.9212C41.8198 44.9588 41.8393 44.9929 41.8677 45.0186C41.8962 45.0443 41.932 45.0603 41.9702 45.0643C42.0606 45.456 46.0226 45.3957 46.1657 45.0267ZM91.782 42.3828C91.7753 42.3535 91.7591 42.3273 91.736 42.3082C91.7128 42.2891 91.6839 42.2783 91.6539 42.2773C87.0893 42.1568 82.2083 42.3753 77.5834 42.3677C77.4478 42.3677 77.4403 42.5937 77.5834 42.6088C81.6358 42.8799 87.9028 43.0456 91.6841 42.5485C91.7181 42.538 91.7469 42.5152 91.765 42.4846C91.7831 42.4539 91.7892 42.4176 91.782 42.3828ZM42.0756 39.5807C43.1322 39.6102 44.1896 39.5624 45.2392 39.4376C45.8946 39.6033 44.8928 35.4906 44.7722 35.3023C44.7564 35.2668 44.7295 35.2374 44.6955 35.2184C44.6616 35.1994 44.6225 35.1919 44.5839 35.1969C43.906 35.1969 40.7575 35.1969 40.313 35.2948C39.7707 34.8579 40.5616 38.5714 40.6746 39.0158C40.893 39.7615 41.3751 39.5807 42.0756 39.5807ZM40.4034 35.5509C41.7933 35.7206 43.1973 35.7408 44.5915 35.6112L45.0735 39.0911L41.1265 39.2945C41.1567 39.0384 40.4938 36.048 40.4034 35.5509ZM88.2116 38.0893C88.2516 38.0893 88.2899 38.0734 88.3181 38.0452C88.3464 38.0169 88.3623 37.9786 88.3623 37.9387C88.3623 37.8987 88.3464 37.8604 88.3181 37.8321C88.2899 37.8039 88.2516 37.788 88.2116 37.788C87.2776 37.5997 79.2481 37.8859 77.5834 38.0291C77.4553 38.0291 77.4553 38.2475 77.5834 38.255C78.4873 38.2927 87.3153 38.3153 88.2116 38.0893ZM24.962 61.9821C25.1051 61.9821 26.1672 61.3795 26.4158 62.3587C26.7622 63.6995 28.1181 62.8935 28.3365 61.8691C28.6152 60.6037 27.41 59.6094 25.9864 59.6094C23.094 59.6094 23.7568 62.1177 24.962 61.9821ZM25.9864 59.9032C27.6134 59.9559 28.6152 61.4925 27.6285 62.3964C26.7848 63.1496 26.8752 62.065 26.4685 61.6432C25.655 60.8899 25.0072 61.8013 24.5477 61.4172C23.6062 60.6639 25.4064 59.858 25.9864 59.9032ZM43.6273 47.6329C42.4447 47.6329 42.3995 47.437 42.5502 48.5895C42.5954 48.9134 42.8289 51.2032 43.2206 51.2258C43.3034 51.5874 46.6855 51.4593 47.1148 51.3313C47.6948 51.3313 47.1148 49.5461 47.1148 49.3427C46.6177 46.7215 47.2353 47.535 43.6273 47.6329ZM43.4089 51.0526C43.2206 50.1035 43.0774 48.8456 42.8063 47.9417C44.0396 48.0622 45.2835 48.0166 46.5047 47.8061C46.5813 48.8549 46.7451 49.8954 46.9943 50.917C45.8192 50.9697 44.599 51.03 43.4089 51.0526ZM92.9646 30.572C91.5786 30.4439 71.6177 30.572 69.0868 30.7678C69.0542 30.7734 69.0249 30.7914 69.0052 30.8181C68.9856 30.8448 68.977 30.8781 68.9814 30.9109C68.9867 30.9369 68.9996 30.9607 69.0183 30.9795C69.0371 30.9982 69.0609 31.011 69.0868 31.0164C71.2336 31.1294 91.428 31.0766 92.9646 30.9034C93.0085 30.9034 93.0507 30.8859 93.0817 30.8549C93.1128 30.8238 93.1303 30.7816 93.1303 30.7377C93.1303 30.6937 93.1128 30.6516 93.0817 30.6205C93.0507 30.5894 93.0085 30.572 92.9646 30.572ZM58.9708 36.1083C59.1441 36.0706 59.0838 35.8371 58.9332 35.807L47.4914 36.0932C47.4748 36.095 47.4587 36.1002 47.4442 36.1085C47.4297 36.1169 47.4171 36.1281 47.4072 36.1416C47.3973 36.155 47.3903 36.1704 47.3866 36.1867C47.383 36.203 47.3827 36.2199 47.386 36.2363C47.3903 36.2627 47.4029 36.2871 47.4218 36.306C47.4407 36.3249 47.465 36.3374 47.4914 36.3418C50.3613 36.5527 56.4776 36.613 58.9708 36.1083ZM104.339 57.2819C104.391 57.8543 104.964 63.5639 105.175 63.9782C106.681 66.9158 112.225 66.9912 112.345 62.645C112.556 60.8372 113.287 55.6474 113.001 54.3593C113.084 53.9375 113.521 52.0996 113.603 51.1279C113.603 50.9697 113.905 46.6687 113.302 47.324C112.498 48.3948 111.785 49.5312 111.17 50.7212C111.065 51.1806 110.959 51.6326 110.847 52.0845C110.513 51.9589 110.167 51.8704 109.815 51.8209C109.815 51.5121 109.589 50.0056 109.483 49.403C108.963 48.3936 108.429 47.4898 107.977 46.4427C107.336 44.8685 107.321 44.8383 107.141 46.5708C106.839 48.3356 106.839 50.1389 107.141 51.9037C103.728 52.6118 104.082 54.6229 104.331 57.2819H104.339ZM112.579 48.9962C112.671 49.0854 112.781 49.1537 112.902 49.1966C113.023 49.2394 113.152 49.2559 113.279 49.2448V51.143C112.962 51.1738 112.642 51.1403 112.338 51.0445C112.034 50.9487 111.752 50.7927 111.509 50.5856C111.878 50.0658 112.263 49.531 112.579 48.9962ZM111.494 50.9773C111.993 51.332 112.592 51.5192 113.204 51.5121C112.956 52.9131 112.707 54.3066 112.511 55.7151C112.255 56.6341 111.005 56.9655 110.191 57.0785C110.688 55.09 111.065 52.9508 111.494 50.9547V50.9773ZM109.988 56.5362C109.951 56.7253 109.926 56.9165 109.912 57.1086L108.075 57.1538L107.321 50.0583C107.662 50.1611 108.023 50.1792 108.372 50.1109C108.721 50.0427 109.048 49.8902 109.325 49.6666C109.325 49.6666 109.815 56.4232 109.988 56.5136V56.5362ZM107.412 47.6479C107.527 47.6781 107.647 47.6843 107.765 47.6661C107.883 47.648 107.996 47.6059 108.097 47.5425L109.129 49.3955C108.859 49.597 108.545 49.7332 108.213 49.7933C107.881 49.8534 107.54 49.8358 107.216 49.7419C107.203 49.0313 107.269 48.3215 107.412 47.6253V47.6479ZM112.632 56.3253C112.496 58.2234 112.255 62.2307 111.765 64.0234C110.899 66.3509 107.125 66.3886 105.461 64.0234C105.144 61.4096 104.828 58.7507 104.519 56.1746C105.928 58.2159 111.404 57.9673 112.632 56.3027V56.3253Z" fill="black"/>
<path d="M11.3736 64.6269C12.5201 65.2256 13.7304 65.693 14.9817 66.0204C12.5788 69.3271 19.4559 74.0424 25.7455 71.5266C28.6304 70.3741 31.5153 66.7134 28.6906 64.1749C31.7036 61.742 32.7657 58.2319 32.6376 54.3828C32.4418 48.4473 29.8205 44.0785 23.8172 42.6699C20.8595 41.9778 17.7602 42.2172 14.944 43.3554L13.7765 41.3367C14.1456 41.1408 14.5297 40.9525 14.9063 40.7868C15.9006 40.4479 15.5993 39.7172 15.0118 39.9357C3.47214 44.1463 0.805673 59.3241 11.3736 64.6269ZM15.0721 65.4931C14.8611 64.7399 15.4261 63.9866 15.1624 63.1656C14.5598 61.2147 12.0365 62.3446 11.3962 61.0264C10.6957 59.5877 12.5638 59.3391 12.9404 58.3072C13.007 58.1265 13.024 57.9313 12.9895 57.7419C12.9551 57.5525 12.8705 57.3757 12.7445 57.2301C11.6599 55.8742 9.15158 57.3054 9.86716 54.1418C10.4095 51.754 12.7144 50.6241 14.3866 51.6787C16.0588 52.7332 17.0606 53.4413 19.1772 52.2059C22.7024 50.1345 22.2655 54.4657 21.1884 55.7763C20.6159 56.4844 19.5764 56.4467 18.778 56.748C16.1718 57.7272 16.1868 59.4822 18.2507 59.9116C19.0492 60.0773 20.0736 60.002 20.6988 60.6046C22.3936 62.2542 18.891 65.7793 17.7837 66.3593C17.1887 66.2388 15.3733 65.8848 15.0721 65.4931ZM24.6307 43.3328C29.0673 44.7112 31.4098 47.92 32.0426 52.5072C32.3433 54.4869 32.2692 56.5055 31.8241 58.4578C31.6433 58.7064 29.0974 59.4069 28.2764 58.3524C27.9594 57.9262 27.7477 57.431 27.6587 56.9074C27.5697 56.3837 27.6058 55.8464 27.7642 55.3394C28.2538 54.074 29.9184 52.9592 29.4062 51.6636C28.6982 49.8709 26.6268 52.3189 25.753 51.8143C24.4424 51.061 26.8979 49.6148 24.0959 49.0951C23.0639 48.9068 22.2203 49.3286 21.4595 48.1912C19.7195 45.585 24.2465 43.3252 24.6307 43.3102V43.3328ZM16.0362 46.6696C16.0687 46.721 16.1179 46.7595 16.1756 46.7787C16.2332 46.7979 16.2958 46.7967 16.3526 46.7751C16.4178 46.7483 16.47 46.6971 16.4982 46.6324C16.5263 46.5677 16.5281 46.4946 16.5032 46.4286L15.1323 43.7546C17.9261 42.6343 21.0021 42.4235 23.9226 43.152C20.1564 44.3948 19.712 48.6431 22.4161 49.3738C22.9886 49.5319 25.5496 49.306 25.1052 50.3982C25.015 50.5754 24.9644 50.77 24.957 50.9687C24.9495 51.1674 24.9854 51.3653 25.0621 51.5488C25.1387 51.7322 25.2544 51.8968 25.401 52.0311C25.5476 52.1654 25.7217 52.2662 25.9112 52.3265C26.9657 52.5148 28.0956 50.9254 28.8714 51.5732C30.2273 52.7031 26.687 54.4506 27.2896 56.9664C27.7416 58.8947 28.54 59.5048 30.4984 59.2262C30.9274 59.1892 31.3435 59.0608 31.7187 58.8495C30.0992 64.5214 24.0431 67.1352 18.5068 66.4497C19.6216 65.4253 21.3541 63.3916 21.5198 61.9303C21.7759 59.3391 18.8006 59.8589 17.7084 59.2864C16.2019 58.5332 18.3562 57.2225 19.7346 56.9212C20.1863 56.8469 20.6235 56.702 21.0302 56.4919C23.2899 55.1059 22.6647 49.5319 19.3881 51.5883C16.5861 53.3433 15.7198 51.8519 14.4167 51.1815C12.3303 50.1195 9.46794 51.7917 9.32483 54.9477C9.24197 57.0945 11.0121 56.635 12.044 57.2075C12.229 57.2768 12.3834 57.4094 12.4799 57.5818C12.5764 57.7541 12.6088 57.9551 12.5713 58.149C12.3303 58.9023 11.2381 59.0529 10.9368 59.9643C10.8176 60.3198 10.822 60.7051 10.9491 61.0578C11.0762 61.4105 11.3187 61.71 11.6373 61.9077C12.624 62.4801 14.3715 61.983 14.7858 63.3464C14.9892 64.0092 14.59 64.6871 14.6352 65.3575C12.7134 64.6668 11.0211 63.456 9.74703 61.86C8.47293 60.2641 7.66702 58.3457 7.41913 56.3186C6.74121 51.1966 9.86716 46.2177 14.4619 44.0408C14.9365 44.9146 15.5315 45.8185 16.0362 46.6696ZM9.25703 44.6585C10.3878 43.4859 11.6908 42.4928 13.1212 41.7133C13.541 42.3574 13.9257 43.0238 14.2736 43.7094C11.9096 44.8077 9.94212 46.6088 8.63985 48.8669C7.33757 51.125 6.76396 53.7299 6.99731 56.3262C7.15434 57.8142 7.62075 59.253 8.36663 60.5502C9.11251 61.8474 10.1214 62.9743 11.3284 63.8586C4.12746 59.8589 3.82617 50.4283 9.25703 44.6585ZM89.6504 49.9688C89.0026 49.8257 79.3159 49.7805 77.9451 49.9688C77.9111 49.9688 77.8785 49.9823 77.8545 50.0063C77.8305 50.0303 77.817 50.0629 77.817 50.0969C77.817 50.1308 77.8305 50.1634 77.8545 50.1874C77.8785 50.2114 77.9111 50.2249 77.9451 50.2249C78.4648 50.3002 88.5883 50.4735 89.6504 50.2249C89.6855 50.2171 89.717 50.1976 89.7395 50.1695C89.762 50.1414 89.7743 50.1065 89.7743 50.0705C89.7743 50.0345 89.762 49.9996 89.7395 49.9715C89.717 49.9435 89.6855 49.9239 89.6504 49.9161V49.9688ZM92.8668 32.6443C85.598 32.7271 76.2051 32.4786 69.6519 32.6443C69.4711 32.6443 69.4862 32.9004 69.6519 32.9155C72.4012 33.2167 90.6522 33.1942 92.8668 32.9155C92.8883 32.9136 92.9092 32.9074 92.9282 32.8972C92.9473 32.887 92.964 32.873 92.9774 32.856C92.9908 32.8391 93.0006 32.8196 93.0062 32.7987C93.0118 32.7778 93.013 32.756 93.0099 32.7347C92.9978 32.707 92.9777 32.6836 92.9522 32.6675C92.9267 32.6514 92.8969 32.6433 92.8668 32.6443ZM92.0608 48.3343C87.6543 48.2364 82.1481 48.5075 77.4554 48.387C77.3199 48.387 77.2897 48.5829 77.4554 48.5979C80.3404 48.8842 89.3717 49.1704 92.0909 48.6431C92.234 48.6055 92.2491 48.3343 92.0608 48.3343Z" fill="black"/>
</svg>
