<svg width="152" height="152" viewBox="0 0 152 152" fill="none" xmlns="http://www.w3.org/2000/svg">
  <path fill-rule="evenodd" clip-rule="evenodd" d="M88.4921 141.87C90.1492 140.266 95.6705 134.338 97.4557 132.952C97.5104 132.893 97.5841 132.856 97.6637 132.846C97.7433 132.837 97.8236 132.856 97.8904 132.9C97.9573 132.945 98.0063 133.011 98.0287 133.088C98.0511 133.165 98.0456 133.248 98.0131 133.321C97.1242 134.925 89.3734 142.209 88.9214 142.638C88.6126 143.022 87.2869 144.619 86.9254 144.951C86.9366 145.251 86.8581 145.547 86.6997 145.802C86.5413 146.057 86.3104 146.259 86.0365 146.382C85.0662 146.711 84.1155 147.096 83.1893 147.534C83.0537 147.655 82.8955 147.534 82.9332 147.406C83.3974 146.824 83.7871 146.187 84.0932 145.508C84.1592 145.059 84.3871 144.65 84.7339 144.357C85.0807 144.064 85.5226 143.909 85.9763 143.919C86.029 143.821 88.0251 142.179 88.4921 141.87ZM85.9537 144.039C85.5467 144.063 85.1617 144.232 84.8687 144.515C84.5756 144.798 84.394 145.178 84.3568 145.584C84.187 146.094 83.9323 146.573 83.6036 147C85.5093 146.209 86.157 146.322 86.5713 145.681C86.7024 145.469 86.7847 145.229 86.8124 144.981C86.2851 144.838 85.916 143.949 85.9537 144.039ZM88.3414 142.149C87.7539 142.684 87.1438 143.256 86.2474 144.032C86.3791 144.294 86.5763 144.517 86.8199 144.68L88.7859 142.578C88.6124 142.466 88.4637 142.32 88.349 142.149H88.3414ZM84.9895 133.276C85.8482 132.711 97.5009 125.043 97.6138 125.419C97.7268 125.796 86.1796 134.533 86.0817 134.594C85.5921 135.151 82.3155 138.684 81.8862 138.834C81.3398 138.814 80.8221 138.585 80.44 138.194C79.9162 137.659 79.5287 137.005 79.3101 136.289C79.167 135.776 84.5225 133.471 84.9895 133.276ZM79.6792 136.627C79.8274 137.105 80.0957 137.536 80.4584 137.881C80.8211 138.225 81.266 138.47 81.7506 138.593C81.2083 138.081 80.0633 136.989 79.6792 136.627ZM81.9389 134.887C81.1119 135.282 80.3184 135.743 79.5662 136.266C79.6641 136.59 79.5662 136.266 80.3194 136.891C80.9308 137.371 81.4666 137.939 81.9088 138.578C82.2854 138.3 83.8145 136.778 83.7241 136.861C83.1595 136.169 82.5559 135.51 81.9163 134.887H81.9389ZM85.0197 133.381C83.7768 133.961 82.9482 134.368 82.0067 134.827C82.7539 135.304 83.3598 135.973 83.7617 136.763C84.2137 136.311 85.7503 134.752 85.9763 134.503C85.7578 134.292 85.1854 133.637 84.9971 133.396L85.0197 133.381ZM103.271 124.771C103.655 121.397 104.22 117.201 104.679 117.179C105.139 117.156 104.642 121.397 104.167 124.794C105.674 124.922 107.466 125.751 107.18 127.182C107.194 127.437 107.16 127.692 107.082 127.935C107.835 133.05 107.165 134.104 107.218 134.021C106.779 134.55 106.23 134.976 105.609 135.27C104.989 135.564 104.311 135.719 103.625 135.724C102.935 135.727 102.253 135.584 101.623 135.303C100.993 135.023 100.43 134.611 99.9715 134.097C99.3463 133.155 99.7455 129.178 99.866 128.071C99.7993 127.838 99.7613 127.597 99.753 127.355C99.6622 126.959 99.7135 126.543 99.898 126.181C100.083 125.819 100.388 125.533 100.762 125.374C101.533 124.961 102.397 124.753 103.271 124.771ZM106.939 131.385C106.344 132.605 104.679 132.989 103.338 132.989C103.32 133.35 103.28 133.71 103.218 134.066C103.158 134.353 103.09 134.601 102.796 134.594C102.372 134.508 101.999 134.259 101.757 133.901C101.561 133.607 101.606 133.456 101.855 132.809C101.528 132.723 101.224 132.568 100.964 132.353C100.704 132.139 100.494 131.87 100.348 131.566C100.351 132.239 100.419 132.91 100.551 133.569C100.71 133.869 100.937 134.127 101.214 134.323C102.917 135.709 104.981 135.317 106.705 133.833C106.781 133.276 106.886 132.183 106.939 131.385ZM100.024 128.372C99.9715 129.283 99.7681 133.132 100.28 133.886C100.674 134.344 101.173 134.7 101.734 134.925C101.146 134.638 100.668 134.167 100.371 133.584C100.241 132.778 100.198 131.96 100.243 131.144C100.195 130.915 100.204 130.679 100.268 130.454C100.332 130.23 100.45 130.024 100.612 129.856C101.147 129.238 101.275 129.592 100.785 129.253C100.465 129.037 100.203 128.745 100.024 128.402V128.372ZM102.05 132.816C101.959 133.06 101.891 133.312 101.847 133.569C101.847 133.825 102.525 134.398 102.826 134.368C102.932 134.368 102.962 134.21 103 134.021C103.066 133.68 103.112 133.336 103.135 132.989C102.769 132.982 102.406 132.934 102.05 132.846V132.816ZM106.992 128.191C106.733 128.669 106.337 129.057 105.854 129.306C106.721 129.577 107.293 130.157 107.059 131.038C107.059 131.513 107.059 131.98 107.014 132.402C106.939 133.976 106.886 133.908 106.962 133.795C107.316 132.455 107.135 129.637 106.992 128.221V128.191ZM105.726 129.374C105.022 129.715 104.249 129.892 103.467 129.894C103.468 130.344 103.409 130.792 103.293 131.227C103.324 131.728 103.324 132.232 103.293 132.733C104.237 132.765 105.17 132.528 105.982 132.048C107.18 131.295 107.368 129.931 105.726 129.404V129.374ZM102.615 131.257C102.57 131.362 102.194 132.409 102.126 132.598C102.464 132.68 102.81 132.723 103.158 132.726C103.158 132.357 103.233 131.649 103.225 131.279C103.025 131.324 102.817 131.326 102.615 131.287V131.257ZM101.207 129.509C99.7606 130.504 100.371 132.085 101.96 132.568C102.118 132.168 102.367 131.611 102.548 131.227C102.568 130.777 102.619 130.329 102.698 129.886C102.183 129.847 101.679 129.719 101.207 129.509ZM102.766 129.894L102.698 131.114C102.826 131.114 103.241 131.174 103.195 131.114C103.15 131.054 103.293 130.406 103.346 129.909C103.15 129.924 102.954 129.916 102.766 129.901V129.894ZM106.864 127.897C105.523 129.577 101.47 129.6 100.084 127.897C100.231 128.275 100.472 128.608 100.785 128.866C101.097 129.123 101.471 129.295 101.87 129.366C103.587 129.833 106.171 129.457 106.864 127.905V127.897ZM104.054 125.577C103.828 127.137 103.632 128.402 103.564 128.816C104.702 128.816 106.223 128.402 106.751 127.483C106.585 126.308 105.244 125.698 104.054 125.585V125.577ZM103.18 125.577C102.558 125.608 101.956 125.805 101.437 126.149C100.917 126.492 100.5 126.968 100.228 127.528C100.71 128.282 101.922 128.696 102.856 128.786C102.894 128.372 103.015 127.122 103.18 125.585V125.577ZM103.256 124.915C102.435 124.944 101.634 125.18 100.928 125.6C100.258 126.029 99.8058 126.692 100.175 127.408C100.432 126.814 100.851 126.305 101.384 125.939C101.916 125.573 102.542 125.364 103.188 125.336L103.256 124.915ZM104.167 124.99C104.167 125.118 104.129 125.246 104.107 125.374C105.35 125.487 106.653 126.127 106.856 127.332C107.127 126.647 106.675 126.029 106.043 125.63C105.471 125.284 104.831 125.066 104.167 124.99ZM111.383 128.048C111.029 126.293 108.167 113.217 109.123 112.456C109.463 112.269 109.833 112.141 110.216 112.079C111.27 111.853 117.997 110.95 118.305 111.861C118.614 112.772 116.799 126.655 116.663 127.4C116.663 127.905 116.475 129.314 116.475 129.314C116.279 129.722 115.99 130.078 115.63 130.353C115.27 130.628 114.85 130.813 114.404 130.894C113.959 130.975 113.5 130.949 113.067 130.818C112.633 130.688 112.237 130.456 111.91 130.142C111.659 129.465 111.482 128.763 111.383 128.048ZM117.921 113.533C115.037 113.572 112.159 113.823 109.312 114.286C109.545 117.45 110.916 124.832 111.511 127.98C112.295 128.409 113.189 128.596 114.079 128.517C114.97 128.437 115.816 128.096 116.513 127.536C116.596 126.896 117.861 114.377 117.921 113.533ZM117.243 117.902C117.243 117.902 117.288 117.39 116.656 117.518C116.023 117.646 114.871 118.73 113.454 118.61C112.038 118.489 110.69 117.699 110.268 118.226C109.846 118.753 111.632 120.418 113.944 120.026C116.595 119.582 117.296 118.489 117.243 117.902ZM109.786 112.554C109.673 112.554 109.364 112.674 109.334 112.772C109.27 113.25 109.27 113.734 109.334 114.211L110.088 114.068C109.917 113.58 109.816 113.07 109.786 112.554ZM111.089 112.275C110.705 112.343 110.253 112.426 109.884 112.524C109.996 113.021 110.079 113.524 110.133 114.03C110.419 113.978 111.217 113.842 111.451 113.819C111.428 113.767 111.247 113.141 111.089 112.275ZM112.528 112.087C112.053 112.14 111.602 112.2 111.187 112.26C111.372 112.764 111.483 113.292 111.519 113.827L112.784 113.669C112.739 113.42 112.581 112.637 112.528 112.087ZM113.937 111.951C113.68 111.951 113.138 112.012 112.626 112.072C112.784 112.587 112.863 113.123 112.859 113.661L114.215 113.533C114.193 113.405 114.034 112.727 113.959 111.951H113.937ZM115.443 111.853L114.034 111.944C114.197 112.456 114.283 112.989 114.291 113.526C114.727 113.526 115.21 113.465 115.639 113.45C115.639 113.435 115.466 111.951 115.466 111.853H115.443ZM117.266 111.853C117.239 112.381 117.181 112.907 117.093 113.428H117.929C117.929 113.239 118.057 111.974 117.929 111.921C117.71 111.878 117.488 111.858 117.266 111.861V111.853ZM117.168 111.853H115.549C115.694 112.372 115.75 112.912 115.714 113.45H117.025C117.002 112.914 117.05 112.377 117.168 111.853ZM60.4791 122.226C61.4658 122.226 62.2718 122.587 62.2718 123.047C62.2718 123.506 61.4658 123.868 60.4791 123.868C59.4923 123.868 58.6939 123.498 58.6939 123.047C58.6939 122.595 59.4622 122.226 60.4791 122.226ZM41.4372 117.887C41.4372 118.053 41.1283 118.203 40.7366 118.218C40.345 118.233 39.9834 118.105 39.9834 117.932C39.9985 117.533 41.4221 117.458 41.4372 117.887Z" fill="white"/>
  <path d="M48.5691 136.899C49.0516 136.899 49.4428 136.666 49.4428 136.379C49.4428 136.092 49.0516 135.859 48.5691 135.859C48.0865 135.859 47.6953 136.092 47.6953 136.379C47.6953 136.666 48.0865 136.899 48.5691 136.899Z" fill="white"/>
  <path fill-rule="evenodd" clip-rule="evenodd" d="M86.1867 111.431C86.9399 111.431 87.5877 111.65 87.5877 111.913C87.5877 112.177 86.9625 112.403 86.1867 112.403C85.4108 112.403 84.7932 112.184 84.7932 111.913C84.7932 111.642 85.4184 111.431 86.1867 111.431ZM38.2279 92.2009C38.2279 92.3892 38.1149 93.8128 38.1751 95.8917C38.1751 96.1704 38.2279 97.1195 38.2279 97.1195C38.2279 97.1195 38.3182 97.1723 38.3182 97.1195C38.3182 97.0668 38.3634 96.1704 38.371 95.8917C38.4162 94.1593 38.3182 92.1255 38.3182 92.2009C38.3182 92.1889 38.3135 92.1774 38.305 92.1689C38.2965 92.1604 38.285 92.1557 38.273 92.1557C38.2611 92.1557 38.2496 92.1604 38.2411 92.1689C38.2326 92.1774 38.2279 92.1889 38.2279 92.2009ZM69.6003 9.89426C70.5419 10.1504 72.2065 10.6852 72.8091 11.461C72.8308 11.4895 72.8426 11.5242 72.8429 11.56C72.8432 11.5957 72.8319 11.6306 72.8107 11.6594C72.7895 11.6883 72.7596 11.7094 72.7253 11.7198C72.6911 11.7302 72.6545 11.7293 72.6208 11.7171C69.6079 10.4893 64.8097 12.0561 61.7666 13.3215C60.5614 13.8262 67.7925 5.66858 72.9899 6.94909C73.0254 6.95991 73.0565 6.98186 73.0786 7.0117C73.1007 7.04153 73.1126 7.07767 73.1126 7.1148C73.1126 7.15192 73.1007 7.18807 73.0786 7.2179C73.0565 7.24774 73.0254 7.26968 72.9899 7.28051C71.8086 7.55757 70.6482 7.91751 69.5175 8.35765C70.3837 8.39531 72.3798 8.52336 73.0502 9.11089C73.0767 9.13387 73.096 9.1641 73.1057 9.19787C73.1154 9.23165 73.115 9.26751 73.1046 9.30107C73.0942 9.33463 73.0743 9.36444 73.0472 9.38685C73.0202 9.40926 72.9872 9.4233 72.9522 9.42725C71.8276 9.52497 70.7088 9.68084 69.6003 9.89426ZM72.1011 7.15999C70.6215 7.15458 69.1666 7.53909 67.8829 8.27479C65.5859 9.49343 63.5411 11.137 61.857 13.1181C64.7419 11.8677 68.8471 10.4517 71.9278 11.1597C70.9561 10.6634 69.9226 10.2986 68.8546 10.075C68.8158 10.0668 68.7809 10.0455 68.7559 10.0146C68.7309 9.98377 68.7173 9.94526 68.7173 9.90556C68.7173 9.86585 68.7309 9.82734 68.7559 9.79649C68.7809 9.76564 68.8158 9.74431 68.8546 9.73608C70.0022 9.42685 71.1739 9.21519 72.3572 9.10335C71.202 8.83095 70.0189 8.69444 68.832 8.6966C68.7934 8.69771 68.7554 8.68585 68.7243 8.6629C68.6932 8.63996 68.6706 8.60726 68.6602 8.57C68.6498 8.53274 68.6522 8.49308 68.6669 8.45732C68.6817 8.42157 68.708 8.39178 68.7416 8.37271C69.8125 7.84394 70.9394 7.43715 72.1011 7.15999ZM21.2347 70.1686C20.4856 70.2668 19.7305 70.3121 18.975 70.3042C18.9366 70.3057 18.8989 70.2938 18.8683 70.2706C18.8377 70.2474 18.8161 70.2143 18.8072 70.177C18.7983 70.1396 18.8027 70.1003 18.8196 70.0658C18.8364 70.0313 18.8648 70.0037 18.8997 69.9878C19.8337 69.4831 22.0332 68.986 23.163 68.2026L25.9576 66.3346C25.9632 66.3282 25.9702 66.323 25.978 66.3195C25.9858 66.316 25.9942 66.3142 26.0028 66.3142C26.0113 66.3142 26.0198 66.316 26.0276 66.3195C26.0353 66.323 26.0423 66.3282 26.048 66.3346C26.1308 66.4325 25.9576 66.44 25.016 67.6829C24.391 68.4526 23.8833 69.3105 23.5095 70.2288C23.1056 71.1893 22.7511 72.1698 22.4475 73.1665C22.4475 73.3924 21.9051 73.5582 22.0558 72.3228C22.1181 71.8619 22.2036 71.4043 22.3119 70.952C21.5304 71.5161 20.707 72.0197 19.8488 72.4584C19.8179 72.4762 19.7822 72.484 19.7467 72.4807C19.7112 72.4775 19.6776 72.4634 19.6504 72.4403C19.6232 72.4172 19.6038 72.3864 19.5948 72.3519C19.5858 72.3173 19.5877 72.2809 19.6002 72.2475C19.9855 71.4427 20.5436 70.7329 21.2347 70.1686ZM25.4981 66.8317C21.8072 69.4304 23.4568 68.4888 19.7735 69.9577C20.4783 69.9561 21.179 69.8494 21.8524 69.6413L21.9353 69.5735C22.101 69.4455 22.3947 69.7016 22.0708 69.9125C21.3468 70.4817 20.7076 71.1513 20.1727 71.901C21.0069 71.4742 21.7881 70.9509 22.5002 70.3418C22.5267 70.311 22.5632 70.2905 22.6033 70.2839C22.6434 70.2772 22.6845 70.2849 22.7195 70.3056C22.7545 70.3262 22.7812 70.3585 22.7948 70.3968C22.8084 70.4351 22.8081 70.477 22.794 70.5151C22.6382 71.083 22.5124 71.6588 22.4173 72.24C23.0127 70.2235 24.0672 68.3723 25.4981 66.8317ZM26.0103 63.3141C27.2877 61.2444 29.1125 59.5682 31.283 58.4707C34.2055 57.0923 35.2751 58.5611 33.9494 61.1975C32.8206 63.3035 31.2069 65.1108 29.2417 66.4702C29.4629 67.2431 29.5521 68.0478 29.5053 68.8504C29.3095 69.6036 25.6261 70.8691 25.1215 70.8088C25.0832 70.807 25.0462 70.7949 25.0144 70.7736C24.9825 70.7524 24.957 70.7229 24.9407 70.6883C24.8654 70.5151 25.0386 70.3569 25.2043 70.2288C26.1239 69.5571 27.0877 68.9481 28.0892 68.406L28.0365 67.1556L27.6072 67.3665C27.5792 67.3742 27.5496 67.3741 27.5217 67.3661C27.4938 67.3581 27.4687 67.3426 27.449 67.3213L25.0763 65.0089C25.0652 64.9965 25.059 64.9804 25.059 64.9637C25.059 64.947 25.0652 64.9309 25.0763 64.9185C25.0763 64.9185 25.1516 64.7603 25.3098 64.4816H23.9916C23.7958 64.8884 22.4851 67.5398 22.0633 67.7205C22.033 67.7352 21.9996 67.7424 21.966 67.7415C21.9323 67.7406 21.8994 67.7317 21.8699 67.7155C21.8404 67.6992 21.8152 67.6762 21.7964 67.6482C21.7777 67.6203 21.7659 67.5883 21.762 67.5548C21.6716 66.9899 22.7864 63.3066 23.5246 63.0881C24.3442 63.0128 25.1706 63.0687 25.9726 63.2538C25.9845 63.2586 25.9945 63.267 26.0013 63.2778C26.0081 63.2886 26.0112 63.3013 26.0103 63.3141ZM29.076 66.5229C28.777 66.7223 28.4677 66.9058 28.1495 67.0728L28.3077 68.4964C28.3077 68.6094 28.3077 68.5416 26.8012 69.5359C26.3417 69.8296 25.8747 70.1384 25.5583 70.3719C26.7013 70.0571 27.8035 69.6096 28.8425 69.0387C28.9253 68.986 29.1438 68.8353 29.1739 68.7374C29.2535 67.9985 29.2205 67.2519 29.076 66.5229ZM25.7542 64.0598C25.4604 64.4967 25.2796 64.813 25.2119 64.9411L27.5469 67.1029C27.8181 66.9673 28.1118 66.8016 28.4207 66.6133C27.4478 65.8545 26.5544 64.9989 25.7542 64.0598ZM25.9425 63.4195C25.1655 63.3093 24.3769 63.3093 23.5999 63.4195C23.3363 63.5099 22.8843 64.7076 22.8015 64.926C22.5355 65.6351 22.3215 66.3627 22.1612 67.1029C22.6132 66.4325 23.8485 64.2406 23.7958 64.346C23.806 64.325 23.8221 64.3074 23.8422 64.2953C23.8622 64.2833 23.8854 64.2773 23.9087 64.2782L25.3776 64.3536C25.5282 64.0673 25.709 63.7736 25.9425 63.4195ZM30.0929 59.5102C28.3855 60.6691 26.9344 62.1663 25.8295 63.9091C26.8297 64.6771 27.7439 65.5509 28.5562 66.5154C30.2751 65.3826 31.7502 63.9177 32.8949 62.2068L30.0929 59.5102ZM28.7446 61.4009C28.5996 61.5527 28.4861 61.7316 28.4103 61.9273C28.3345 62.1231 28.298 62.3318 28.3029 62.5416C28.3078 62.7515 28.354 62.9583 28.4388 63.1503C28.5236 63.3423 28.6454 63.5157 28.7973 63.6606C28.9491 63.8055 29.128 63.9191 29.3237 63.9949C29.5195 64.0706 29.7282 64.1071 29.9381 64.1022C30.1479 64.0973 30.3547 64.0511 30.5467 63.9663C30.7387 63.8815 30.9121 63.7597 31.057 63.6079C31.3497 63.3012 31.5085 62.8909 31.4986 62.4671C31.4888 62.0433 31.3109 61.6408 31.0043 61.3481C30.6976 61.0555 30.2873 60.8966 29.8635 60.9065C29.4397 60.9164 29.0372 61.0942 28.7446 61.4009ZM30.8461 61.5214C31.0886 61.7703 31.2243 62.1041 31.2243 62.4516C31.2243 62.7991 31.0886 63.1329 30.8461 63.3819C30.6084 63.6024 30.2954 63.7239 29.9712 63.7215C29.6469 63.7192 29.3358 63.5932 29.1012 63.3692C28.8667 63.1453 28.7265 62.8403 28.7092 62.5165C28.6919 62.1927 28.7989 61.8745 29.0082 61.6268C29.2412 61.3746 29.563 61.2227 29.9059 61.2031C30.2487 61.1834 30.5857 61.2975 30.8461 61.5214ZM30.4318 61.9507C30.5344 62.0571 30.6034 62.1914 30.6302 62.3367C30.657 62.4821 30.6405 62.6321 30.5827 62.7681C30.5249 62.9041 30.4283 63.0201 30.3051 63.1017C30.1818 63.1832 30.0373 63.2267 29.8895 63.2267C29.7417 63.2267 29.5972 63.1832 29.4739 63.1017C29.3506 63.0201 29.2541 62.9041 29.1963 62.7681C29.1384 62.6321 29.1219 62.4821 29.1488 62.3367C29.1756 62.1914 29.2446 62.0571 29.3471 61.9507C29.4174 61.8778 29.5017 61.8198 29.5948 61.7802C29.688 61.7406 29.7882 61.7202 29.8895 61.7202C29.9907 61.7202 30.0909 61.7406 30.1841 61.7802C30.2773 61.8198 30.3615 61.8778 30.4318 61.9507Z" fill="white"/>
  <path fill-rule="evenodd" clip-rule="evenodd" d="M54.2791 10.7912C54.2103 10.7327 54.1562 10.6588 54.1214 10.5755C54.0865 10.4922 54.0719 10.4018 54.0787 10.3117C54.0855 10.2217 54.1135 10.1345 54.1604 10.0573C54.2073 9.98014 54.2718 9.91516 54.3486 9.86769C54.4255 9.82022 54.5124 9.7916 54.6024 9.78417C54.6925 9.77674 54.7829 9.79071 54.8665 9.82494C54.9501 9.85917 55.0244 9.91269 55.0833 9.98113C55.1423 10.0496 55.1842 10.131 55.2056 10.2187C55.211 10.3135 55.194 10.4083 55.1558 10.4952C55.1177 10.5822 55.0595 10.6589 54.9861 10.7191C54.9127 10.7793 54.826 10.8213 54.7333 10.8417C54.6405 10.8621 54.5443 10.8603 54.4524 10.8364C54.4524 10.9117 54.3394 11.7478 54.1134 12.727C55.16 12.731 56.1703 13.1105 56.9607 13.7966C56.9721 13.7756 56.9909 13.7595 57.0134 13.7514C62.8887 12.9228 63.4988 14.8662 61.6082 16.4254C59.484 18.1805 52.961 20.1916 49.3605 19.7171C48.4189 19.6041 46.9576 19.1672 46.9426 18.2784C46.9426 17.1335 50.0083 15.8605 50.1288 15.8002C50.6198 14.5567 51.5686 13.5485 52.7802 12.9831C52.2454 12.4031 51.688 11.5595 51.5599 11.4164C50.9197 11.7628 50.3171 10.9418 50.8067 10.52C50.9146 10.4254 51.0551 10.3768 51.1984 10.3844C51.3178 10.3602 51.4419 10.377 51.5507 10.432C51.6594 10.487 51.7465 10.577 51.7978 10.6875C51.8492 10.798 51.8618 10.9226 51.8337 11.0411C51.8055 11.1597 51.7383 11.2653 51.6428 11.341C51.8962 11.5236 52.122 11.7418 52.3132 11.9888C53.3978 13.2995 52.4789 12.8475 53.8197 12.7421C53.8595 12.0702 54.0149 11.4102 54.2791 10.7912ZM50.0007 16.0111C49.3228 16.3425 47.1384 17.5176 47.1685 18.2708C47.1685 18.5194 47.387 18.768 47.7862 18.9864C50.5883 20.4929 58.9266 18.1277 61.3445 16.1618C62.723 15.0545 62.5798 13.9924 59.9586 13.8041C58.9534 13.7586 57.9462 13.7888 56.9456 13.8945C56.7573 14.3314 54.942 17.7662 50.0007 16.0111ZM49.2475 17.8038C49.2147 17.8735 49.1969 17.9493 49.1953 18.0263C49.1937 18.1033 49.2082 18.1798 49.2381 18.2508C49.2679 18.3219 49.3123 18.3858 49.3684 18.4386C49.4245 18.4913 49.4911 18.5317 49.5638 18.5571C49.6361 18.5751 49.7111 18.5786 49.7847 18.5675C49.8583 18.5564 49.929 18.5309 49.9927 18.4924C50.0564 18.4539 50.1118 18.4032 50.1559 18.3432C50.1999 18.2832 50.2317 18.2151 50.2493 18.1428C50.2942 18.0099 50.2846 17.8647 50.2224 17.739C50.1603 17.6132 50.0507 17.5174 49.9179 17.4724C49.785 17.4275 49.6398 17.4371 49.514 17.4993C49.3883 17.5614 49.2924 17.671 49.2475 17.8038ZM49.8651 17.5929C50.1966 17.7436 49.9706 18.3462 49.6542 18.2558C49.3379 18.1654 49.5036 17.5251 49.8651 17.5929ZM55.0625 17.1636C55.0092 17.1239 54.9477 17.0967 54.8826 17.0839C54.8174 17.0711 54.7501 17.0731 54.6858 17.0897C54.6215 17.1063 54.5617 17.1372 54.5109 17.1799C54.4601 17.2227 54.4195 17.2763 54.3921 17.3368C54.3343 17.4719 54.3285 17.6235 54.3758 17.7625C54.4231 17.9016 54.5201 18.0183 54.6482 18.0901C54.7094 18.1279 54.7783 18.1517 54.8498 18.1594C54.9214 18.1672 54.9938 18.1589 55.0617 18.135C55.1296 18.1112 55.1913 18.0725 55.2422 18.0217C55.2932 17.9709 55.3322 17.9093 55.3563 17.8415C55.3985 17.7121 55.392 17.5718 55.3378 17.4469C55.2837 17.322 55.1858 17.2212 55.0625 17.1636ZM55.0022 17.269C55.3035 17.495 55.1077 18.0223 54.7913 17.8415C54.475 17.6607 54.6407 17.1184 55.0022 17.2766V17.269ZM59.0321 15.1148C58.9883 15.0738 58.9358 15.0432 58.8786 15.0253C58.8214 15.0074 58.7608 15.0026 58.7015 15.0112C58.6421 15.0199 58.5855 15.0419 58.5358 15.0754C58.4861 15.109 58.4446 15.1533 58.4144 15.2052C58.3562 15.3257 58.3439 15.4634 58.38 15.5924C58.416 15.7214 58.4979 15.8328 58.6103 15.9057C58.6604 15.9466 58.7191 15.9758 58.782 15.9913C58.8449 16.0067 58.9104 16.008 58.9738 15.9951C59.0373 15.9821 59.097 15.9552 59.1488 15.9163C59.2006 15.8773 59.243 15.8274 59.2731 15.7701C59.3009 15.7113 59.3167 15.6476 59.3196 15.5827C59.3224 15.5178 59.3124 15.4529 59.2899 15.3919C59.2675 15.3309 59.2332 15.275 59.1889 15.2274C59.1446 15.1798 59.0913 15.1415 59.0321 15.1148ZM58.9718 15.2127C59.1978 15.4236 59.0396 15.8454 58.776 15.6646C58.5123 15.4839 58.663 15.062 58.9718 15.2127ZM51.1984 10.4974C51.2958 10.501 51.3884 10.5408 51.4581 10.6091C51.5278 10.6773 51.5694 10.7691 51.575 10.8665C51.5711 10.9537 51.5337 11.0361 51.4705 11.0965C51.4074 11.1568 51.3234 11.1905 51.236 11.1904C51.1905 11.1929 51.145 11.1863 51.102 11.1712C51.059 11.1561 51.0194 11.1326 50.9855 11.1022C50.917 11.0408 50.8757 10.9546 50.8707 10.8627C50.8657 10.7708 50.8974 10.6807 50.9589 10.6122C51.0203 10.5437 51.1065 10.5024 51.1984 10.4974ZM54.5352 9.85715C54.6327 9.86074 54.7253 9.90056 54.795 9.96882C54.8646 10.0371 54.9063 10.1289 54.9119 10.2262C54.908 10.3135 54.8705 10.3959 54.8074 10.4562C54.7442 10.5166 54.6602 10.5502 54.5729 10.5501C54.5243 10.5596 54.4743 10.5585 54.4261 10.547C54.378 10.5354 54.3329 10.5137 54.2938 10.4833C54.2548 10.4529 54.2227 10.4144 54.1998 10.3706C54.1768 10.3267 54.1635 10.2784 54.1608 10.229C54.1581 10.1796 54.166 10.1301 54.184 10.084C54.202 10.0379 54.2297 9.9962 54.2652 9.96168C54.3006 9.92715 54.3431 9.90063 54.3897 9.8839C54.4363 9.86717 54.4859 9.86062 54.5352 9.86468V9.85715ZM91.7077 47.2555C92.0611 46.6006 92.6407 46.0966 93.3384 45.8375C94.0361 45.5785 94.8042 45.582 95.4995 45.8476C96.1947 46.1132 96.7696 46.6226 97.1169 47.2808C97.4642 47.939 97.5603 48.7011 97.3871 49.4249C98.495 49.964 99.5536 50.5991 100.551 51.323C100.988 51.7147 100.927 52.0763 100.151 52.0236C98.8043 51.9034 97.4722 51.6511 96.1744 51.2703C95.7592 51.5736 95.2743 51.7676 94.7645 51.8344C94.2547 51.9013 93.7362 51.8388 93.2568 51.6527C92.7775 51.4667 92.3526 51.1631 92.0214 50.7698C91.6901 50.3765 91.4631 49.9063 91.3612 49.4023C90.6079 49.0407 87.9942 47.6924 87.836 46.9316C87.7833 46.653 88.0544 46.5249 88.3407 46.4948C89.498 46.5556 90.6366 46.8129 91.7077 47.2555ZM97.3268 49.5831C97.1798 50.0949 96.9021 50.5595 96.5209 50.9314C97.801 51.3003 99.112 51.5525 100.438 51.6846C100.008 51.1272 97.9445 49.9371 97.3268 49.5831ZM91.6323 49.5153C91.7545 49.9391 91.9728 50.329 92.2702 50.6548C92.5675 50.9806 92.936 51.2335 93.3469 51.3938C93.7579 51.5541 94.2002 51.6175 94.6396 51.5791C95.079 51.5407 95.5037 51.4015 95.8806 51.1724C94.4254 50.726 93.0054 50.1721 91.6323 49.5153ZM96.2874 50.8636C96.8167 50.3919 97.1539 49.7419 97.2345 49.0375C97.315 48.3331 97.1334 47.6236 96.7242 47.0446C96.5096 46.7284 96.2328 46.4593 95.9106 46.2538C95.5884 46.0482 95.2276 45.9105 94.8504 45.8492C94.4732 45.7879 94.0874 45.8041 93.7167 45.897C93.346 45.9899 92.9981 46.1574 92.6944 46.3893C92.2852 46.6905 91.9626 47.0941 91.759 47.5595C91.5553 48.025 91.4779 48.5358 91.5344 49.0407C93.067 49.7754 94.6565 50.3849 96.2874 50.8636ZM91.6323 47.4062C91.0749 47.2254 88.6194 46.5174 88.1749 46.8639C88.3482 47.4062 90.7962 48.6792 91.3612 48.9127C91.3183 48.3954 91.4118 47.876 91.6323 47.4062ZM37.0224 93.8284C37.9318 94.4263 38.8892 94.9478 39.8847 95.3876C39.8944 95.3906 39.9048 95.3903 39.9142 95.3867C39.9237 95.3831 39.9317 95.3764 39.9369 95.3677C39.9421 95.359 39.9443 95.3489 39.943 95.3388C39.9417 95.3288 39.9371 95.3194 39.9299 95.3123C39.0194 94.7162 38.0622 94.1948 37.0676 93.7531C37.0579 93.7501 37.0475 93.7504 37.038 93.754C37.0286 93.7576 37.0206 93.7643 37.0154 93.773C37.0101 93.7817 37.008 93.7919 37.0093 93.8019C37.0106 93.812 37.0152 93.8213 37.0224 93.8284ZM20.6921 27.6939C20.6921 25.871 20.7976 24.1537 20.7976 24.229C20.8025 24.2139 20.8121 24.2008 20.825 24.1915C20.8378 24.1822 20.8533 24.1772 20.8691 24.1772C20.885 24.1772 20.9005 24.1822 20.9133 24.1915C20.9262 24.2008 20.9357 24.2139 20.9407 24.229C20.9407 24.7788 21.0386 25.2685 21.0462 27.8144C21.6028 27.4521 22.1786 27.1202 22.7711 26.8201C22.779 26.8152 22.7878 26.8118 22.797 26.8103C22.8062 26.8088 22.8156 26.809 22.8247 26.8111C22.8338 26.8132 22.8424 26.8171 22.85 26.8225C22.8576 26.8279 22.864 26.8348 22.869 26.8427C22.8739 26.8506 22.8773 26.8594 22.8788 26.8687C22.8804 26.8779 22.8801 26.8873 22.878 26.8964C22.8759 26.9055 22.872 26.914 22.8666 26.9216C22.8612 26.9292 22.8543 26.9357 22.8464 26.9406C22.3642 27.3362 21.8613 27.7058 21.3399 28.0479C22.4246 28.643 22.643 28.8011 23.1628 29.1175C23.6825 29.4339 23.69 29.4339 23.6524 29.5092C23.6147 29.5845 23.577 29.5544 23.0573 29.3134C22.5376 29.0723 22.1835 28.9217 21.0462 28.2965C21.0462 31.1814 20.9332 32.4996 20.9332 32.4242C20.9282 32.4393 20.9186 32.4524 20.9058 32.4617C20.8929 32.471 20.8775 32.476 20.8616 32.476C20.8457 32.476 20.8303 32.471 20.8174 32.4617C20.8046 32.4524 20.795 32.4393 20.79 32.4242C20.79 31.8819 20.6846 31.4074 20.6846 28.4697C20.0968 28.8591 19.4883 29.2161 18.8618 29.5393C18.8538 29.5443 18.845 29.5476 18.8358 29.5492C18.8266 29.5507 18.8172 29.5504 18.8081 29.5483C18.799 29.5462 18.7904 29.5423 18.7828 29.5369C18.7752 29.5315 18.7688 29.5246 18.7638 29.5167C18.7589 29.5088 18.7555 29.5 18.754 29.4908C18.7525 29.4816 18.7528 29.4722 18.7549 29.4631C18.7569 29.454 18.7608 29.4454 18.7662 29.4378C18.7717 29.4302 18.7785 29.4237 18.7864 29.4188C19.3795 28.9331 20.0008 28.4829 20.6469 28.0705C20.0368 27.7315 19.841 27.611 19.3589 27.3173C18.8768 27.0235 18.7186 26.9331 18.7563 26.8503C18.7705 26.8398 18.7877 26.8342 18.8053 26.8342C18.8229 26.8342 18.84 26.8398 18.8542 26.8503C19.8033 27.2043 20.3682 27.5282 20.6921 27.6939Z" fill="white"/>
  <path fill-rule="evenodd" clip-rule="evenodd" d="M37.0668 95.3877C37.9107 94.9454 38.7102 94.4232 39.4546 93.8285C39.5073 93.8285 39.4546 93.7231 39.4094 93.7532C38.5662 94.1966 37.7667 94.7187 37.0217 95.3124C36.9765 95.3425 37.0216 95.4179 37.0668 95.3877ZM60.4173 49.9673C60.4173 52.0839 60.4926 52.4229 60.4926 52.8071C60.4894 52.8151 60.4882 52.8237 60.4892 52.8323C60.4901 52.8408 60.4931 52.8491 60.4979 52.8562C60.5028 52.8633 60.5093 52.8692 60.5169 52.8732C60.5245 52.8772 60.533 52.8794 60.5416 52.8794C60.5502 52.8794 60.5587 52.8772 60.5663 52.8732C60.5739 52.8692 60.5804 52.8633 60.5852 52.8562C60.5901 52.8491 60.5931 52.8408 60.594 52.8323C60.5949 52.8237 60.5937 52.8151 60.5905 52.8071C60.5905 52.8824 60.6734 51.6621 60.6734 49.8393C61.2573 50.1695 61.8582 50.4687 62.4737 50.7356C62.5339 50.7356 62.5866 50.6754 62.5264 50.6453C61.9962 50.2909 61.4481 49.9641 60.8843 49.666C61.2574 49.4357 61.617 49.1842 61.9614 48.9128C61.9717 48.905 61.9787 48.8937 61.9812 48.8811C61.9837 48.8685 61.9815 48.8554 61.975 48.8443C61.9685 48.8332 61.9582 48.8249 61.946 48.8208C61.9338 48.8168 61.9205 48.8174 61.9087 48.8224C61.9087 48.8224 61.2911 49.1388 60.6734 49.538C60.6734 47.6624 60.5981 47.2783 60.5981 46.9619C60.5981 46.9479 60.5925 46.9345 60.5826 46.9246C60.5727 46.9147 60.5593 46.9092 60.5454 46.9092C60.5314 46.9092 60.518 46.9147 60.5081 46.9246C60.4982 46.9345 60.4926 46.9479 60.4926 46.9619C60.4926 46.8866 60.4248 48.1746 60.4173 49.4551C60.1989 49.3421 59.762 49.1086 59.0991 48.8224C59.0389 48.8224 58.9861 48.8827 59.0464 48.9128C59.1067 48.9429 59.6038 49.297 60.3872 49.7263C59.9233 50.0072 59.4757 50.314 59.0464 50.6453C58.9861 50.6453 59.0464 50.7733 59.0991 50.7356C59.0238 50.7733 59.5887 50.4946 60.4173 49.9673ZM79.3538 103.191C78.5327 102.852 69.8705 102.318 69.7952 102.31C69.5616 102.31 67.8744 102.649 67.7614 102.679C67.6484 102.709 67.7614 102.679 67.7614 102.717C68.4198 103.018 69.0996 103.269 69.7952 103.47C70.5484 103.628 72.0549 103.643 79.1956 104.412C79.3312 104.412 79.6174 103.945 79.4517 103.267C79.4442 103.244 79.3914 103.214 79.3538 103.191ZM69.7575 103.395L68.6201 102.995C68.664 102.936 68.6925 102.866 68.7031 102.792C68.7136 102.719 68.7058 102.644 68.6804 102.574C69.0486 102.499 69.4208 102.447 69.7952 102.415C69.9759 102.596 69.4939 102.664 69.8554 102.898C69.9006 102.898 69.9081 102.898 69.8554 102.95C69.8363 102.96 69.8193 102.973 69.8054 102.989C69.7916 103.006 69.7812 103.025 69.7748 103.045C69.7685 103.065 69.7663 103.087 69.7685 103.108C69.7707 103.129 69.7772 103.15 69.7876 103.169C69.8479 103.274 69.9157 103.319 69.7575 103.395ZM69.8479 103.395C70.0588 103.282 69.7726 103.108 69.9157 103.018C70.232 102.8 68.7256 102.86 78.6759 103.771C78.655 103.926 78.6897 104.084 78.7738 104.216L69.8479 103.395ZM78.6834 103.711C78.3444 103.673 70.0061 102.882 69.9533 102.837C69.9006 102.792 69.765 102.754 69.8328 102.664C69.9006 102.574 69.9383 102.491 69.8328 102.4C69.9081 102.4 77.2974 102.988 78.8717 103.252C78.7618 103.387 78.6961 103.552 78.6834 103.726V103.711ZM79.1655 104.231C79.1127 104.178 79.1052 104.193 79.0525 104.042C78.9998 103.892 79.0525 103.38 79.2935 103.38C79.3305 103.525 79.3382 103.677 79.3162 103.826C79.2942 103.974 79.243 104.117 79.1655 104.246V104.231ZM84.4005 82.0027C84.3921 81.9749 84.3777 81.9494 84.3583 81.9279C84.3388 81.9065 84.3149 81.8896 84.2881 81.8785C84.2614 81.8674 84.2325 81.8623 84.2036 81.8637C84.1747 81.8651 84.1464 81.8729 84.1209 81.8865C84.0953 81.9001 84.0731 81.9193 84.0558 81.9425C84.0385 81.9658 84.0266 81.9925 84.021 82.0209C84.0153 82.0493 84.016 82.0786 84.023 82.1067C84.03 82.1348 84.0432 82.161 84.0615 82.1834C84.1368 82.304 84.2122 82.4245 84.295 82.545C84.3065 82.571 84.3234 82.5942 84.3447 82.613C84.366 82.6318 84.3912 82.6457 84.4184 82.6538C84.4456 82.6619 84.4743 82.664 84.5024 82.66C84.5305 82.6559 84.5574 82.6457 84.5812 82.6302C84.605 82.6147 84.6251 82.5943 84.6402 82.5702C84.6553 82.5461 84.665 82.5191 84.6686 82.4909C84.6722 82.4627 84.6696 82.4341 84.661 82.407C84.6524 82.38 84.6381 82.3551 84.6189 82.3341C84.5813 82.2286 84.4683 82.1156 84.4005 82.0027ZM75.0151 66.0038C75.0603 65.6498 75.4746 63.8496 75.3164 63.8119C75.3075 63.8084 75.298 63.8068 75.2885 63.8072C75.279 63.8076 75.2696 63.81 75.2611 63.8143C75.2526 63.8185 75.245 63.8246 75.239 63.8319C75.2329 63.8393 75.2285 63.8479 75.226 63.8571C75.0123 64.3829 74.8484 64.9277 74.7364 65.4841C74.6936 65.68 74.6659 65.879 74.6536 66.0792C74.6546 66.1099 74.6634 66.1398 74.6792 66.1662C74.695 66.1926 74.7173 66.2144 74.7439 66.2298C74.9327 66.3262 75.1365 66.3898 75.3465 66.4181C75.5122 66.4181 76.0998 66.4633 76.032 66.3051C75.9642 66.1469 75.8738 66.4332 75.0151 66.0038ZM78.3972 64.9116V64.5199C78.3972 64.2488 78.0205 64.2111 78.013 64.5199V64.9493C78.0109 64.9778 78.0151 65.0063 78.0252 65.033C78.0353 65.0597 78.0511 65.0838 78.0716 65.1038C78.092 65.1237 78.1165 65.1389 78.1435 65.1483C78.1704 65.1578 78.199 65.1613 78.2274 65.1585C78.2558 65.1557 78.2833 65.1467 78.3079 65.1322C78.3324 65.1177 78.3535 65.098 78.3697 65.0745C78.3859 65.051 78.3967 65.0242 78.4014 64.9961C78.4062 64.968 78.4047 64.9391 78.3972 64.9116ZM78.8943 66.9906C78.6533 67.8945 78.3294 68.03 77.9377 68.0752C77.8575 68.0817 77.7769 68.0817 77.6966 68.0752C77.6787 68.0692 77.659 68.0706 77.6421 68.0791C77.6251 68.0876 77.6122 68.1025 77.6063 68.1204C77.6003 68.1384 77.6017 68.158 77.6101 68.175C77.6186 68.1919 77.6335 68.2048 77.6515 68.2108C78.3068 68.5874 79.2031 68.128 79.0374 66.9906C79.0325 66.9755 79.0229 66.9624 79.01 66.9531C78.9972 66.9438 78.9817 66.9388 78.9659 66.9388C78.95 66.9388 78.9345 66.9438 78.9217 66.9531C78.9088 66.9624 78.8992 66.9755 78.8943 66.9906ZM81.7265 76.4061C81.722 76.3814 81.7128 76.3577 81.6992 76.3366C81.6856 76.3155 81.668 76.2972 81.6474 76.2829C81.6267 76.2685 81.6035 76.2584 81.5789 76.253C81.5544 76.2477 81.529 76.2472 81.5043 76.2517C81.4795 76.2561 81.4559 76.2654 81.4348 76.279C81.4137 76.2925 81.3954 76.3102 81.3811 76.3308C81.3667 76.3514 81.3566 76.3747 81.3512 76.3992C81.3459 76.4238 81.3454 76.4491 81.3499 76.4739C81.3821 76.6142 81.4223 76.7525 81.4704 76.8882C81.4726 76.9171 81.4813 76.9452 81.4957 76.9703C81.5102 76.9955 81.53 77.0172 81.5539 77.0337C81.5777 77.0503 81.6049 77.0613 81.6336 77.0661C81.6622 77.0708 81.6915 77.0692 81.7194 77.0612C81.7473 77.0532 81.7731 77.0391 81.7949 77.02C81.8167 77.0008 81.834 76.9771 81.8455 76.9504C81.857 76.9238 81.8624 76.8949 81.8613 76.8659C81.8603 76.8369 81.8528 76.8085 81.8395 76.7827C81.7943 76.6546 81.7566 76.5266 81.7265 76.4061ZM74.3146 63.7893C74.3202 63.7609 74.3195 63.7316 74.3125 63.7035C74.3055 63.6754 74.2923 63.6492 74.2739 63.6268C74.2555 63.6045 74.2324 63.5864 74.2063 63.574C74.1801 63.5617 74.1515 63.5552 74.1225 63.5552C74.0936 63.5552 74.065 63.5617 74.0388 63.574C74.0126 63.5864 73.9895 63.6045 73.9711 63.6268C73.9528 63.6492 73.9396 63.6754 73.9325 63.7035C73.9255 63.7316 73.9248 63.7609 73.9304 63.7893V64.2186C73.9248 64.2471 73.9255 64.2764 73.9325 64.3044C73.9396 64.3325 73.9528 64.3587 73.9711 64.3811C73.9895 64.4035 74.0126 64.4215 74.0388 64.4339C74.065 64.4463 74.0936 64.4527 74.1225 64.4527C74.1515 64.4527 74.1801 64.4463 74.2063 64.4339C74.2324 64.4215 74.2555 64.4035 74.2739 64.3811C74.2923 64.3587 74.3055 64.3325 74.3125 64.3044C74.3195 64.2764 74.3202 64.2471 74.3146 64.2186C74.3056 64.0757 74.3056 63.9323 74.3146 63.7893Z" fill="white"/>
  <path fill-rule="evenodd" clip-rule="evenodd" d="M137.618 94.86C136.782 94.4533 134.793 94.7923 133.852 94.9881C133.506 94.6018 133.069 94.3073 132.582 94.1311C132.094 93.955 131.57 93.9026 131.057 93.9788C130.214 94.1897 130.01 95.2291 130.048 96.1029C129.505 96.005 128.918 95.9372 128.376 95.8845C128.421 95.7187 128.564 95.4852 128.519 95.3195C128.494 95.2604 128.457 95.2072 128.41 95.1636C128.364 95.12 128.308 95.0871 128.247 95.0671C128.186 95.0471 128.122 95.0404 128.058 95.0476C127.995 95.0547 127.933 95.0756 127.878 95.1086C127.728 95.2285 127.59 95.3621 127.464 95.5078C127.464 95.2442 127.683 94.8224 127.419 94.7546C127.155 94.6868 126.334 95.425 126.101 95.6886C124.371 95.4983 122.626 95.4983 120.896 95.6886C118.631 95.8511 116.497 96.8089 114.87 98.3927C124.029 87.8474 128.052 80.6012 127.946 71.5698C127.841 62.5385 117.107 58.23 112.693 58.117C108.407 58.0115 103.986 60.3767 103.76 60.3767C99.8881 61.1299 89.7344 60.0076 87.6027 60.8964C87.6289 59.942 87.4577 58.9924 87.1 58.1072C86.7423 57.222 86.2057 56.4201 85.5238 55.7518C84.3035 54.4186 82.3526 53.9214 80.3716 54.0043C77.547 54.1323 74.7449 55.3149 73.3439 57.7705C72.8794 58.5656 72.6061 59.4578 72.5454 60.3767C72.5454 60.6102 72.0634 64.4517 73.2987 67.3592C73.5773 68.0954 74.023 68.7569 74.6007 69.2915C75.1785 69.8261 75.8724 70.2192 76.628 70.44C75.4103 72.0543 74.2933 73.7423 73.2836 75.4942C73.0501 75.9838 73.2234 76.2475 73.5623 76.2475C73.9013 76.2475 74.3532 76.1571 74.6696 76.1721C74.1724 77.5355 72.907 81.0908 72.5982 82.4994C71.0496 83.5423 69.655 84.7974 68.4553 86.2279C66.1956 88.8191 65.1411 91.6286 62.5801 93.1276L61.8268 93.5494C62.8512 90.4385 64.7871 84.2619 64.0865 84.2544C63.386 84.2469 61.6837 90.1899 60.599 94.2198C59.439 94.86 58.8515 95.2668 58.4448 96.5322C58.3122 96.8522 58.2439 97.1952 58.2439 97.5416C58.2439 97.888 58.3122 98.2309 58.4448 98.5509C58.4931 98.6536 58.5669 98.7421 58.6592 98.8081C58.7516 98.874 58.8593 98.9151 58.972 98.9275C59.0624 98.9275 59.0624 98.8447 58.8139 99.3946C58.6954 99.4286 58.5834 99.482 58.4824 99.5527L54.8593 97.3457C54.7765 97.3457 55.816 97.2026 33.7686 100.072C33.3543 99.7636 32.9174 99.4398 32.4655 99.0857C21.6339 90.657 57.0061 81.6105 59.8383 70.0935C62.3767 59.7816 47.7864 57.7027 51.0253 48.016C54.2643 38.3293 75.4454 41.041 95.3837 39.881C115.322 38.721 123.254 18.5944 108.739 8.10932C94.2237 -2.37579 79.3095 12.5158 75.7844 16.3196C72.2592 20.1235 68.1917 25.1024 56.7726 24.6053C45.3534 24.1082 30.4091 26.044 24.9331 42.6002C22.2967 50.5243 24.6619 56.0832 28.1796 60.4897C29.3577 59.291 30.8148 58.4033 32.4203 57.9061C33.3543 57.6801 34.2808 57.8006 34.5444 58.7271C35.0416 60.4294 32.9777 63.0733 31.78 64.3915C34.793 67.299 37.6855 69.7545 38.8228 72.293C40.721 76.5563 31.6219 79.7124 27.7803 82.2056C23.9388 84.6988 18.0711 92.412 21.6716 99.8992C21.942 100.473 22.2438 101.031 22.5754 101.571C14.9376 102.558 14.6739 102.558 14.5986 102.603C14.5233 102.649 14.5459 102.784 14.5986 102.859H14.5459C15.2238 103.613 35.1772 132.13 47.4249 146.623L47.6433 146.668C50.2947 145.395 98.4117 122.037 95.8507 120.598C95.8507 120.598 60.6744 100.961 59.8383 100.464C59.969 100.24 60.0823 100.005 60.1772 99.7636C60.2189 99.7605 60.2581 99.743 60.2883 99.7141C60.3185 99.6853 60.3378 99.6469 60.3429 99.6055V99.1987C60.8099 99.3569 61.5406 98.9049 61.9172 98.566C62.6704 97.873 63.8003 95.9447 64.6364 95.6886C66.3038 95.2733 67.9481 94.7705 69.5626 94.1821C76.274 91.6663 79.061 88.8492 81.9835 84.2996C82.4665 83.5888 82.8778 82.8319 83.2113 82.0399C84.9167 83.8819 86.9902 85.3447 89.2975 86.3334C83.2113 93.3611 84.1679 97.8203 86.3674 100.253C88.3786 102.475 91.6401 101.692 92.1749 101.526C92.1749 104.871 93.3047 112.298 93.6814 113.043C93.8772 113.473 93.2219 113.797 93.0863 114.648C93.015 115.08 93.071 115.524 93.2476 115.925C93.4241 116.327 93.7135 116.668 94.0806 116.907C94.9167 117.435 96.3403 117.465 95.7829 116.629C95.597 116.39 95.3875 116.17 95.1577 115.973C95.3762 116.041 95.6172 116.132 95.911 116.237C98.6603 117.314 99.0218 117.804 99.5265 117.661C99.5942 117.645 99.6577 117.614 99.7123 117.572C99.767 117.529 99.8116 117.474 99.8429 117.412C99.903 117.454 99.9712 117.482 100.043 117.496C100.115 117.509 100.189 117.507 100.26 117.49C100.331 117.473 100.398 117.441 100.456 117.397C100.514 117.352 100.561 117.296 100.596 117.231C100.622 117.183 100.635 117.128 100.635 117.073C100.635 117.018 100.622 116.964 100.596 116.915C100.692 116.754 100.724 116.563 100.687 116.38C100.687 115.702 98.0954 113.488 97.5681 113.051C97.6434 112.298 98.0426 110.625 99.0369 106.181C104.174 111.974 121.446 103.922 122.387 103.515C122.546 103.68 128.925 100.961 129.664 100.57C129.588 100.57 137.753 96.8787 138.062 95.5229C138.062 95.2065 137.859 95.0032 137.618 94.86ZM108.483 26.6616C108.607 26.6656 108.725 26.7183 108.811 26.8085C108.897 26.8987 108.944 27.0191 108.942 27.1437C108.944 27.2057 108.934 27.2674 108.912 27.3253C108.889 27.3832 108.856 27.4362 108.813 27.481C108.771 27.5259 108.719 27.5618 108.662 27.5867C108.606 27.6115 108.545 27.6248 108.483 27.6258C108.42 27.6248 108.359 27.6116 108.302 27.5868C108.244 27.562 108.193 27.5263 108.149 27.4815C108.106 27.4367 108.072 27.3839 108.049 27.3259C108.026 27.2679 108.015 27.206 108.016 27.1437C108.015 27.0814 108.026 27.0195 108.049 26.9615C108.072 26.9036 108.106 26.8507 108.149 26.8059C108.193 26.7612 108.244 26.7254 108.302 26.7006C108.359 26.6759 108.42 26.6626 108.483 26.6616ZM104.227 13.5101C104.288 13.51 104.348 13.5222 104.404 13.5457C104.461 13.5693 104.512 13.6038 104.554 13.6473C104.597 13.6908 104.631 13.7423 104.653 13.7989C104.676 13.8555 104.687 13.9161 104.686 13.9771C104.695 14.0418 104.689 14.1076 104.67 14.1701C104.651 14.2325 104.619 14.2902 104.576 14.3392C104.532 14.3882 104.479 14.4275 104.42 14.4544C104.36 14.4813 104.296 14.4953 104.231 14.4953C104.165 14.4953 104.101 14.4813 104.041 14.4544C103.982 14.4275 103.929 14.3882 103.885 14.3392C103.842 14.2902 103.81 14.2325 103.791 14.1701C103.772 14.1076 103.766 14.0418 103.775 13.9771C103.774 13.9167 103.785 13.8568 103.807 13.8006C103.829 13.7445 103.862 13.6933 103.904 13.6499C103.946 13.6066 103.996 13.5719 104.051 13.5479C104.107 13.5239 104.166 13.511 104.227 13.5101ZM90.0658 34.292C90.012 34.2822 89.9633 34.2538 89.9283 34.2118C89.8933 34.1699 89.8741 34.1169 89.8741 34.0622C89.8741 34.0075 89.8933 33.9546 89.9283 33.9126C89.9633 33.8706 90.012 33.8423 90.0658 33.8325C90.1287 33.8325 90.1891 33.8575 90.2336 33.902C90.2781 33.9465 90.3031 34.0068 90.3031 34.0698C90.3031 34.1327 90.2781 34.193 90.2336 34.2375C90.1891 34.282 90.1287 34.307 90.0658 34.307V34.292ZM88.017 13.6004C88.017 13.2991 88.7702 13.1485 89.1017 13.1033C89.6491 13.031 90.2038 13.031 90.7513 13.1033C91.0907 12.4803 91.5084 11.9031 91.9941 11.3859C92.1523 11.2579 92.2954 11.2127 92.4385 11.3859C92.779 12.0738 92.9982 12.8154 93.0863 13.5778C94.2538 13.8791 95.8808 14.4365 94.9016 15.1371C94.6003 15.3555 94.0655 15.5815 93.4855 15.8903C93.5504 16.4981 93.5705 17.1099 93.5458 17.7207C93.5458 17.9994 93.4705 18.4212 93.1918 18.4739C92.6268 18.5718 92.1899 17.7885 91.3011 17.0202C90.45 17.442 88.7476 18.376 88.71 17.4796C88.8022 16.7151 89.0291 15.973 89.3804 15.2877C88.5141 14.4667 87.9643 14.0675 88.017 13.6155V13.6004ZM87.2637 27.4525C87.262 27.9783 87.1248 28.4947 86.8653 28.952C86.6058 29.4093 86.2328 29.7919 85.7823 30.063C85.3317 30.334 84.819 30.4844 84.2934 30.4995C83.7679 30.5146 83.2473 30.3939 82.782 30.1491L87.1658 26.6692C87.2332 26.9301 87.2686 27.1982 87.2713 27.4676L87.2637 27.4525ZM87.0754 26.3905C85.8703 27.317 84.2508 28.6502 82.6313 30.0588C82.5094 29.9853 82.3935 29.9022 82.2848 29.8102C83.8591 28.2208 85.4033 26.4281 86.3599 25.2907C86.6748 25.6088 86.921 25.9883 87.083 26.4055L87.0754 26.3905ZM86.1942 25.1326C85.8929 25.4565 83.2716 28.4092 82.1417 29.652C81.8201 29.3567 81.5635 28.9975 81.3885 28.5975C82.5334 27.7689 84.0926 26.6164 85.8251 25.2531L86.0962 25.0346L86.1942 25.1326ZM84.2131 24.3793C84.8174 24.3787 85.4079 24.5598 85.9079 24.8991L84.8459 25.6523C84.6048 25.8331 82.7744 27.2718 81.3282 28.4016C81.1748 27.9425 81.1322 27.4536 81.2041 26.9749C81.2759 26.4962 81.4601 26.0414 81.7415 25.6475C82.0229 25.2537 82.3936 24.9321 82.8232 24.709C83.2528 24.486 83.7291 24.3678 84.2131 24.3643V24.3793ZM76.9519 23.144C77.0434 23.141 77.1336 23.1654 77.2111 23.214C77.2886 23.2626 77.3499 23.3333 77.387 23.417C77.4241 23.5006 77.4354 23.5934 77.4194 23.6835C77.4034 23.7736 77.3608 23.8569 77.2972 23.9227C77.2336 23.9884 77.1518 24.0337 77.0623 24.0527C76.9728 24.0717 76.8796 24.0635 76.7948 24.0292C76.7099 23.9949 76.6373 23.9361 76.5861 23.8602C76.5349 23.7844 76.5075 23.695 76.5075 23.6035C76.5151 23.4889 76.5661 23.3816 76.6501 23.3032C76.734 23.2249 76.8446 23.1814 76.9594 23.1817L76.9519 23.144ZM72.8015 34.5481C72.9774 34.554 73.1477 34.6115 73.2911 34.7136C73.4344 34.8156 73.5446 34.9575 73.6079 35.1218C73.6711 35.286 73.6846 35.4652 73.6467 35.637C73.6088 35.8089 73.5211 35.9658 73.3947 36.0881C73.2682 36.2105 73.1085 36.2929 72.9355 36.3251C72.7625 36.3573 72.5838 36.3379 72.4218 36.2693C72.2597 36.2006 72.1215 36.0858 72.0243 35.9391C71.927 35.7925 71.8751 35.6204 71.875 35.4444C71.881 35.2033 71.9814 34.9742 72.1548 34.8065C72.3281 34.6389 72.5604 34.546 72.8015 34.5481ZM61.0811 32.4239C61.405 32.4239 61.405 33.0039 61.0811 33.0039C60.7572 33.0039 60.7497 32.4239 61.0811 32.4239ZM30.4468 49.0781C30.4111 49.0844 30.3744 49.0828 30.3393 49.0734C30.3043 49.064 30.2717 49.047 30.2439 49.0237C30.2161 49.0003 30.1938 48.9712 30.1784 48.9383C30.1631 48.9054 30.1551 48.8696 30.1551 48.8333C30.1551 48.797 30.1631 48.7611 30.1784 48.7282C30.1938 48.6953 30.2161 48.6662 30.2439 48.6429C30.2717 48.6195 30.3043 48.6026 30.3393 48.5932C30.3744 48.5838 30.4111 48.5822 30.4468 48.5885C30.4826 48.5822 30.5192 48.5838 30.5543 48.5932C30.5893 48.6026 30.6219 48.6195 30.6497 48.6429C30.6775 48.6662 30.6999 48.6953 30.7152 48.7282C30.7305 48.7611 30.7385 48.797 30.7385 48.8333C30.7385 48.8696 30.7305 48.9054 30.7152 48.9383C30.6999 48.9712 30.6775 49.0003 30.6497 49.0237C30.6219 49.047 30.5893 49.064 30.5543 49.0734C30.5192 49.0828 30.4826 49.0844 30.4468 49.0781ZM46.6415 78.6503C46.5403 78.6387 46.4446 78.5979 46.366 78.5331C46.2875 78.4682 46.2294 78.3819 46.1988 78.2848C46.1682 78.1876 46.1665 78.0836 46.1937 77.9854C46.221 77.8873 46.2761 77.7991 46.3524 77.7316C46.4287 77.6641 46.523 77.6201 46.6237 77.605C46.7245 77.59 46.8275 77.6044 46.9202 77.6466C47.0129 77.6888 47.0914 77.757 47.1462 77.8429C47.2011 77.9288 47.2298 78.0287 47.229 78.1306C47.2193 78.2771 47.1522 78.4139 47.0421 78.5113C46.9321 78.6086 46.7881 78.6586 46.6415 78.6503ZM48.4267 28.2736C48.5298 28.2721 48.631 28.3013 48.7174 28.3575C48.8039 28.4137 48.8717 28.4943 48.9122 28.5891C48.9527 28.684 48.964 28.7887 48.9448 28.89C48.9257 28.9913 48.8768 29.0846 48.8044 29.1581C48.732 29.2315 48.6394 29.2818 48.5384 29.3024C48.4374 29.3231 48.3325 29.3133 48.2371 29.2742C48.1417 29.2351 48.0601 29.1685 48.0026 29.0828C47.9452 28.9972 47.9145 28.8964 47.9145 28.7933C47.9144 28.6568 47.9682 28.5257 48.064 28.4284C48.1599 28.3312 48.2901 28.2755 48.4267 28.2736ZM48.8635 55.3224C48.8629 55.396 48.841 55.4678 48.8007 55.5294C48.7604 55.5909 48.7032 55.6396 48.6361 55.6696C48.5689 55.6996 48.4945 55.7096 48.4218 55.6986C48.349 55.6876 48.281 55.6559 48.2257 55.6073C48.1705 55.5587 48.1304 55.4953 48.1101 55.4246C48.0898 55.3538 48.0903 55.2788 48.1115 55.2083C48.1327 55.1378 48.1736 55.0749 48.2295 55.0271C48.2853 54.9792 48.3538 54.9484 48.4267 54.9383C48.4796 54.9341 48.5328 54.941 48.5829 54.9584C48.6331 54.9758 48.6791 55.0035 48.718 55.0396C48.7569 55.0757 48.7879 55.1194 48.8091 55.1681C48.8303 55.2168 48.8411 55.2694 48.8409 55.3224H48.8635ZM49.0368 66.4478C49.4887 66.0938 50.822 64.994 51.2212 65.3405C51.6204 65.687 51.2739 66.4177 51.2212 67.4571C52.0573 67.8564 53.7897 68.6171 53.1118 69.0992C52.448 69.4237 51.7356 69.6374 51.0027 69.7319C50.8747 70.8241 50.8822 71.3815 50.5131 71.5698C50.257 71.6904 49.6921 71.2309 49.4812 71.035C49.076 70.6894 48.721 70.2888 48.4267 69.8449C47.7387 69.9279 47.0432 69.9279 46.3553 69.8449C46.1745 69.7997 46.0389 69.7169 46.0766 69.5361C46.1594 69.1218 47.0934 68.2405 47.4023 67.9468C47.2064 67.5174 46.7469 66.4403 46.9051 66.0109C47.1311 65.4159 48.1028 66.0712 49.0142 66.4478H49.0368ZM46.5888 42.1784C46.7469 42.1784 46.8298 42.2914 46.8072 42.4872C46.6495 43.0462 46.411 43.5791 46.0992 44.069C46.4221 44.4072 46.6983 44.7872 46.9202 45.1989C47.6734 46.6526 46.6264 46.2836 45.0747 45.9521C44.7089 46.4961 44.2438 46.9663 43.7038 47.3381C43.0033 47.6846 42.8452 46.2082 42.7246 45.3721C41.6626 45.0934 40.8189 45.1311 40.6005 44.7018C40.3821 44.2724 42.0091 43.6171 42.4761 43.4062C42.4233 42.6529 42.0994 41.6436 42.7472 41.6737C43.4037 41.8721 44.0065 42.2172 44.5098 42.6831C45.1717 42.4059 45.8734 42.2355 46.5888 42.1784ZM36.9925 63.2239C36.9085 63.2375 36.8225 63.2327 36.7406 63.2098C36.6586 63.1869 36.5826 63.1465 36.5178 63.0913C36.4531 63.0362 36.401 62.9676 36.3653 62.8903C36.3296 62.8131 36.3112 62.729 36.3112 62.6439C36.3112 62.5589 36.3296 62.4748 36.3653 62.3975C36.401 62.3203 36.4531 62.2517 36.5178 62.1966C36.5826 62.1414 36.6586 62.101 36.7406 62.0781C36.8225 62.0552 36.9085 62.0504 36.9925 62.0639C37.0765 62.0504 37.1624 62.0552 37.2444 62.0781C37.3263 62.101 37.4023 62.1414 37.4671 62.1966C37.5319 62.2517 37.5839 62.3203 37.6196 62.3975C37.6553 62.4748 37.6738 62.5589 37.6738 62.6439C37.6738 62.729 37.6553 62.8131 37.6196 62.8903C37.5839 62.9676 37.5319 63.0362 37.4671 63.0913C37.4023 63.1465 37.3263 63.1869 37.2444 63.2098C37.1624 63.2327 37.0765 63.2375 36.9925 63.2239ZM32.7442 40.4685C32.7164 40.4617 32.6918 40.4457 32.6742 40.4232C32.6565 40.4006 32.647 40.3729 32.647 40.3443C32.647 40.3157 32.6565 40.2879 32.6742 40.2654C32.6918 40.2428 32.7164 40.2269 32.7442 40.22C34.3938 40.107 36.2694 40.0543 37.919 40.0543C36.5442 39.09 35.0724 38.2721 33.5276 37.6138C33.4948 37.6037 33.4671 37.5816 33.45 37.552C33.4329 37.5223 33.4276 37.4873 33.4352 37.4539C33.4429 37.4206 33.4628 37.3913 33.4911 37.3721C33.5194 37.3528 33.554 37.345 33.5878 37.3501C35.3 37.3684 36.9843 37.7863 38.5065 38.5704C37.5053 37.5727 36.4464 36.6345 35.3353 35.7608C35.3115 35.7415 35.2954 35.7143 35.2899 35.6842C35.2845 35.6541 35.29 35.6229 35.3055 35.5965C35.321 35.5701 35.3454 35.5501 35.3744 35.5402C35.4034 35.5302 35.4349 35.531 35.4634 35.5423C37.3621 36.1546 39.1444 37.0814 40.7361 38.2841C42.3072 39.4354 43.6701 40.8467 44.7659 42.4571C44.7659 42.5249 44.6981 42.5776 44.6529 42.5098C43.5579 40.9099 42.1975 39.5088 40.6306 38.367C39.2348 37.3433 37.6971 36.5287 36.066 35.9491C36.6159 36.3935 38.8454 38.2088 39.1392 38.8792C39.1995 38.9997 39.0488 39.1127 38.9208 39.0374C38.1163 38.5893 37.2617 38.2379 36.3748 37.9904C35.6836 37.7836 34.9708 37.6572 34.2507 37.6138C35.1169 38.028 37.806 39.3462 38.3558 40.1296C38.3699 40.1505 38.3778 40.175 38.3788 40.2003C38.3797 40.2255 38.3735 40.2505 38.361 40.2724C38.3484 40.2943 38.33 40.3123 38.3078 40.3243C38.2856 40.3364 38.2605 40.342 38.2353 40.3405C38.1525 40.3405 36.0735 40.3405 33.8665 40.4158C36.4727 40.913 39.8924 41.8696 42.0693 43.4288C42.1296 43.474 42.0693 43.5644 41.994 43.5192C39.6288 41.8696 35.5387 40.8452 32.7442 40.4685ZM75.3927 56.023C77.9612 54.0871 83.0531 53.5749 85.2827 56.023C85.9394 56.6632 86.4554 57.4332 86.7977 58.284C87.1401 59.1348 87.3014 60.0476 87.2713 60.9642C87.0957 62.6254 86.3815 64.1835 85.2375 65.4008C85.102 65.5364 85.102 65.4008 85.1471 65.333C85.2767 65.1469 85.3626 64.9338 85.3983 64.7099C85.4341 64.4859 85.4188 64.2568 85.3536 64.0395C85.2885 63.8223 85.1751 63.6226 85.0219 63.4552C84.8688 63.2879 84.6799 63.1574 84.4692 63.0733C83.0456 62.4255 82.6163 64.8133 81.5768 65.107C80.6729 65.3707 81.0119 63.2616 81.0797 61.853C81.1744 61.2338 81.0318 60.6016 80.6804 60.0829C80.0548 59.4116 79.281 58.8957 78.4207 58.5764C76.9122 57.969 75.2744 57.7539 73.6602 57.9513C74.1009 57.1976 74.6903 56.5415 75.3927 56.023ZM73.6075 67.2538C72.3647 64.3161 72.907 60.4143 72.907 60.4143C72.9677 59.6221 73.1962 58.8518 73.5774 58.1546C75.2051 57.9892 76.8479 58.2487 78.3454 58.9079C79.1599 59.2129 79.8942 59.6998 80.4921 60.3315C81.2454 61.3258 80.4921 63.2239 80.7332 64.7078C80.8235 65.2878 81.0947 65.6569 81.6597 65.4611C82.8272 65.1296 83.2189 62.9151 84.3412 63.4273C85.4635 63.9395 85.2601 65.4083 83.9344 65.9657C83.4222 66.1842 83.4674 66.6738 83.8591 66.719C84.0625 66.719 84.4617 66.606 85.0718 66.1164C85.9653 65.2431 86.668 64.1941 87.1357 63.0356C88.1831 63.2568 89.1963 63.6165 90.1487 64.1052C91.4894 64.7154 93.0712 65.5665 94.3216 66.2972C92.416 66.7515 90.679 67.7385 89.3133 69.1429C87.9475 70.5473 87.0094 72.3113 86.6084 74.2288C86.3222 74.2288 86.3448 73.822 86.149 73.6714C85.9531 73.5207 85.8326 73.6714 85.5991 73.7467C85.6037 73.5612 85.5623 73.3775 85.4786 73.2119C85.4786 72.775 84.763 73.0311 84.3487 73.1667C84.3536 72.98 84.3256 72.7938 84.2659 72.6169C84.4391 72.0594 83.4298 72.3382 82.8648 72.4963C82.9074 72.2825 82.9074 72.0624 82.8648 71.8485C82.9176 71.4117 81.9609 71.6904 81.5617 71.8485C81.596 71.5969 81.5807 71.341 81.5165 71.0953C81.3056 70.8015 80.1908 71.4192 80.1456 71.1405C80.1494 70.934 80.1902 70.7299 80.2662 70.5379C80.3942 70.0784 79.769 70.3647 79.5882 70.3345C79.5814 70.3385 79.5736 70.3406 79.5656 70.3406C79.5577 70.3406 79.5499 70.3385 79.543 70.3345V70.2441C80.173 70.0715 80.7781 69.8183 81.3433 69.4909C81.6305 69.9143 82.0613 70.2193 82.556 70.3496C83.0053 70.4835 83.4837 70.4847 83.9337 70.3531C84.3837 70.2215 84.7861 69.9626 85.0925 69.6077C85.3988 69.2528 85.5961 68.817 85.6606 68.3526C85.7251 67.8882 85.654 67.4151 85.456 66.9901C85.456 66.9073 85.2903 66.9901 85.3279 67.0429C85.4255 67.3315 85.4637 67.6368 85.4402 67.9405C85.4167 68.2442 85.3321 68.5401 85.1914 68.8103C85.0506 69.0805 84.8567 69.3194 84.6213 69.5127C84.3859 69.7061 84.1138 69.8498 83.8214 69.9353L81.9986 68.813C81.9308 68.7678 81.9383 68.813 81.5391 69.0691C81.2886 68.5747 81.2215 68.0074 81.3497 67.4681C81.478 66.9289 81.7933 66.4526 82.2396 66.1239C82.7659 65.7709 83.3918 65.5966 84.0248 65.6268C84.0399 65.6218 84.053 65.6122 84.0623 65.5994C84.0716 65.5865 84.0766 65.5711 84.0766 65.5552C84.0766 65.5394 84.0716 65.5239 84.0623 65.511C84.053 65.4982 84.0399 65.4886 84.0248 65.4837C83.3466 65.4016 82.6603 65.5474 82.0739 65.8979C81.5415 66.2515 81.1596 66.7904 81.0023 67.4098C80.845 68.0293 80.9236 68.6851 81.2228 69.2499C79.8875 70.0095 78.3557 70.3531 76.8238 70.2366C76.0895 70.0303 75.4148 69.6523 74.8555 69.1336C74.2962 68.6149 73.8684 67.9705 73.6075 67.2538ZM85.3355 73.9426C85.5334 73.9002 85.7255 73.8344 85.9079 73.7467C86.2393 73.6262 86.149 74.289 86.5708 74.2966C86.4954 74.6506 86.4502 74.9293 86.4277 75.1025C86.0736 74.9745 85.7422 74.8314 85.4108 74.6958C85.4254 74.4423 85.4 74.1881 85.3355 73.9426ZM85.3355 73.7768C85.3355 73.7768 85.3355 73.7392 85.4108 73.4831C85.4294 73.5779 85.4679 73.6678 85.5238 73.7467L85.3355 73.7693V73.7768ZM85.2601 73.92C85.2216 74.1696 85.2216 74.4236 85.2601 74.6732C84.7329 74.4548 84.2433 74.2288 83.7537 74.0028C83.7533 73.8606 83.7251 73.7199 83.6708 73.5885C84.0173 73.5885 85.1773 73.0311 85.23 73.1968C85.2827 73.3626 85.0116 73.7693 85.2601 73.92ZM83.5955 73.5358C83.594 73.6534 83.6118 73.7704 83.6482 73.8823C83.4524 73.7919 82.6464 73.3852 82.443 73.2797C82.4394 73.1188 82.4141 72.9592 82.3677 72.8052C82.8192 72.7428 83.265 72.6446 83.7009 72.5114C83.7537 72.5114 84.0926 72.4662 84.0625 72.5114C84.0323 72.7298 83.264 73.3626 83.5955 73.5358ZM82.2773 73.1893C81.8932 72.9859 81.5241 72.7901 81.2378 72.6093C81.2429 72.4496 81.2147 72.2905 81.155 72.1423C81.2764 72.163 81.4013 72.1418 81.509 72.082C81.8553 71.9245 82.2286 71.835 82.6087 71.8184C82.4493 72.0021 82.3127 72.2045 82.202 72.421C82.1722 72.6796 82.1979 72.9415 82.2773 73.1893ZM81.0646 72.5114L80.2285 72.0067C80.2455 71.7835 80.2225 71.559 80.1607 71.3439C80.4017 71.3966 81.0269 71.148 81.3132 71.1706C81.1769 71.3553 81.0536 71.549 80.9441 71.7506C80.9441 72.009 80.9848 72.2657 81.0646 72.5114ZM81.3885 71.4192C81.3697 71.5693 81.3697 71.7211 81.3885 71.8711C81.3358 71.8711 81.1625 71.954 81.1474 71.8711C81.1324 71.7883 81.2981 71.5096 81.3885 71.4192ZM82.7142 72.067C82.7096 72.2144 82.7274 72.3617 82.7669 72.5039C82.651 72.5466 82.5288 72.5695 82.4053 72.5717C82.4053 72.5717 82.3752 72.4662 82.7142 72.067ZM84.1604 72.8202C84.1702 72.9441 84.1981 73.0659 84.2433 73.1818C84.0932 73.2389 83.9398 73.2867 83.7838 73.3249C83.8742 73.1893 83.9947 73.0161 84.1604 72.8127V72.8202ZM80.01 71.2535C80.0064 71.4797 80.0342 71.7053 80.0929 71.9239C79.9645 71.8454 79.8389 71.7625 79.7163 71.6753L79.543 70.4099C79.7313 70.4099 80.123 70.2969 80.123 70.4099C80.123 70.5228 79.8067 71.02 80.01 71.2459V71.2535ZM81.622 69.2197C81.7274 69.1519 81.8404 69.0691 81.9459 68.9862L83.603 70.0031C83.2354 70.0771 82.8543 70.0457 82.5038 69.9124C82.1533 69.7791 81.8476 69.5494 81.622 69.2499V69.2197ZM73.5548 75.9085C73.374 75.8558 74.4135 74.2438 74.534 74.0555C74.9031 73.4605 76.6883 70.7036 76.8389 70.4776C77.4614 70.5142 78.086 70.4763 78.6994 70.3647C78.8199 74.8238 79.6259 76.6768 80.6051 78.4168C80.1004 78.2586 79.5882 78.4921 79.1438 78.3339C78.5186 78.123 78.5412 77.2191 77.6373 77.1664C77.0468 77.236 76.4786 77.4339 75.9727 77.7464C75.7693 77.8293 75.7241 77.7464 75.6714 77.656C75.5968 77.1466 75.4861 76.6432 75.34 76.1496C74.9935 75.5545 73.9088 76.029 73.5548 75.9085ZM54.7765 97.5416L58.3318 99.6883C58.1247 99.8839 57.9003 100.06 57.6614 100.216C57.0814 100.524 56.4788 100.291 56.4713 100.75C53.2248 101.993 48.3363 107.725 54.43 112.96C62.2185 119.642 71.0841 122.308 62.8362 128.681C60.5764 130.451 58.2489 130.187 55.5599 128.447C52.6072 126.511 52.6373 117.985 49.8051 112.719C45.0973 103.959 43.154 106.912 34.0548 100.329L54.7765 97.5416ZM65.239 129.178C65.2291 129.178 65.2193 129.176 65.2102 129.172C65.201 129.168 65.1927 129.163 65.1857 129.156C65.1787 129.149 65.1732 129.14 65.1694 129.131C65.1656 129.122 65.1637 129.112 65.1637 129.102C65.1637 129.092 65.1656 129.083 65.1694 129.074C65.1732 129.064 65.1787 129.056 65.1857 129.049C65.1927 129.042 65.201 129.037 65.2102 129.033C65.2193 129.029 65.2291 129.027 65.239 129.027C65.2541 129.032 65.2672 129.042 65.2765 129.054C65.2858 129.067 65.2908 129.083 65.2908 129.099C65.2908 129.114 65.2858 129.13 65.2765 129.143C65.2672 129.156 65.2541 129.165 65.239 129.17V129.178ZM61.3824 131.437C61.3508 131.443 61.3184 131.442 61.2873 131.434C61.2562 131.426 61.2273 131.411 61.2026 131.391C61.1778 131.37 61.158 131.345 61.1443 131.316C61.1307 131.287 61.1236 131.255 61.1236 131.223C61.1236 131.191 61.1307 131.159 61.1443 131.13C61.158 131.101 61.1778 131.075 61.2026 131.055C61.2273 131.034 61.2562 131.019 61.2873 131.011C61.3184 131.003 61.3508 131.002 61.3824 131.008C61.4433 131.008 61.5018 131.032 61.5449 131.075C61.5879 131.118 61.6121 131.177 61.6121 131.238C61.6121 131.299 61.5879 131.357 61.5449 131.4C61.5018 131.443 61.4433 131.468 61.3824 131.468V131.437ZM51.6807 130.91C51.7578 130.687 51.8724 130.478 52.0196 130.292C51.6807 129.825 51.4773 129.592 52.0648 129.622C52.237 129.635 52.4067 129.67 52.5695 129.728C53.1721 129.065 53.2775 129.11 53.2549 130.014C53.4056 130.089 53.7596 130.27 53.8274 130.421C53.8952 130.571 53.511 130.662 53.2399 130.744C53.2399 130.925 53.1721 131.498 52.9988 131.498C52.8256 131.498 52.7277 131.219 52.5017 130.933C52.1929 131.016 51.643 131.211 51.6807 130.94V130.91ZM51.5827 121.314C51.5512 121.32 51.5187 121.319 51.4876 121.311C51.4565 121.303 51.4276 121.288 51.4029 121.267C51.3782 121.247 51.3583 121.221 51.3446 121.192C51.331 121.163 51.3239 121.131 51.3239 121.099C51.3239 121.067 51.331 121.035 51.3446 121.006C51.3583 120.977 51.3782 120.952 51.4029 120.931C51.4276 120.911 51.4565 120.896 51.4876 120.888C51.5187 120.88 51.5512 120.879 51.5827 120.885C51.6437 120.885 51.7021 120.909 51.7452 120.952C51.7883 120.995 51.8125 121.053 51.8125 121.114C51.8125 121.175 51.7883 121.234 51.7452 121.277C51.7021 121.32 51.6437 121.344 51.5827 121.344V121.314ZM42.4836 110.392C42.452 110.398 42.4196 110.397 42.3885 110.389C42.3574 110.381 42.3285 110.366 42.3038 110.345C42.279 110.325 42.2592 110.299 42.2455 110.27C42.2318 110.241 42.2248 110.209 42.2248 110.177C42.2248 110.145 42.2318 110.113 42.2455 110.084C42.2592 110.055 42.279 110.03 42.3038 110.009C42.3285 109.989 42.3574 109.974 42.3885 109.966C42.4196 109.958 42.452 109.957 42.4836 109.963C42.5152 109.957 42.5476 109.958 42.5787 109.966C42.6098 109.974 42.6387 109.989 42.6634 110.009C42.6881 110.03 42.708 110.055 42.7217 110.084C42.7353 110.113 42.7424 110.145 42.7424 110.177C42.7424 110.209 42.7353 110.241 42.7217 110.27C42.708 110.299 42.6881 110.325 42.6634 110.345C42.6387 110.366 42.6098 110.381 42.5787 110.389C42.5476 110.397 42.5152 110.398 42.4836 110.392ZM39.4706 105.692C39.4391 105.698 39.4066 105.696 39.3755 105.688C39.3444 105.68 39.3155 105.666 39.2908 105.645C39.2661 105.625 39.2462 105.599 39.2325 105.57C39.2189 105.541 39.2118 105.509 39.2118 105.477C39.2118 105.445 39.2189 105.413 39.2325 105.384C39.2462 105.355 39.2661 105.329 39.2908 105.309C39.3155 105.288 39.3444 105.274 39.3755 105.266C39.4066 105.257 39.4391 105.256 39.4706 105.262C39.5018 105.255 39.5341 105.255 39.5654 105.261C39.5967 105.268 39.6262 105.281 39.6517 105.3C39.6773 105.319 39.6984 105.344 39.7134 105.372C39.7284 105.4 39.7371 105.432 39.7388 105.463C39.7405 105.495 39.7351 105.527 39.7231 105.557C39.7111 105.587 39.6928 105.613 39.6694 105.635C39.6459 105.657 39.618 105.673 39.5876 105.683C39.5572 105.693 39.5249 105.696 39.4932 105.692H39.4706ZM30.6351 104.185C30.6667 104.179 30.6991 104.18 30.7302 104.188C30.7613 104.196 30.7902 104.211 30.815 104.232C30.8397 104.252 30.8596 104.278 30.8732 104.307C30.8869 104.336 30.8939 104.368 30.8939 104.4C30.8939 104.432 30.8869 104.464 30.8732 104.493C30.8596 104.522 30.8397 104.547 30.815 104.568C30.7902 104.588 30.7613 104.603 30.7302 104.611C30.6991 104.619 30.6667 104.62 30.6351 104.615C30.6034 104.619 30.5712 104.616 30.5408 104.606C30.5103 104.596 30.4824 104.58 30.459 104.558C30.4356 104.536 30.4172 104.509 30.4052 104.48C30.3932 104.45 30.3879 104.418 30.3896 104.386C30.3912 104.354 30.3999 104.323 30.415 104.295C30.43 104.267 30.451 104.242 30.4766 104.223C30.5022 104.204 30.5317 104.191 30.563 104.184C30.5942 104.177 30.6266 104.178 30.6577 104.185H30.6351ZM25.6713 89.1203C25.9828 88.8696 26.3377 88.6781 26.7183 88.5554C26.7183 87.5762 26.6429 87.0489 27.4188 87.6289C27.6454 87.8137 27.8478 88.0263 28.0214 88.2617C28.371 88.1559 28.7333 88.0976 29.0985 88.0884C29.204 88.0884 29.2718 88.1487 29.2642 88.2541C29.1355 88.6429 28.942 89.0071 28.6918 89.3313C28.9091 89.6692 29.0433 90.0538 29.0834 90.4536C29.0157 90.8227 28.4357 90.4988 27.9686 90.3632C27.7653 90.6042 27.1401 91.4027 26.9066 91.2219C26.6731 91.0411 26.8011 90.5741 26.771 89.9414C26.3115 89.7757 25.3775 89.4744 25.6939 89.1203H25.6713ZM22.8993 95.7639C22.9309 95.758 22.9634 95.7591 22.9945 95.7671C23.0255 95.7752 23.0545 95.79 23.0792 95.8105C23.1039 95.831 23.1238 95.8567 23.1374 95.8857C23.1511 95.9148 23.1582 95.9465 23.1582 95.9786C23.1582 96.0107 23.1511 96.0424 23.1374 96.0715C23.1238 96.1005 23.1039 96.1262 23.0792 96.1467C23.0545 96.1672 23.0255 96.182 22.9945 96.1901C22.9634 96.1981 22.9309 96.1992 22.8993 96.1933C22.8676 96.1973 22.8354 96.1943 22.805 96.1845C22.7745 96.1747 22.7466 96.1583 22.7232 96.1366C22.6998 96.1148 22.6814 96.0882 22.6694 96.0585C22.6574 96.0289 22.6521 95.997 22.6538 95.9651C22.6555 95.9332 22.6641 95.902 22.6792 95.8738C22.6942 95.8456 22.7153 95.821 22.7408 95.8018C22.7664 95.7826 22.7959 95.7693 22.8272 95.7628C22.8585 95.7562 22.8908 95.7566 22.9219 95.7639H22.8993ZM95.5494 120.779C92.7925 124.372 51.6279 144.348 47.6207 146.284C38.2127 135.113 23.5697 114.746 14.9828 102.859L22.7412 101.843C27.577 109.473 34.9888 107.703 38.966 110.128C43.4402 112.862 45.7451 114.926 47.101 120.229C48.9464 127.438 46.6189 130.549 52.0121 132.846C57.1793 135.038 67.4385 134.157 71.5964 127.023C75.7542 119.89 67.6117 116.772 60.2977 113.465C52.9838 110.158 54.2718 105.579 55.2661 104.283C56.0253 103.297 56.906 102.412 57.8874 101.647C58.2585 101.648 58.6235 101.552 58.9459 101.368C59.2684 101.185 59.5371 100.92 59.7253 100.6C60.6066 101.074 94.0354 119.913 95.572 120.779H95.5494ZM67.6795 129.66C67.6894 129.66 67.6992 129.662 67.7083 129.665C67.7175 129.669 67.7258 129.675 67.7328 129.682C67.7398 129.689 67.7453 129.697 67.7491 129.706C67.7529 129.715 67.7548 129.725 67.7548 129.735C67.7548 129.745 67.7529 129.755 67.7491 129.764C67.7453 129.773 67.7398 129.781 67.7328 129.788C67.7258 129.795 67.7175 129.801 67.7083 129.805C67.6992 129.808 67.6894 129.81 67.6795 129.81C67.6696 129.81 67.6599 129.807 67.651 129.803C67.642 129.799 67.634 129.793 67.6273 129.786C67.6207 129.778 67.6156 129.77 67.6122 129.76C67.6089 129.751 67.6074 129.741 67.6079 129.731C67.6084 129.721 67.6109 129.712 67.6151 129.703C67.6194 129.694 67.6253 129.686 67.6327 129.679C67.64 129.673 67.6486 129.667 67.6579 129.664C67.6672 129.661 67.6771 129.659 67.687 129.66H67.6795ZM69.6078 122.029C69.5174 122.09 69.3818 122.029 69.1709 121.924C68.8395 122.293 68.6813 122.399 68.719 121.773C68.3951 121.668 68.2143 121.615 68.5156 121.442C68.606 121.393 68.7022 121.355 68.8018 121.329C68.8847 120.809 68.9525 120.802 69.2387 121.239C69.3772 121.204 69.522 121.204 69.6605 121.239C69.766 121.299 69.5927 121.442 69.4722 121.585C69.5174 121.69 69.6982 121.977 69.6153 122.029H69.6078ZM58.49 101.195C58.1994 101.291 57.8876 101.303 57.5905 101.229C57.2934 101.156 57.0229 101.001 56.8102 100.781H56.878C58.3017 100.562 58.0907 99.9745 58.8289 99.613C58.8967 99.6883 58.8289 99.6657 60.0266 99.7561C59.7241 100.42 59.1719 100.937 58.49 101.195ZM60.2299 98.1818C60.1209 98.3846 60.0788 98.6166 60.1094 98.8447C60.1094 98.8974 60.0567 99.1385 60.0266 99.3644L59.2131 99.2966C59.2131 99.259 59.7479 97.986 59.7855 97.8655H60.2977L60.2299 98.1818ZM60.0793 96.0652C59.5596 97.0369 59.3261 98.8447 58.8666 98.5283C58.706 98.3623 58.6145 98.1416 58.6105 97.9107C58.5863 97.4761 58.6477 97.041 58.7913 96.6302C58.9141 96.1989 59.1302 95.7999 59.4244 95.4614C59.7186 95.123 60.0836 94.8534 60.4936 94.6717C60.0944 96.2083 60.2074 95.8619 60.0793 96.0954V96.0652ZM60.6216 97.2026C60.7422 96.8486 60.9079 96.3289 61.1414 95.6509C61.2393 95.5982 61.2619 95.6509 61.3899 95.9673C61.5933 96.4946 60.4032 97.8353 60.4032 97.8353C60.4785 97.6169 60.5614 97.406 60.6216 97.2327V97.2026ZM81.8932 84.149C79.2342 88.1487 77.2607 89.9414 74.1574 91.6814C71.1321 93.2907 67.9153 94.5106 64.5837 95.312C63.2429 95.7263 62.1206 98.7016 60.6518 98.8372C60.486 98.8372 60.3731 98.8372 60.5086 98.4605C60.8476 97.519 62.0754 96.7356 61.7214 95.8393C61.6764 95.7046 61.6157 95.5756 61.5406 95.4551C61.4795 95.3566 61.3864 95.2822 61.277 95.2442C61.3221 95.0936 61.4728 94.6567 61.6762 94.039C61.8494 93.9185 61.9699 93.8808 62.7608 93.4138C65.4122 91.8471 66.4517 89.0375 68.6813 86.4087C69.8589 84.9681 71.2332 83.7003 72.7639 82.6425C72.8769 82.5747 72.6886 82.6877 73.5623 79.9308C74.067 78.3415 74.6545 76.6618 74.8278 76.1646C74.8604 76.1691 74.8915 76.181 74.9189 76.1992C74.9463 76.2175 74.9692 76.2417 74.9859 76.2701C75.1818 76.6392 75.1441 77.3472 75.3098 77.7765C75.7015 78.7256 76.6732 77.4527 77.5695 77.4753C78.3228 77.4753 78.3228 78.3415 79.076 78.5599C79.641 78.7256 80.2059 78.3791 80.7332 78.6277C81.4239 79.8024 82.2369 80.9007 83.1586 81.9043C82.8163 82.7042 82.3923 83.4665 81.8932 84.1791V84.149ZM86.5181 84.39C84.238 82.7602 82.3324 80.662 80.929 78.236C80.0025 76.6241 79.1438 74.8238 78.8501 70.3044C79.0278 70.2734 79.2038 70.2331 79.3773 70.1839L79.5355 71.6904C80.3652 72.3185 81.2415 72.8825 82.1568 73.3776C82.1568 73.3776 81.5165 77.0007 84.4165 81.6633C85.81 83.9531 86.5181 84.4201 86.5181 84.4201V84.39ZM100.521 94.1068C100.656 95.7489 99.165 104.712 98.9616 105.933C98.9495 105.937 98.9386 105.944 98.9295 105.953C98.9204 105.962 98.9134 105.973 98.9089 105.985C99.0068 105.616 97.312 111.318 97.1839 113.104C97.1839 113.247 97.1839 113.179 98.472 114.294C98.9089 114.678 100.408 115.951 100.483 116.395C100.518 116.511 100.518 116.634 100.483 116.749C99.8103 116.036 99.0075 115.459 98.118 115.047C98.102 115.037 98.0827 115.034 98.0643 115.038C98.046 115.042 98.03 115.054 98.02 115.069C98.01 115.085 98.0068 115.105 98.011 115.123C98.0153 115.141 98.0266 115.157 98.0426 115.167L98.6527 115.665C99.263 116.079 99.8241 116.562 100.325 117.103C100.25 117.292 100.084 117.307 99.8881 117.254C99.8881 116.862 98.1707 115.913 97.6283 115.589C97.5455 115.544 97.4702 115.665 97.553 115.71C98.3095 116.147 99.0144 116.667 99.6546 117.261C99.4135 117.804 98.6829 117.028 96.0239 115.936C95.5447 115.72 95.0376 115.573 94.5175 115.499C94.4822 115.496 94.4471 115.505 94.4173 115.524C94.3875 115.543 94.3645 115.571 94.3517 115.604C94.284 115.8 94.4949 115.793 95.1728 116.478C95.3169 116.604 95.4413 116.752 95.5419 116.915C95.0905 116.968 94.6347 116.862 94.2538 116.614C93.952 116.412 93.7138 116.128 93.5671 115.796C93.4204 115.464 93.3712 115.097 93.4253 114.738C93.5533 113.985 94.299 113.601 93.9902 112.93C93.6814 112.26 93.0487 107.906 92.9583 107.281C92.1222 101.624 92.4385 101.504 92.2803 101.458C92.2803 93.6097 92.5289 93.5795 92.4687 93.1728C92.4687 93.0899 90.7814 81.5051 90.7663 81.4147C91.2635 81.4147 91.6175 81.9646 91.8962 82.4165C92.3029 83.0643 92.6494 83.4861 93.4629 83.2375C94.2764 82.989 94.9694 82.3035 95.7226 82.0324C96.4759 81.7612 96.8751 82.0324 97.6961 82.296C98.0125 82.447 98.3697 82.4898 98.7128 82.4176C99.0558 82.3455 99.3656 82.1624 99.5943 81.8968C100.905 80.8046 100.287 80.5334 102.969 81.5879C102.449 83.6142 101.282 89.3388 101.259 89.4292C100.783 90.9433 100.534 92.5197 100.521 94.1068ZM90.6759 81.0456C90.0852 81.2588 89.509 81.5105 88.951 81.7989C88.823 81.7989 88.7702 81.7989 88.7326 81.6482C88.4991 80.5711 91.2409 67.8187 98.0728 67.3366C101.191 67.1257 103.345 72.7223 104.287 75.7051C104.906 77.6011 105.387 79.5395 105.726 81.5051C105.861 82.8684 101.884 80.315 100.739 80.5786C100.287 80.6841 100.084 81.0682 99.4361 81.6105C98.7883 82.1529 98.4569 82.1529 97.8845 81.9495C97.2082 81.5791 96.4156 81.482 95.6699 81.6783C94.8715 81.9646 94.2086 82.6349 93.4102 82.8835C92.7323 83.102 92.5214 82.6349 92.1372 82.0324C91.7531 81.4298 91.3614 80.9176 90.6759 81.0155V81.0456ZM101.899 88.1562C102.216 86.9058 102.773 84.3147 103.187 81.603C103.88 81.8742 105.394 82.537 105.899 82.055C105.974 81.9744 106.028 81.8767 106.057 81.7704C106.086 81.6641 106.089 81.5523 106.065 81.4448C105.792 79.855 105.414 78.2848 104.935 76.7446C103.925 73.3927 101.568 66.9525 98.0577 67.1709C90.932 67.6681 88.1526 80.5259 88.3936 81.6859C88.4006 81.7604 88.4246 81.8324 88.4637 81.8962C88.5029 81.96 88.5562 82.014 88.6195 82.0541C88.6828 82.0941 88.7544 82.119 88.8288 82.127C88.9033 82.135 88.9786 82.1258 89.0489 82.1001C89.4783 81.9947 90.0884 81.5277 90.6458 81.3996C90.7287 82.7705 90.8868 84.5934 91.2183 86.951C89.9475 86.4511 88.7206 85.8464 87.55 85.1432C85.1867 82.848 83.5207 79.9312 82.7443 76.7295C82.4795 75.6817 82.328 74.6085 82.2924 73.5283C83.6601 74.2921 85.0797 74.9591 86.5406 75.5244C86.5649 75.5339 86.5911 75.5376 86.617 75.5351C86.6429 75.5326 86.6679 75.5241 86.6899 75.5101C86.712 75.4962 86.7304 75.4772 86.7437 75.4549C86.757 75.4325 86.7649 75.4072 86.7666 75.3812C87.0419 73.2534 87.9439 71.2554 89.3578 69.6415C90.7982 68.0454 92.712 66.9525 94.8188 66.5231C94.8528 66.5175 94.8842 66.5015 94.9087 66.4771C94.9331 66.4528 94.9494 66.4215 94.9552 66.3875C94.961 66.3535 94.956 66.3186 94.941 66.2875C94.926 66.2565 94.9017 66.2309 94.8715 66.2143C93.3794 65.3533 91.8404 64.5762 90.2617 63.8868C89.2837 63.4324 88.2579 63.0888 87.2035 62.8624C87.4076 62.3006 87.5442 61.7165 87.6102 61.1224C89.1167 60.4821 96.7169 61.4237 101.839 60.8889C102.615 60.8409 103.384 60.7173 104.136 60.5198C108.754 60.3918 115.706 66.0712 116.987 68.6322C118.267 71.1932 118.064 74.3945 115.224 78.3791C112.55 82.1077 102.939 87.5461 101.907 88.1261L101.899 88.1562ZM122.395 103.364C123.442 100.065 121.785 96.9767 121.19 96.02L126.176 95.8845C126.818 96.2643 127.308 96.8554 127.562 97.5566C127.971 98.6067 128.188 99.7216 128.202 100.848C126.711 101.519 123.947 102.784 122.395 103.334V103.364ZM128.526 100.645C128.485 99.5415 128.229 98.4568 127.773 97.4512C127.471 96.7417 126.941 96.1532 126.267 95.779C126.567 95.4565 126.931 95.2 127.336 95.0258C127.336 95.2668 127.042 95.779 127.396 95.8317C127.75 95.8845 127.788 95.538 128.007 95.425C128.097 95.3798 128.278 95.3722 128.202 95.5681C128.127 95.7639 127.961 96.0577 128.135 96.3213C128.262 96.4714 128.438 96.5725 128.632 96.6076C128.677 96.6076 128.376 96.8185 128.293 97.0595C128.273 97.1165 128.276 97.1789 128.301 97.2337C128.327 97.2884 128.372 97.3313 128.428 97.3533C128.684 97.4512 129.129 97.1951 129.408 97.4738C129.521 97.5943 129.46 97.7073 129.317 97.7901C128.971 98.0086 128.925 98.2647 129.249 98.5434C129.412 98.6566 129.557 98.7938 129.679 98.9501C129.442 98.9485 129.212 99.0253 129.023 99.1686C128.988 99.196 128.958 99.2313 128.938 99.2718C128.918 99.3123 128.908 99.3569 128.908 99.4021C128.908 99.4473 128.918 99.4918 128.938 99.5323C128.958 99.5728 128.988 99.6082 129.023 99.6356C129.189 99.7787 129.596 99.9294 129.686 100.057C129.327 100.296 128.937 100.484 128.526 100.615V100.645ZM137.663 95.4325C137.354 96.6904 130.575 99.726 130.093 99.9519C130.01 99.6582 129.536 99.5151 129.34 99.372C129.551 99.259 129.972 99.3042 130.055 99.0405C130.138 98.7769 129.551 98.34 129.415 98.1668C129.543 98.0462 130.003 97.8278 129.799 97.4135C129.707 97.2577 129.567 97.1352 129.401 97.0635C129.234 96.9918 129.05 96.9746 128.873 97.0143H128.76C128.925 96.8034 129.197 96.5322 128.948 96.3515C128.7 96.1707 128.534 96.3515 128.406 96.1029C129.121 96.1933 129.709 96.2912 130.161 96.3891C130.176 96.3913 130.191 96.3902 130.206 96.3859C130.22 96.3816 130.234 96.3741 130.245 96.3641C130.257 96.3541 130.266 96.3417 130.272 96.3278C130.278 96.3139 130.281 96.2989 130.281 96.2837C130.281 96.585 130.07 94.5437 131.14 94.3027C131.618 94.2522 132.1 94.32 132.546 94.4999C132.991 94.6798 133.385 94.9665 133.694 95.3346C133.711 95.3566 133.735 95.3732 133.761 95.3825C133.788 95.3919 133.817 95.3935 133.844 95.3873C134.123 95.3346 136.435 94.86 137.362 95.199C137.467 95.1915 137.686 95.2969 137.663 95.4024V95.4325Z" fill="white"/>
  </svg>
  