<svg width="151" height="152" viewBox="0 0 151 152" fill="none" xmlns="http://www.w3.org/2000/svg">
<path d="M99.6983 84.9375H99.6531H99.6983ZM36.8027 106.91C37.089 106.955 38.6557 107.03 38.6557 106.759C38.6557 106.601 38.3695 106.608 38.3695 106.608C38.4071 105.403 39.9362 105.102 41.0284 105.734C41.3295 105.908 41.6078 106.118 41.857 106.36C40.3128 106.443 38.264 107.497 38.3996 109.026C38.4775 109.425 38.6446 109.801 38.8886 110.126C39.1326 110.45 39.447 110.716 39.8082 110.902C40.2597 111.24 40.7739 111.484 41.321 111.621C41.868 111.758 42.4369 111.785 42.9944 111.7C43.9873 111.447 44.8609 110.856 45.465 110.028C46.8303 110.071 48.1661 109.625 49.2312 108.77C49.2762 108.734 49.3134 108.69 49.3406 108.639C49.3678 108.589 49.3844 108.533 49.3894 108.476C49.3894 108.213 49.3894 108.228 47.8829 106.556C47.8403 106.508 47.7868 106.471 47.727 106.449C47.6673 106.426 47.603 106.418 47.5395 106.425C47.476 106.433 47.4153 106.455 47.3623 106.491C47.3093 106.527 47.2657 106.575 47.2351 106.631C47.2091 106.664 47.1864 106.699 47.1673 106.736C47.0477 106.961 46.8543 107.138 46.6197 107.236C46.3851 107.335 46.1236 107.35 45.8793 107.279C45.126 107.06 44.1544 105.064 42.3842 103.874C40.8401 102.834 38.7687 102.526 37.3074 103.761C36.6785 104.301 36.2313 105.022 36.0269 105.825C35.9456 106.073 35.9617 106.342 36.0721 106.578C36.2699 106.77 36.5282 106.887 36.8027 106.91ZM39.6349 109.704C39.4284 109.557 39.2851 109.337 39.2334 109.088C39.1818 108.84 39.2256 108.581 39.3562 108.363C39.6902 107.902 40.1545 107.55 40.6895 107.354C40.2579 108.086 39.9044 108.861 39.6349 109.666V109.704ZM46.7304 108.514C46.9112 107.972 46.7304 108.16 47.0317 108.024C47.26 107.911 47.4665 107.758 47.6419 107.572L48.3273 108.386C47.7597 108.746 47.1321 109.001 46.4743 109.139C46.5497 108.943 46.6702 108.642 46.7304 108.476V108.514ZM44.0037 106.593C44.7193 107.49 45.3144 108.288 46.4065 108.198C46.2507 108.522 46.1247 108.86 46.0299 109.207C45.4801 109.245 45.4047 109.117 45.1863 109.207C44.757 109.373 44.0489 110.917 42.3315 110.909C42.4384 110.67 42.507 110.416 42.5349 110.156C43.0208 110.058 43.4757 109.843 43.8606 109.531C44.0255 109.388 44.1327 109.19 44.1619 108.973C44.1619 108.71 44.0715 108.371 43.5141 107.926C43.7218 107.487 43.8857 107.027 44.0037 106.556V106.593ZM41.4728 109.44C40.81 109.086 41.9398 108.461 42.6705 108.484C42.8383 108.485 43.0024 108.534 43.1437 108.624C43.285 108.715 43.3978 108.844 43.4689 108.996C43.3683 109.158 43.2356 109.298 43.0791 109.407C42.9225 109.516 42.7454 109.591 42.5585 109.63C42.3716 109.668 42.179 109.667 41.9923 109.628C41.8056 109.589 41.6288 109.512 41.4728 109.403V109.44ZM42.3616 104.831C42.8731 105.265 43.3377 105.753 43.7476 106.284C43.5093 106.719 43.327 107.182 43.2053 107.663C42.8887 107.572 42.5569 107.547 42.2304 107.59C41.9038 107.633 41.5896 107.742 41.3071 107.911C39.9287 108.665 40.2526 110.314 42.1658 110.126C42.0534 110.343 41.9698 110.573 41.9172 110.811C41.1534 110.659 40.4391 110.32 39.8383 109.825C40.3723 108.995 40.788 108.095 41.0736 107.151C41.3664 107.016 41.6832 106.941 42.0053 106.931C42.3274 106.921 42.6483 106.975 42.9492 107.09L43.1074 106.495L42.9416 106.42C42.5876 106.179 42.4294 105.991 42.0227 105.667C42.1737 105.392 42.2876 105.098 42.3616 104.793V104.831ZM39.4391 103.625C40.3817 103.643 41.2944 103.959 42.0453 104.529C41.9104 104.836 41.8094 105.157 41.744 105.486C41.3829 105.203 40.957 105.014 40.5046 104.936C40.0523 104.858 39.5877 104.895 39.1528 105.041C39.3118 104.585 39.4081 104.108 39.4391 103.625ZM37.7141 104.213C38.1317 103.888 38.6335 103.689 39.1604 103.64C38.9267 104.147 38.7814 104.689 38.731 105.245C38.5066 105.379 38.3229 105.573 38.1995 105.803C38.0762 106.034 38.0178 106.294 38.0305 106.556C37.5028 106.585 36.9746 106.505 36.4788 106.322C36.5909 105.485 37.0296 104.727 37.6991 104.213H37.7141ZM26.4607 102.955C25.1049 102.367 22.0919 104.107 21.5421 105.041C21.4625 105.248 21.4625 105.476 21.5421 105.682C22.0166 107.482 26.4457 113.839 27.2667 114.826C27.4098 115.007 27.6057 114.758 27.4776 114.547C27.0859 113.9 27.1311 115.203 29.1347 108.717C29.3203 108.645 29.4932 108.543 29.6469 108.416C29.7168 108.339 29.7555 108.238 29.7555 108.134C29.7555 108.029 29.7168 107.929 29.6469 107.851C29.5786 107.767 29.5001 107.691 29.4134 107.625L29.888 105.87L31.7711 106.91C31.3903 107.861 31.1125 108.851 30.9425 109.862C30.1831 110.136 29.4714 110.527 28.8334 111.022C28.389 111.512 29.0895 112.416 29.5264 112.958C29.9633 113.5 30.3324 113.869 30.4152 113.952C30.4981 114.035 30.7617 113.952 30.7391 113.817C30.6913 113.708 30.6279 113.606 30.5508 113.515C30.1427 112.88 29.7923 112.21 29.5038 111.512C30.0893 111.162 30.7073 110.869 31.3493 110.638C31.5828 110.555 32.3059 110.329 32.5017 110.45C33.4681 110.959 34.4761 111.385 35.5147 111.723C35.5566 111.743 35.6048 111.745 35.6486 111.73C35.6924 111.714 35.7282 111.682 35.7482 111.64C35.7682 111.598 35.7707 111.55 35.7551 111.506C35.7396 111.462 35.7073 111.426 35.6653 111.406L34.3622 110.615C34.6397 109.986 34.8175 109.318 34.8895 108.634L38.1058 110.374C38.3017 110.487 38.4523 110.179 38.3092 110.096C38.1661 110.013 28.4041 103.806 26.4607 102.955ZM25.3158 103.753C25.5787 103.675 25.8589 103.675 26.1218 103.753C26.295 103.829 26.7168 104.055 27.2893 104.371C27.0962 104.904 26.9648 105.458 26.8976 106.021C26.3929 105.734 26.0916 105.516 25.6924 105.584C25.4748 105.633 25.2713 105.73 25.0974 105.87C25.1727 105.283 25.2405 104.831 25.3158 103.753ZM22.3028 105.411C23.0841 104.666 24.0318 104.118 25.0672 103.814C24.6652 105.59 24.3834 107.392 24.2236 109.207C23.4641 108.004 22.8233 106.73 22.3104 105.403L22.3028 105.411ZM25.7226 111.745C25.3083 111.06 24.8563 110.299 24.427 109.553C24.6831 108.476 24.7659 107.979 24.9241 106.962C25.3363 107.677 25.8128 108.353 26.3477 108.981C26.0441 109.878 25.837 110.805 25.7301 111.745H25.7226ZM27.0407 113.915C26.7696 113.485 26.4231 112.905 25.9711 112.16C26.2571 111.215 26.4464 110.243 26.5361 109.26C26.7018 109.659 28.1781 109.086 28.5773 108.936C28.2836 109.862 27.2592 113.086 27.0483 113.915H27.0407ZM26.8148 109.026C26.348 108.218 25.9353 107.38 25.5794 106.518L25.8129 106.39C25.9184 106.45 28.4945 107.972 28.6828 108.092C28.0957 108.465 27.4724 108.778 26.8223 109.026H26.8148ZM29.0745 107.369C28.5096 106.992 27.7412 106.533 27.1537 106.194C27.3547 105.661 27.4864 105.104 27.5454 104.537L29.6846 105.742C29.6469 106.028 29.3908 106.616 29.1197 107.369H29.0745ZM34.0609 110.382L32.9009 109.681C32.3855 109.478 31.812 109.478 31.2965 109.681C31.5885 108.801 31.8002 107.896 31.9293 106.977L34.656 108.484C34.3774 109.098 34.1921 109.751 34.1061 110.42L34.0609 110.382Z" fill="black"/>
<path d="M146.663 113.064C145.443 101.705 134.928 84.2376 128.646 74.694C132.153 74.9746 135.674 75.0626 139.191 74.9577C140.193 74.9577 142.814 74.7769 143.319 74.679C143.613 74.6187 143.658 74.34 143.213 74.325C142.769 74.3099 139.605 74.1592 139.176 74.1517H131.516C130.341 74.1969 128.503 74.3024 128.397 74.3024C126.137 70.86 124.563 68.7058 124.548 68.6982C124.531 68.6807 124.51 68.667 124.487 68.6582C124.464 68.6494 124.439 68.6456 124.415 68.647C124.39 68.6485 124.366 68.6552 124.344 68.6666C124.322 68.6781 124.303 68.6941 124.288 68.7136C124.273 68.7331 124.262 68.7555 124.256 68.7795C124.251 68.8035 124.25 68.8284 124.255 68.8526C124.259 68.8769 124.269 68.8998 124.283 68.9199C124.298 68.9401 124.316 68.9569 124.337 68.9694C124.684 69.2481 139.907 91.4913 144.562 106.812C146.407 112.891 147.499 120.521 141.549 122.63C127.418 127.677 16.7443 129.319 6.28179 123.384C4.82804 122.562 4.48908 120.853 4.77531 118.548C5.21972 115.346 6.94464 111.015 9.02359 106.164C11.3662 108.424 30.7998 126.268 33.9483 125.598C37.0969 124.928 54.8056 116.702 55.5362 115.128C55.9606 114.035 56.1852 112.874 56.199 111.701C56.2882 111.578 56.3298 111.427 56.3159 111.276C56.302 111.125 56.2337 110.984 56.1237 110.88C54.9562 109.72 31.7941 91.3557 30.3026 91.4084C29.2632 91.4536 27.3801 92.5232 26.4837 93.0505C26.1931 92.575 25.7604 92.2029 25.2468 91.9866C24.7332 91.7703 24.1646 91.7209 23.6214 91.8453C23.1092 92.0522 22.6506 92.3725 22.2801 92.7822C21.9096 93.1918 21.6367 93.6802 21.4822 94.2105C21.4906 94.2512 21.5128 94.2878 21.5451 94.314C21.5773 94.3402 21.6176 94.3546 21.6592 94.3546C21.7008 94.3546 21.7411 94.3402 21.7733 94.314C21.8056 94.2878 21.8278 94.2512 21.8362 94.2105C22.2893 93.4443 23.0075 92.8708 23.8549 92.5986C24.2072 92.5445 24.5677 92.5915 24.8944 92.7341C25.2211 92.8768 25.5006 93.1093 25.7003 93.4045L17.3243 96.9824C16.8796 96.5252 16.3243 96.1905 15.7124 96.0107C14.2812 95.6341 13.3171 96.5757 12.7446 97.9541C12.732 97.9938 12.7334 98.0365 12.7487 98.0752C12.764 98.1139 12.7921 98.1462 12.8284 98.1665C12.8647 98.1869 12.9069 98.1941 12.9479 98.187C12.9889 98.1798 13.0262 98.1588 13.0534 98.1274C14.0176 96.7339 15.1324 96.2593 16.4656 97.3741C14.8537 98.0897 12.6015 99.1066 11.0197 99.8899C11.1327 99.7092 27.3876 70.2725 27.3876 70.1972C28.1032 68.8715 29.5419 66.4988 31.0257 66.19C31.6964 66.0437 32.3806 65.968 33.067 65.964C32.02 67.6964 23.5235 81.782 23.5084 83.7706C23.5084 86.0303 23.9001 85.6763 25.1053 86.0303C26.3105 86.3843 93.7481 85.9701 93.8686 85.9701C95.0361 85.9701 99.6008 85.8194 100.023 85.5106C101.333 84.5464 101.039 83.1077 100.467 81.5937C100.331 81.2322 99.646 79.7332 98.727 77.7296C102.682 76.5395 105.657 78.0535 105.928 84.5088C106.199 90.0903 104 91.7926 99.7891 91.5516C96.407 91.3557 94.072 90.3614 93.3338 91.6796C92.5053 93.1484 94.7951 96.4476 95.7894 97.8185C95.6463 97.8185 89.3416 97.6905 87.7523 97.6227C85.5127 97.536 83.2702 97.5636 81.0334 97.7055C79.493 97.7394 77.9615 97.9492 76.4688 98.3307C75.9038 98.6094 75.1732 100.063 74.8643 100.673C74.2542 101.871 71.4748 109.388 70.7065 111.558C70.2545 112.808 68.7254 116.951 69.7498 117.681C69.7122 118.487 69.8402 119.565 70.5483 119.941C71.2563 120.318 80.9882 120.589 81.7339 120.604C83.0521 120.642 96.3769 120.815 104.881 120.438C113.385 120.062 117.099 119.248 116.88 119.271C117.096 119.207 117.29 119.085 117.44 118.917C117.591 118.75 117.691 118.543 117.731 118.322C117.847 117.765 117.811 117.187 117.626 116.65C118.575 114.804 111.397 99.4832 109.408 98.4061C109.291 98.3399 109.159 98.3037 109.024 98.3006C108.625 98.3006 99.6912 97.924 96.2187 97.811C95.4655 96.7489 93.0175 92.7492 93.959 91.8981C95.3902 90.6477 107.344 96.9146 106.704 84.441C106.372 78.7992 103.774 75.4925 98.5011 77.4057C98.0416 76.4114 94.185 68.171 93.153 65.979C97.1507 66.2182 101.161 66.1301 105.145 65.7154C105.202 66.4184 105.404 67.1019 105.739 67.7229C106.073 68.3439 106.532 68.8888 107.088 69.3234C110.101 71.5832 122.093 71.2442 124.269 68.4798C124.879 67.6456 125.301 66.6889 125.505 65.6758C125.709 64.6628 125.691 63.6174 125.452 62.6121C125.652 62.4846 125.808 62.2975 125.896 62.0773C126.017 61.8438 125.896 61.55 125.377 61.4445C124.706 61.3441 124.028 61.3038 123.35 61.324C123.35 60.7064 123.388 59.5539 123.35 58.2433C123.418 58.1981 123.908 57.6105 123.961 57.5427C124.561 56.8413 125.035 56.041 125.362 55.1776C125.61 54.4771 125.708 53.6711 125.053 53.2794C124.043 52.7295 123.335 53.7389 122.996 54.8687C122.68 53.1288 121.949 50.5753 120.202 50.8314C117.234 51.2833 119.283 58.4768 120.247 61.324C119.4 61.2048 118.541 61.2048 117.694 61.324C118.635 58.9588 119.117 55.9007 116.699 55.4412C116.333 55.3602 115.95 55.3883 115.6 55.5222C115.249 55.6561 114.945 55.8898 114.726 56.1944C114.677 56.024 114.587 55.8686 114.462 55.7428C114.337 55.617 114.182 55.5249 114.012 55.4753C113.842 55.4256 113.662 55.4199 113.489 55.4587C113.316 55.4976 113.156 55.5797 113.024 55.6973C111.916 56.4957 112.549 58.3261 113.837 58.9287C113.769 59.7031 113.769 60.4819 113.837 61.2562C113.035 61.1593 112.224 61.1771 111.427 61.3089C111.382 59.4698 111.18 57.6378 110.824 55.8329C111.282 55.5072 111.667 55.09 111.955 54.6076C112.243 54.1252 112.427 53.5883 112.496 53.0308C112.602 52.029 112.248 51.1929 111.412 50.9745C110.365 50.7033 109.747 51.434 109.566 52.481C108.64 51.2005 106.824 50.741 105.943 52.2098C103.118 49.2722 101.755 50.9142 102.471 52.2098C103.005 53.2041 104.399 53.7615 105.484 54.0703C105.484 55.7576 106.237 57.1812 107.171 58.6349C107.796 59.6142 108.497 60.5557 109.039 61.2487C107.867 61.211 106.694 61.2867 105.536 61.4747C104.828 61.663 104.715 62.1752 105.371 62.5443C105.163 63.4272 105.087 64.3358 105.145 65.2409C101.098 65.0256 97.0415 65.1213 93.0099 65.5271C92.7538 64.9772 91.993 63.3728 91.9027 63.1845C91.8123 62.9962 92.5354 60.8118 93.5523 40.5044C98.2223 40.1128 119.223 40.5798 121.151 39.8341C121.262 39.7944 121.36 39.726 121.435 39.636C121.51 39.546 121.561 39.4376 121.58 39.3219C122.221 37.2203 122.657 19.1576 121.58 17.4779C121.317 17.0636 120.375 16.9355 119.855 16.8602C113.144 15.881 85.1386 16.3028 83.6999 17.0636C82.2612 17.8244 82.8713 25.2513 83.1425 26.7277C68.5974 26.2607 35.0104 27.1721 31.8468 28.3547C31.0935 28.6258 30.8148 29.6578 30.6642 30.4336C29.4138 36.8889 32.9239 57.6633 34.099 64.0809C34.0236 64.0809 34.099 64.0809 33.18 65.512C32.4022 65.4544 31.6202 65.4949 30.8525 65.6326C29.1351 65.8962 27.5533 68.2689 26.6796 69.7453C26.6419 69.8206 24.4198 73.5115 24.0884 74.114C22.1978 73.8203 13.4074 73.9333 12.2927 73.9935C11.1779 74.0538 10.0329 74.1366 9.02359 74.212C8.84281 74.212 8.82774 74.5585 9.02359 74.566C11.1327 74.694 11.9085 74.7392 13.543 74.7618C17.5427 74.8221 23.4406 74.9878 23.6289 74.9652C23.2372 75.6507 17.4373 85.9701 16.6614 87.4313C13.2869 93.7586 10.6355 99.551 10.4773 100.041C9.60173 100.439 8.77934 100.945 8.02931 101.547C7.78738 102.211 7.64277 102.906 7.59996 103.611C7.5623 104.824 7.99918 105.117 8.66956 105.795C6.87075 109.65 5.39193 113.645 4.24804 117.742C3.8746 119.399 3.85919 121.117 4.20285 122.781C4.5104 124.444 5.08528 126.047 5.90517 127.526C6.27346 127.9 6.75072 128.148 7.26853 128.234C9.24956 128.792 15.3885 129.507 17.4448 129.741C17.2898 130.661 17.2468 131.597 17.3168 132.528C17.3188 133.487 17.4583 134.441 17.731 135.36C17.7335 135.383 17.7405 135.405 17.7514 135.425C17.7624 135.445 17.7773 135.463 17.7951 135.477C17.8129 135.491 17.8334 135.502 17.8554 135.508C17.8774 135.515 17.9004 135.517 17.9231 135.514C17.9459 135.512 17.9679 135.505 17.988 135.494C18.0081 135.483 18.0258 135.468 18.0401 135.45C18.0545 135.433 18.0651 135.412 18.0716 135.39C18.078 135.368 18.08 135.345 18.0775 135.322C18.198 134.383 18.2308 133.435 18.1755 132.49C18.1705 131.58 18.067 130.674 17.8666 129.786C18.9061 129.876 19.9079 129.952 20.7817 129.982C20.6427 130.861 20.6048 131.753 20.6687 132.641C20.6712 133.6 20.8107 134.554 21.083 135.473C21.083 135.519 21.1012 135.563 21.1337 135.596C21.1662 135.628 21.2103 135.646 21.2562 135.646C21.3022 135.646 21.3462 135.628 21.3787 135.596C21.4112 135.563 21.4295 135.519 21.4295 135.473C21.554 134.534 21.5893 133.586 21.5349 132.641C21.5297 131.761 21.4287 130.885 21.2336 130.027C22.9133 130.065 47.6347 132.287 90.3284 131.443C101.77 131.217 115.524 130.69 126.853 129.447C126.703 130.355 126.661 131.278 126.725 132.196C126.729 133.153 126.871 134.105 127.147 135.021C127.141 135.046 127.142 135.072 127.148 135.098C127.154 135.123 127.165 135.146 127.182 135.166C127.198 135.186 127.218 135.202 127.242 135.213C127.265 135.224 127.29 135.23 127.316 135.23C127.342 135.23 127.368 135.224 127.391 135.213C127.414 135.202 127.435 135.186 127.451 135.166C127.467 135.146 127.479 135.123 127.485 135.098C127.491 135.072 127.491 135.046 127.486 135.021C127.617 134.083 127.653 133.134 127.591 132.189C127.583 131.258 127.474 130.332 127.267 129.425C128.103 129.334 130.039 129.093 130.205 129.07C130.057 129.974 130.016 130.892 130.084 131.805C130.085 132.764 130.224 133.718 130.499 134.637C130.504 134.683 130.527 134.725 130.563 134.754C130.599 134.783 130.645 134.796 130.691 134.791C130.737 134.786 130.779 134.763 130.808 134.727C130.837 134.691 130.85 134.645 130.845 134.599C130.969 133.663 131.002 132.717 130.943 131.775C130.938 130.846 130.83 129.922 130.619 129.018C134.016 128.558 144.404 127.157 145.82 124.257C147.492 120.951 147.356 116.65 146.663 113.064ZM78.1184 100.937C78.2012 100.734 80.7246 100.184 83.4814 100.937C83.5067 100.932 83.5328 100.932 83.5579 100.938C83.583 100.944 83.6064 100.956 83.6264 100.972C83.6465 100.988 83.6626 101.009 83.6737 101.032C83.6848 101.055 83.6906 101.081 83.6906 101.106C83.6906 101.132 83.6848 101.158 83.6737 101.181C83.6626 101.204 83.6465 101.225 83.6264 101.241C83.6064 101.257 83.583 101.269 83.5579 101.275C83.5328 101.281 83.5067 101.281 83.4814 101.276C82.1086 101.52 80.7069 101.555 79.3235 101.381C78.6758 101.276 77.8547 101.268 78.0958 100.937H78.1184ZM116.842 118.849C109.875 120.175 71.3844 119.873 70.8044 119.602C70.2244 119.331 70.1717 118.457 70.1566 117.885C74.3296 119.241 115.102 118.194 117.37 116.996C117.49 117.659 117.52 118.721 116.82 118.849H116.842ZM102.222 101.02C102.222 100.764 103.879 100.621 103.955 100.613C104.94 100.537 105.929 100.537 106.915 100.613C107.465 100.673 108.225 100.749 108.165 100.982C108.105 101.216 106.967 101.314 106.772 101.344C106.035 101.412 105.296 101.442 104.557 101.434C104.06 101.419 102.169 101.329 102.199 101.02H102.222ZM111.901 103.528C113.786 107.119 115.368 110.86 116.632 114.714C116.792 115.2 116.881 115.708 116.895 116.22C113.498 117.275 74.3446 118.359 70.3826 117.222C70.1943 117.169 70.1415 117.222 70.0963 116.906C69.8101 114.857 73.162 106.714 73.9379 104.816C88.1892 104.342 111.751 103.611 111.879 103.528H111.901ZM105.559 53.7313C104.735 53.2789 103.988 52.6993 103.344 52.014C103.051 51.5695 103.118 51.2607 103.985 51.6825C104.527 51.9311 105.288 52.3755 105.8 52.6843C105.668 53.0195 105.587 53.3724 105.559 53.7313ZM123.637 55.0797C124.239 53.995 124.834 53.6862 124.774 54.3264C124.45 55.4721 123.99 56.5747 123.403 57.6105C123.358 56.8573 123.305 56.3526 123.245 55.8555C123.275 55.75 123.426 55.4337 123.614 55.0797H123.637ZM120.435 61.6328C120.586 62.0622 120.684 62.3183 120.692 62.3334C120.7 62.3547 120.712 62.3742 120.728 62.3907C120.744 62.4072 120.763 62.4204 120.784 62.4295C120.805 62.4386 120.828 62.4434 120.851 62.4437C120.873 62.444 120.896 62.4398 120.917 62.4313C121.249 62.3032 120.759 61.9944 119.976 57.4524C119.742 56.0965 119.049 51.916 120.42 51.7202C121.535 51.5545 122.138 54.3189 122.349 55.4111C122.739 57.5164 122.991 59.6451 123.102 61.7835C123.101 61.8252 123.116 61.8657 123.143 61.8976C123.17 61.9294 123.207 61.9505 123.248 61.9569C123.29 61.9633 123.332 61.9547 123.367 61.9325C123.403 61.9103 123.429 61.8761 123.441 61.8362C123.443 61.7936 123.443 61.7508 123.441 61.7082C124.122 61.7282 124.799 61.8217 125.46 61.9869C125.375 62.0851 125.27 62.1624 125.151 62.2128C123.569 63.0263 118.786 62.8682 117.136 62.838C117.362 62.3861 117.52 62.0396 117.694 61.6253C118.594 61.7733 119.512 61.7758 120.413 61.6328H120.435ZM114.56 59.9832C114.733 58.4768 115.118 56.0739 116.639 56.3602C118.161 56.6464 117.776 58.8534 117.445 60.3297C117.241 61.1767 116.989 62.0116 116.692 62.8305H114.432C114.414 61.8802 114.449 60.9296 114.538 59.9832H114.56ZM113.604 56.443C113.639 56.4096 113.68 56.384 113.726 56.3676C113.771 56.3513 113.82 56.3447 113.868 56.3483C113.916 56.3518 113.963 56.3654 114.006 56.3882C114.049 56.411 114.086 56.4425 114.116 56.4807C114.236 56.6008 114.344 56.7319 114.44 56.8724C114.226 57.3527 114.076 57.8593 113.995 58.3788C113.604 57.8365 113.099 56.8498 113.604 56.443ZM111.231 51.8633C112.21 52.1721 111.442 54.7482 110.786 55.5316C110.605 54.7209 110.335 53.9327 109.98 53.1815C110.199 52.5186 110.568 51.6524 111.231 51.8558V51.8633ZM109.378 61.7157C109.747 62.1827 109.988 62.4689 109.988 62.4689C110.018 62.4985 110.058 62.5161 110.099 62.5186C110.141 62.5211 110.183 62.5082 110.216 62.4824C110.249 62.4566 110.272 62.4196 110.28 62.3783C110.288 62.337 110.28 62.2943 110.259 62.258C110.259 62.258 108.926 60.3599 107.826 58.3939C106.998 56.8874 106.207 55.3809 106.425 53.7163C106.598 52.4056 107.291 51.8483 108.459 52.609C110.146 53.6937 110.914 60.3825 111.155 62.4012C111.158 62.454 111.176 62.5048 111.209 62.5466C111.241 62.5884 111.286 62.6192 111.336 62.6347C111.54 62.6347 111.51 62.4162 111.502 62.3108C111.494 62.2053 111.502 61.678 111.502 61.6253C112.302 61.7265 113.112 61.7265 113.912 61.6253C113.958 62.1752 114.01 62.6045 114.048 62.8305C111.374 62.8305 108.143 63.0113 105.928 62.145C107.066 61.9199 108.219 61.7764 109.378 61.7157ZM105.77 62.823C106.872 63.2499 108.033 63.504 109.212 63.5762C110.545 63.6967 119.622 63.7118 120.654 63.6591C122.21 63.6335 123.751 63.3457 125.211 62.8079C125.351 63.7328 125.298 64.6768 125.056 65.5803C124.814 66.4838 124.387 67.3274 123.802 68.058C121.972 70.2047 110.395 70.6943 107.615 68.7359C105.785 67.478 105.453 64.9622 105.77 62.8154V62.823ZM99.6987 84.9381C99.8569 85.4428 28.0354 85.4654 27.9601 85.4578C24.9471 85.4578 25.7003 85.4579 24.691 85.2093C24.4198 85.149 24.3671 85.149 24.3144 84.8854C24.2505 84.4718 24.2328 84.0525 24.2616 83.635C24.2774 83.6659 24.3029 83.6908 24.3343 83.7057C24.3656 83.7207 24.4009 83.725 24.4349 83.7179C24.4349 83.7179 99.6761 82.6935 100.166 82.6784C100.369 83.5597 100.399 84.3807 99.6987 84.9381ZM120.887 39.2239C120.887 39.2239 120.933 39.1486 120.948 39.1712C120.963 39.1938 120.887 39.2164 120.85 39.2239H120.887ZM83.4287 20.2272C83.4287 19.7376 83.6245 17.8846 84.0614 17.6587C85.0557 17.1615 116.654 16.7397 120.97 18.088C121.723 19.6698 121.482 37.4388 120.85 39.2239C117.144 39.8039 98.4935 39.7587 93.6426 40.2559C93.9364 34.3279 94.0645 29.3339 93.8234 28.3622C93.777 28.2355 93.7018 28.1212 93.6038 28.0285C93.5057 27.9357 93.3876 27.8669 93.2585 27.8274C91.6089 27.1118 85.4022 26.9084 83.5944 26.8482C83.3598 24.6493 83.3044 22.435 83.4287 20.2272ZM31.3421 39.1938C31.2291 37.612 30.6717 29.6276 32.1782 29.0702C32.9314 28.8066 35.5829 28.543 39.4319 28.317C46.8061 27.8575 58.4286 27.4884 69.0041 27.4131C71.3542 27.4131 91.2097 27.2399 93.153 28.5731C93.7255 31.1793 91.8951 60.1339 91.4884 62.9284C73.6893 63.5084 52.5986 64.3822 34.6488 63.9453C34.3475 62.2204 32.0426 48.9106 31.3421 39.1938ZM34.4153 64.45C34.4168 64.4324 34.4168 64.4148 34.4153 64.3972C47.1074 64.7889 86.8258 63.4858 91.6616 63.4557C92.1964 64.6985 99.7062 81.3602 100.023 82.2867C99.9397 82.2867 24.3746 83.3111 24.2767 83.3864C25.2258 80.2078 33.0746 66.7699 34.4153 64.45ZM55.1219 114.917C54.5645 116.002 37.6769 123.549 34.2044 124.596C34.2718 124.249 34.2971 123.895 34.2797 123.542C39.4093 121.764 50.5422 117.071 55.5362 113.75C55.441 114.155 55.3021 114.549 55.1219 114.925V114.917ZM55.6417 113.252C54.1352 114.141 52.6965 114.759 34.2722 123.135C34.2729 122.794 34.2273 122.454 34.1366 122.126C36.547 120.996 52.8923 114.661 55.8074 112.138C55.7697 112.462 55.717 112.853 55.6417 113.26V113.252ZM16.8422 97.7959C17.2044 98.2226 17.4286 98.7492 17.4851 99.306C17.5416 99.8628 17.4277 100.424 17.1586 100.914C17.0381 101.103 17.3243 101.299 17.4448 101.103C17.8996 100.607 18.1684 99.969 18.2055 99.2974C18.2425 98.6257 18.0456 97.962 17.6482 97.4193C21.3089 95.7396 24.9094 94.1578 25.8962 93.7284C26.143 94.2299 26.2752 94.7801 26.283 95.339C26.2908 95.898 26.1741 96.4516 25.9414 96.9598C25.851 97.2009 26.1222 97.2913 26.2502 97.1331C26.6645 96.6067 26.9223 95.9744 26.9942 95.3084C27.0662 94.6424 26.9493 93.9696 26.6569 93.3669C27.4705 92.9074 29.3686 91.8604 30.2951 91.8604C31.4551 91.8604 54.9939 111.008 55.4307 111.445C53.4648 113.471 35.2138 120.694 33.6772 121.433C30.4382 120.679 10.6732 103.679 8.82021 101.931C9.97267 100.975 15.5467 98.3985 16.8422 97.7959ZM8.24775 102.278C10.5979 104.575 30.2047 121.689 33.4888 122.231C33.4229 122.515 33.3926 122.806 33.3985 123.097C28.1258 120.521 13.061 107.475 8.0745 103.28C8.0971 103.28 8.21009 102.541 8.27034 102.278H8.24775ZM8.36073 104.861C8.14826 104.538 8.04286 104.156 8.05944 103.769C12.9856 108.741 26.8905 120.966 33.3909 123.512C33.3775 123.914 33.418 124.317 33.5114 124.709C29.6473 123.843 8.87294 105.479 8.38333 104.861H8.36073ZM145.451 124.009C140.585 133.665 8.54151 131.142 6.40231 127.376C5.49555 125.8 4.88299 124.072 4.59453 122.276C4.8851 122.913 5.37046 123.44 5.98049 123.783C17.0682 130.238 127.38 128.551 141.782 123.376C144.833 122.276 146.369 119.904 146.716 116.597C146.92 119.136 146.48 121.685 145.435 124.009H145.451Z" fill="black"/>
<path d="M32.6606 72.7808C85.9223 73.534 91.0066 73.0745 92.4981 72.841C92.8521 72.7883 93.0781 72.6678 93.063 72.2535C93.063 71.1613 90.502 66.1523 89.8241 65.8058C89.5228 65.6476 35.5907 66.4084 35.4024 66.4686C35.3673 66.4771 35.3344 66.4929 35.3059 66.5149C35.2773 66.537 35.2537 66.5649 35.2367 66.5967C34.7245 67.4328 32.2237 71.5605 32.3367 72.4945C32.349 72.5725 32.388 72.6437 32.4471 72.696C32.5062 72.7482 32.5817 72.7782 32.6606 72.7808ZM35.6208 66.9884C36.1632 66.9206 89.2215 66.3933 89.5453 66.4234C90.1077 67.2324 90.6111 68.0807 91.0518 68.9619C89.8165 68.9619 34.604 69.2556 34.3177 69.2631C34.6492 68.6003 35.086 67.8471 35.6208 66.9884ZM34.1144 69.6247C34.4081 69.6247 90.276 69.3385 91.2326 69.3159C91.7283 70.2388 92.1199 71.2139 92.4001 72.2234C89.7186 72.6527 65.2835 72.4418 32.9318 72.2234C33.2341 71.311 33.6251 70.4306 34.0993 69.5946L34.1144 69.6247ZM74.232 75.3418C74.0817 75.0092 73.8362 74.7286 73.5265 74.5356C73.2168 74.3425 72.8568 74.2456 72.492 74.2571C70.5787 74.2571 54.5121 73.8127 53.0659 74.4002C52.1426 75.519 51.4282 76.7947 50.9568 78.1664C50.9116 78.4979 51.0773 78.6485 51.2807 78.6711C55.8002 79.1607 70.7821 79.6277 74.6688 78.9122C75.1509 78.8218 75.2112 78.3096 75.1133 77.82C74.8801 76.9736 74.5855 76.1454 74.232 75.3418ZM51.4916 78.1664C51.9243 76.9442 52.5116 75.7823 53.2391 74.7091C54.3841 74.3325 69.2756 75.1158 72.5146 75.1083C72.7074 75.1014 72.8981 75.1503 73.0638 75.2492C73.2295 75.3481 73.3631 75.4927 73.4486 75.6657C73.8147 76.4481 74.0999 77.2658 74.2998 78.1062C70.4808 78.7013 54.2636 78.3623 51.4916 78.1664ZM126.545 76.3059C125.482 74.8447 120.157 74.9124 118.372 74.9652C116.865 74.9652 111.389 75.2137 111.389 76.6901C111.396 76.8097 111.43 76.9261 111.491 77.0295C111.551 77.133 111.635 77.2207 111.736 77.2852C111.879 77.3981 110.892 87.3259 112.248 92.6513C112.692 94.4139 113.265 95.2876 114.945 96.0183C118.169 97.4193 123.517 97.1105 125.663 94.1201C126.093 93.2463 126.002 90.7004 126.04 89.9245C129.377 90.5874 132.111 89.2316 132.819 85.6386C133.263 83.3262 132.691 81.8121 131.704 80.8932C131.045 80.3565 130.266 79.9871 129.433 79.8166C128.6 79.6461 127.738 79.6795 126.921 79.914C126.893 79.9236 126.862 79.9263 126.832 79.9217C126.803 79.9172 126.774 79.9056 126.75 79.8879C126.726 79.8702 126.706 79.8469 126.693 79.82C126.679 79.793 126.672 79.7633 126.673 79.7332C126.673 79.334 126.816 76.6298 126.545 76.3059ZM112.233 76.4641C114.267 75.274 122.552 75.1836 125.226 76.3963C125.317 76.4415 125.656 76.6148 125.656 76.6901C125.656 76.7654 125.309 76.9462 125.226 76.9839C123.208 77.8953 115.999 78.3096 112.21 76.9236C111.947 76.7805 112.21 76.4943 112.21 76.4641H112.233ZM127.132 80.6823C127.817 80.485 128.539 80.4566 129.237 80.5996C129.935 80.7426 130.587 81.0527 131.139 81.5033C131.953 82.2565 132.36 83.5521 131.983 85.4729C131.908 86.1406 131.677 86.7813 131.308 87.3428C130.938 87.9042 130.442 88.3707 129.859 88.7043C128.623 89.2602 127.233 89.3668 125.927 89.0056C125.863 88.9823 125.794 88.9725 125.726 88.9767C125.658 88.981 125.592 88.9992 125.531 89.0303C125.47 89.0614 125.416 89.1047 125.373 89.1575C125.33 89.2102 125.298 89.2713 125.279 89.337C125.076 89.9095 125.362 92.2219 124.948 93.6832C123.042 96.2668 118.169 96.5003 115.284 95.2876C113.822 94.6624 113.416 94.0146 113.024 92.4554C112.015 88.757 111.954 81.2246 112.18 77.5187C114.553 78.641 122.771 78.9649 126.002 77.3078C126.002 79.6428 125.716 80.0345 126.304 80.509C126.417 80.5948 126.548 80.6547 126.687 80.6846C126.827 80.7145 126.971 80.7137 127.109 80.6823H127.132ZM53.9623 96.6434C51.9841 94.9657 49.856 93.473 47.6049 92.1843C46.7377 91.6726 45.8154 91.2607 44.8556 90.9565C44.0496 90.7456 43.7107 91.1599 43.8764 91.7097C44.2159 92.4992 44.6647 93.2371 45.2096 93.9017C46.9428 96.0956 48.9358 98.0709 51.1451 99.7845C54.5046 102.594 58.8583 105.999 62.037 108.417C62.1989 108.535 62.3829 108.62 62.5781 108.666C62.7732 108.712 62.9757 108.719 63.1735 108.686C63.3714 108.653 63.5606 108.581 63.7302 108.474C63.8998 108.367 64.0463 108.227 64.1611 108.063C64.7185 107.452 65.065 106.383 64.4398 105.803C63.7167 105.155 59.2952 100.99 53.9623 96.6434ZM46.7462 94.9713L45.7143 93.3066C46.0817 93.154 46.3923 92.8907 46.6031 92.5534L48.2376 93.2162C47.8275 93.2976 47.4569 93.5152 47.1861 93.8339C46.9154 94.1525 46.7603 94.5533 46.7462 94.9713ZM49.0587 96.892C48.5143 96.4339 48.0103 95.9299 47.5522 95.3855C47.6049 94.4741 47.8911 94.0674 48.8026 94.0372C49.4098 94.3274 49.9832 94.6835 50.5124 95.0993C50.1074 95.198 49.7459 95.4267 49.4833 95.7505C49.2207 96.0743 49.0715 96.4753 49.0587 96.892ZM61.9391 107.852C61.103 107.151 49.9851 97.7206 49.2997 97.118C49.3572 96.6963 49.5414 96.302 49.8279 95.9873C50.1144 95.6725 50.4897 95.4522 50.9041 95.3554C53.5028 97.2837 57.2389 100.477 63.7544 105.901C63.5008 105.888 63.2474 105.931 63.0121 106.026C62.7767 106.122 62.5651 106.267 62.3921 106.453C62.2191 106.639 62.0889 106.861 62.0107 107.102C61.9324 107.344 61.908 107.6 61.9391 107.852ZM121.626 116.198C122.567 116.838 123.223 116.544 123.833 115.655C125.339 113.516 130.612 104.048 130.612 103.972C130.612 103.897 130.672 104.04 130.424 100.997C130.413 100.883 130.372 100.773 130.304 100.68C130.236 100.587 130.145 100.514 130.04 100.469C129.934 100.424 129.818 100.407 129.704 100.422C129.59 100.437 129.482 100.482 129.392 100.553L126.816 102.428C126.816 102.428 121.099 114.247 121.038 114.352C120.935 114.683 120.936 115.037 121.041 115.368C121.146 115.698 121.35 115.988 121.626 116.198ZM129.603 101.472C129.648 102.022 129.708 102.752 129.753 103.257C129.194 102.989 128.608 102.78 128.006 102.632L129.603 101.472ZM127.448 103.144C128.101 103.607 128.855 103.906 129.648 104.018C129.535 104.214 123.78 114.714 123.72 114.819C123.545 114.463 123.257 114.175 122.902 113.999C122.546 113.824 122.143 113.77 121.754 113.847C122.341 112.755 127.238 103.521 127.448 103.144Z" fill="black"/>
<path d="M123.983 88.2073C123.902 88.0934 123.799 87.9967 123.68 87.923C123.561 87.8493 123.428 87.8 123.29 87.778C122.844 87.6589 122.392 87.5683 121.934 87.5068C122.19 89.2995 122.341 91.273 122.333 91.4463C122.322 91.561 122.266 91.6665 122.177 91.7398C122.088 91.8132 121.974 91.8485 121.859 91.838C121.744 91.8247 121.638 91.7668 121.565 91.6767C121.492 91.5866 121.457 91.4715 121.467 91.3559C121.467 91.2278 121.422 90.7081 121.384 87.4315C119.878 87.2432 112.624 86.6783 112.91 88.1245C112.91 88.1998 112.315 91.8907 114.62 93.6608C116.925 95.4309 121.535 95.0844 123.147 93.2842C123.604 92.7362 123.906 92.0754 124.021 91.3709C124.199 90.3227 124.186 89.251 123.983 88.2073ZM125.791 81.3905C125.791 81.7295 125.339 84.3206 125.038 87.8006L125.399 87.8759C126.724 88.1572 128.105 88.0068 129.339 87.4466C129.769 87.2077 130.125 86.855 130.368 86.4272C130.611 85.9994 130.732 85.513 130.717 85.0211C130.768 84.4097 130.662 83.7954 130.408 83.2367C130.155 82.678 129.762 82.1936 129.268 81.8296C128.774 81.4656 128.195 81.2341 127.587 81.1573C126.978 81.0804 126.36 81.1607 125.791 81.3905ZM126.13 81.6466C126.611 81.5705 127.102 81.5983 127.571 81.7283C128.04 81.8582 128.476 82.0872 128.849 82.3998C129.207 82.7284 129.485 83.1352 129.66 83.5886C129.835 84.0419 129.903 84.5296 129.858 85.0136C129.791 86.9494 127.802 87.3185 125.896 87.1227C125.987 85.7518 126.062 84.1775 126.13 81.6466ZM53.2236 74.7093C53.2236 74.7093 53.2312 74.7168 53.2236 74.7093V74.7093ZM118.063 37.4314C118.061 37.5655 118.085 37.6988 118.135 37.8234C118.185 37.948 118.259 38.0616 118.352 38.1575C118.446 38.2534 118.558 38.3298 118.682 38.3823C118.805 38.4348 118.938 38.4623 119.072 38.4633C119.277 38.4678 119.479 38.4111 119.651 38.3005C119.824 38.1899 119.96 38.0303 120.041 37.8422C120.123 37.6541 120.147 37.4459 120.109 37.2443C120.072 37.0426 119.976 36.8566 119.832 36.7101C119.689 36.5635 119.505 36.4629 119.304 36.4212C119.104 36.3796 118.895 36.3986 118.705 36.476C118.515 36.5534 118.353 36.6856 118.238 36.8558C118.124 37.0259 118.063 37.2263 118.063 37.4314ZM35.6204 62.2808C35.7936 62.6197 36.0196 62.6574 36.1627 62.552C36.3059 62.4465 84.0086 62.0322 87.5563 61.8439C88.3193 61.8556 89.0801 61.7593 89.8161 61.5577C91.5109 60.0512 92.1737 31.8875 91.5109 30.5844C89.8161 27.2024 36.7729 29.3792 33.5113 30.366C30.9127 31.1494 34.4228 59.878 35.6204 62.2808ZM33.3682 31.5862C33.3682 31.4506 33.5339 30.9234 33.662 30.8857C37.27 29.8011 89.6579 28.0159 91.0815 30.8481C91.2029 31.4147 91.2585 31.9935 91.2472 32.573C91.3753 35.8571 91.2472 42.8924 90.9083 49.197C90.8405 50.4022 90.3057 60.2772 89.5223 61.1735C86.3964 61.8364 38.2266 61.987 36.0874 62.0699C34.8672 59.2377 32.2308 36.5576 33.3682 31.5862ZM119.17 20.8224C119.375 20.8269 119.576 20.7704 119.748 20.6601C119.921 20.5498 120.057 20.3907 120.138 20.203C120.22 20.0153 120.244 19.8076 120.208 19.6061C120.171 19.4047 120.075 19.2187 119.933 19.0718C119.79 18.925 119.607 18.8238 119.407 18.7813C119.207 18.7388 118.998 18.7568 118.808 18.833C118.618 18.9092 118.455 19.0403 118.34 19.2094C118.224 19.3786 118.162 19.5782 118.161 19.7829C118.158 19.9177 118.181 20.0518 118.231 20.1773C118.28 20.3028 118.354 20.4172 118.448 20.514C118.542 20.6107 118.654 20.6878 118.778 20.7407C118.902 20.7937 119.035 20.8215 119.17 20.8224Z" fill="black"/>
<path d="M48.1091 50.5676H57.0576C58.0931 50.5636 59.0848 50.1489 59.8149 49.4146C60.545 48.6802 60.9539 47.6862 60.9519 46.6507V39.3895C60.952 38.3518 60.5434 37.3557 59.8145 36.617C59.0857 35.8783 58.0953 35.4564 57.0576 35.4425H48.1091C47.5902 35.4405 47.0761 35.5412 46.5963 35.7389C46.1166 35.9365 45.6806 36.2272 45.3137 36.5941C44.9468 36.961 44.6562 37.3969 44.4585 37.8767C44.2609 38.3565 44.1601 38.8706 44.1621 39.3895V46.6507C44.1641 47.1671 44.2678 47.678 44.4672 48.1543C44.6666 48.6306 44.9579 49.0629 45.3244 49.4266C45.6909 49.7903 46.1255 50.0783 46.6033 50.2741C47.0811 50.4698 47.5928 50.5696 48.1091 50.5676ZM44.8024 39.3895C44.8161 38.5189 45.1696 37.6881 45.7874 37.0745C46.4052 36.4609 47.2384 36.1131 48.1091 36.1054H57.0576C57.4974 36.1004 57.9337 36.1826 58.3415 36.3472C58.7493 36.5118 59.1205 36.7556 59.4335 37.0644C59.7466 37.3733 59.9953 37.7411 60.1654 38.1466C60.3356 38.5522 60.4236 38.9874 60.4246 39.4271V46.6507C60.4226 47.0909 60.334 47.5264 60.1637 47.9323C59.9934 48.3382 59.7449 48.7066 59.4322 49.0165C59.1196 49.3263 58.7489 49.5716 58.3415 49.7382C57.9341 49.9048 57.4978 49.9896 57.0576 49.9876H48.1091C47.6729 49.9856 47.2413 49.8977 46.8391 49.729C46.4368 49.5602 46.0717 49.3139 45.7647 49.004C45.4576 48.6942 45.2146 48.3269 45.0495 47.9231C44.8844 47.5193 44.8004 47.087 44.8024 46.6507V39.3895ZM72.3032 55.9457C72.4539 56.3901 72.8305 56.2922 72.9359 56.0135C73.079 55.6143 73.9151 52.7444 74.0206 52.2473C74.6006 52.0665 72.9661 52.6315 78.0203 50.7936C78.0727 50.7732 78.1178 50.7375 78.1495 50.6912C78.1813 50.6448 78.1983 50.5899 78.1983 50.5337C78.1983 50.4775 78.1813 50.4226 78.1495 50.3762C78.1178 50.3298 78.0727 50.2941 78.0203 50.2738L70.277 47.178C70.2294 47.1555 70.1768 47.1459 70.1244 47.15C70.0719 47.1542 70.0215 47.172 69.978 47.2017C69.9346 47.2314 69.8997 47.272 69.8769 47.3194C69.854 47.3667 69.8439 47.4193 69.8476 47.4718C69.8476 47.4718 71.8889 54.7481 72.3032 55.9457ZM70.6235 47.984L77.1465 50.5525C76.2728 50.8764 74.7964 51.4338 74.0884 51.72C73.772 51.8406 73.644 51.8933 73.5687 51.9912C73.4933 52.0891 73.757 51.5016 72.6497 54.9138L70.6235 47.984ZM88.4 25.8989C88.4088 25.9441 88.4333 25.9847 88.4691 26.0137C88.5049 26.0426 88.5498 26.058 88.5958 26.0571C88.754 26.0571 93.6275 26.5241 94.6217 26.2605C95.262 26.0873 95.375 24.9574 95.4352 24.2945C95.5106 23.2927 95.4352 20.8372 95.0134 20.0011C94.441 18.8712 90.2153 19.2478 88.9875 19.4663C88.6616 19.5121 88.3501 19.6305 88.0761 19.8128C87.9165 19.998 87.8236 20.2314 87.8124 20.4756C87.805 22.2997 88.0021 24.1188 88.4 25.8989ZM88.6184 20.3928C89.8085 20.0237 93.1981 19.8806 94.2752 20.3928C94.6443 21.372 94.8402 24.739 94.3958 25.5223C93.6952 25.7031 89.4168 25.7031 88.7013 25.7106C88.6787 25.1231 88.3322 21.952 88.6184 20.3928ZM98.5085 25.8688C98.5186 25.9133 98.5434 25.9532 98.579 25.9819C98.6145 26.0105 98.6586 26.0264 98.7043 26.027C98.8625 26.027 103.736 26.494 104.73 26.2304C105.37 26.0571 105.483 24.9273 105.551 24.2644C105.619 23.2626 105.551 20.807 105.122 19.9709C104.549 18.8336 100.324 19.2177 99.096 19.4361C98.7709 19.4851 98.4601 19.6033 98.1846 19.7826C98.0283 19.9699 97.936 20.2021 97.9209 20.4455C97.9139 22.2695 98.111 24.0886 98.5085 25.8688ZM98.7269 20.3626C99.917 19.986 103.307 19.8504 104.384 20.3626C104.753 21.3418 104.949 24.7088 104.504 25.4847C103.804 25.673 99.5253 25.673 98.8098 25.6805C98.7872 25.093 98.4407 21.9218 98.7269 20.3626ZM109.084 26.2002C109.093 26.2454 109.117 26.286 109.153 26.315C109.189 26.3439 109.234 26.3593 109.28 26.3584C109.438 26.3584 114.311 26.8254 115.306 26.5618C115.946 26.3886 116.059 25.2587 116.119 24.5958C116.195 23.594 116.119 21.1385 115.697 20.3024C115.125 19.1725 110.899 19.5491 109.671 19.7676C109.346 19.8154 109.035 19.9336 108.76 20.1141C108.6 20.2993 108.508 20.5327 108.496 20.7769C108.489 22.601 108.686 24.4201 109.084 26.2002ZM109.302 20.6941C110.493 20.325 113.882 20.1819 114.959 20.6941C115.328 21.6733 115.524 25.0403 115.08 25.8236C114.379 26.0044 110.101 26.0044 109.385 26.0119C109.363 25.4244 109.016 22.2533 109.302 20.6941ZM98.5762 37.4537C98.629 37.6043 98.7495 37.6194 98.7721 37.6118C98.9378 37.6118 103.804 38.0788 104.798 37.8152C105.438 37.642 105.551 36.5121 105.619 35.8493C105.687 34.8474 105.619 32.3919 105.197 31.5633C104.617 30.4259 100.392 30.8101 99.1713 31.021C98.8433 31.0677 98.5296 31.186 98.2524 31.3675C98.0946 31.5567 98.0022 31.7919 97.9887 32.0379C97.9816 33.8594 98.1787 35.676 98.5762 37.4537ZM98.8022 31.9475C99.9923 31.5784 103.374 31.4353 104.452 31.9475C104.821 32.9267 105.016 36.2937 104.572 37.077C103.872 37.2578 99.6007 37.2578 98.8851 37.2654C98.8549 36.6778 98.5084 33.5067 98.8022 31.9475ZM116.187 31.2545C117.392 29.4768 118.447 27.8724 118.484 27.7971C118.522 27.7218 117.972 27.0439 117.648 27.5259C115.343 31.0737 115.66 30.7348 115.494 30.6745C114.168 30.1924 109.89 30.3581 109.22 30.9833C108.768 31.4051 108.941 32.9342 108.994 33.5895C108.511 33.3184 108.142 33.1225 108.007 33.0698C107.66 32.9342 107.683 33.2732 107.871 33.3937L109.046 34.1469C109.141 35.1368 109.295 36.1203 109.506 37.0921C109.513 37.138 109.537 37.1795 109.573 37.2087C109.61 37.2379 109.655 37.2527 109.702 37.2503C109.86 37.2503 114.733 37.7173 115.728 37.4537C117.023 37.0921 116.624 32.3392 116.187 31.2545ZM109.724 31.5633C111.496 31.1601 113.332 31.1268 115.117 31.4654L112.504 35.5856C112.24 35.435 110.831 34.6064 109.656 33.9436C109.607 33.1573 109.63 32.3681 109.724 31.5859V31.5633ZM115.502 36.6854C114.794 36.8737 110.523 36.8737 109.807 36.8812C109.807 36.5799 109.694 35.5932 109.641 34.501L112.504 36.2786C112.576 36.2865 112.649 36.2737 112.714 36.2417C112.78 36.2097 112.835 36.1598 112.873 36.0978C113.114 35.789 114.327 34.0264 115.562 32.2111C115.795 33.5669 115.871 36.0376 115.517 36.6854H115.502ZM85.5527 20.5735C85.7571 20.5765 85.9578 20.5187 86.1293 20.4075C86.3008 20.2963 86.4354 20.1366 86.516 19.9488C86.5966 19.7609 86.6197 19.5534 86.5822 19.3524C86.5447 19.1515 86.4484 18.9662 86.3054 18.8201C86.1625 18.674 85.9793 18.5736 85.7793 18.5317C85.5792 18.4898 85.3712 18.5082 85.1816 18.5847C84.9921 18.6612 84.8295 18.7923 84.7145 18.9613C84.5995 19.1303 84.5374 19.3297 84.5358 19.5341C84.5358 19.8059 84.6422 20.0669 84.8323 20.2612C85.0223 20.4555 85.281 20.5676 85.5527 20.5735Z" fill="black"/>
</svg>
