<svg width="27" height="27" viewBox="0 0 27 27" fill="none" xmlns="http://www.w3.org/2000/svg">
<path d="M20.419 11.871C20.04 12.2523 19.7498 12.7125 19.569 13.2187C19.3882 13.725 19.3213 14.2649 19.373 14.8L19.355 14.782C19.4082 15.4119 19.3232 16.0457 19.1061 16.6394C18.889 17.233 18.545 17.7721 18.0981 18.2191C17.6511 18.666 17.112 19.0101 16.5183 19.2271C15.9247 19.4442 15.2908 19.5292 14.661 19.476L14.679 19.494C13.9256 19.4239 13.1689 19.5878 12.512 19.9635C11.8552 20.3392 11.3302 20.9083 11.0087 21.5933C10.6872 22.2783 10.5847 23.0457 10.7153 23.7911C10.846 24.5364 11.2033 25.2233 11.7386 25.7581C12.2739 26.2929 12.9611 26.6496 13.7065 26.7795C14.452 26.9095 15.2193 26.8063 15.904 26.4842C16.5887 26.162 17.1573 25.6366 17.5324 24.9794C17.9075 24.3222 18.0708 23.5654 18 22.812L18.019 22.83C17.9658 22.2002 18.0507 21.5663 18.2678 20.9726C18.4849 20.379 18.829 19.8399 19.2759 19.3929C19.7229 18.946 20.262 18.6019 20.8556 18.3849C21.4493 18.1678 22.0831 18.0828 22.713 18.136L22.694 18.118C23.3094 18.1733 23.9289 18.0724 24.495 17.8246C25.061 17.5768 25.5554 17.1901 25.9322 16.7004C26.309 16.2107 26.5562 15.6337 26.6506 15.0231C26.7451 14.4124 26.6839 13.7878 26.4727 13.207C26.2615 12.6263 25.9071 12.1083 25.4424 11.701C24.9777 11.2937 24.4177 11.0103 23.8143 10.8771C23.2109 10.7439 22.5836 10.7651 21.9906 10.9388C21.3976 11.1126 20.8581 11.4332 20.422 11.871H20.419Z" fill="#25282A"/>
<path d="M13.042 17.136L13.023 17.118C13.5583 17.1719 14.0989 17.1062 14.6058 16.9256C15.1126 16.745 15.573 16.4541 15.9536 16.0738C16.3341 15.6935 16.6255 15.2333 16.8064 14.7266C16.9874 14.2199 17.0535 13.6794 17 13.144L17.019 13.162C16.9658 12.5321 17.0508 11.8983 17.2678 11.3046C17.4849 10.711 17.829 10.1719 18.2759 9.7249C18.7229 9.278 19.262 8.9339 19.8556 8.7169C20.4493 8.49976 21.0831 8.41483 21.713 8.468L21.694 8.45C22.4475 8.5208 23.2044 8.35736 23.8616 7.9821C24.5189 7.60684 25.0443 7.03797 25.3663 6.3531C25.6883 5.66824 25.7912 4.90071 25.661 4.1552C25.5308 3.40969 25.1738 2.72251 24.6386 2.18737C24.1035 1.65224 23.4163 1.2952 22.6708 1.16498C21.9253 1.03475 21.1578 1.13766 20.4729 1.45968C19.788 1.78169 19.2192 2.30714 18.8439 2.96435C18.4686 3.62155 18.3052 4.37852 18.376 5.132L18.358 5.113C18.4113 5.74289 18.3265 6.37683 18.1095 6.97055C17.8925 7.56427 17.5484 8.10346 17.1015 8.5505C16.6545 8.9974 16.1153 9.3415 15.5216 9.5585C14.9278 9.7755 14.2939 9.8603 13.664 9.807L13.682 9.826C13.1467 9.7721 12.606 9.8378 12.0992 10.0184C11.5924 10.1989 11.132 10.4899 10.7514 10.8702C10.3708 11.2505 10.0795 11.7107 9.8985 12.2174C9.7176 12.7241 9.6515 13.2646 9.705 13.8L9.687 13.782C9.74 14.4118 9.6549 15.0456 9.4378 15.6392C9.2206 16.2327 8.8766 16.7718 8.4297 17.2187C7.98276 17.6656 7.44372 18.0096 6.85016 18.2268C6.2566 18.4439 5.62281 18.529 4.993 18.476L5.011 18.494C4.25752 18.4232 3.50055 18.5866 2.84334 18.9619C2.18614 19.3372 1.66069 19.906 1.33868 20.5909C1.01666 21.2758 0.913742 22.0433 1.04397 22.7888C1.1742 23.5343 1.53124 24.2215 2.06637 24.7566C2.60151 25.2918 3.28869 25.6488 4.0342 25.779C4.77971 25.9092 5.54724 25.8063 6.23211 25.4843C6.91697 25.1623 7.48584 24.6369 7.8611 23.9797C8.2364 23.3224 8.3998 22.5655 8.329 21.812L8.348 21.83C8.2948 21.2001 8.3798 20.5663 8.5969 19.9726C8.8139 19.379 9.158 18.8399 9.6049 18.3929C10.0519 17.946 10.591 17.6019 11.1846 17.3849C11.7783 17.1678 12.4121 17.0828 13.042 17.136Z" fill="#25282A"/>
<path d="M6.34 15.129C6.71902 14.7478 7.0092 14.2876 7.18984 13.7813C7.37048 13.275 7.43712 12.735 7.385 12.2L7.40399 12.218C7.35079 11.588 7.43575 10.9539 7.65296 10.3601C7.87017 9.7663 8.2144 9.2271 8.6616 8.7801C9.1088 8.33312 9.6481 7.98913 10.242 7.77218C10.8359 7.55522 11.47 7.47052 12.1 7.524L12.081 7.506C12.8342 7.57657 13.5909 7.41308 14.2478 7.03784C14.9047 6.66261 15.4298 6.09388 15.7517 5.40923C16.0735 4.72457 16.1763 3.95732 16.0461 3.21209C15.9159 2.46686 15.5589 1.77994 15.024 1.245C14.4891 0.71006 13.8021 0.35314 13.0569 0.22292C12.3117 0.0926899 11.5444 0.19551 10.8598 0.51733C10.1751 0.83915 9.6064 1.36432 9.2312 2.02122C8.8559 2.67812 8.6924 3.43478 8.763 4.188L8.745 4.17C8.7982 4.79985 8.7132 5.43372 8.4961 6.02736C8.279 6.621 7.93502 7.16011 7.48806 7.60707C7.04111 8.05403 6.50199 8.39806 5.90835 8.6151C5.31471 8.8322 4.68085 8.9172 4.051 8.864L4.069 8.882C3.45357 8.8268 2.83416 8.9279 2.26818 9.1758C1.7022 9.4237 1.20795 9.8105 0.831238 10.3003C0.454528 10.79 0.207548 11.367 0.113168 11.9776C0.0187978 12.5883 0.0800878 13.2129 0.291358 13.7935C0.502628 14.3742 0.857058 14.8921 1.32179 15.2993C1.78652 15.7066 2.34652 15.9899 2.9499 16.1231C3.55327 16.2562 4.1805 16.2349 4.77347 16.0612C5.36643 15.8874 5.90593 15.5668 6.34199 15.129H6.34Z" fill="#25282A"/>
</svg>
